{
.appVersion = "983";
copyright = "Copyright 2013, 2017 Peter Hull. Licensed under SIL Open Font License 1.1";
customParameters = (
{
name = note;
value = "2013-7-31: Created.";
},
{
name = openTypeNameVersion;
value = "Version 1.000";
}
);
date = "2017-08-06 04:52:28 +0000";
designer = "Peter Hull";
disablesNiceNames = 1;
familyName = EffectsEighty;
featurePrefixes = (
{
code = "@GDEF_Simple = [\\space \\less \\dollar \\four \\comma \\D \\H \\L \\P \\five \\T \\underscore \\X \012	\\bar \\d \\h \\l \\p \\t \\x \\parenright \\zero \\quotesingle \\braceleft \\ampersand \\slash \\C \012	\\G \\asterisk \\K \\O \\S \\W \\exclam \\c \\g \\k \\equal \\o \\s \\plus \\w \\eight \\hyphen \\period \012	\\one \\asciitilde \\colon \\parenleft \\question \\three \\B \\F \\J \\N \\R \\bracketleft \\V \012	\\asciicircum \\Z \\b \\f \\j \\n \\r \\nine \\v \\z \\braceright \\seven \\semicolon \\backslash \012	\\at \\greater \\six \\percent \\bracketright \\A \\quotedbl \\E \\I \\numbersign \\M \\Q \\U \\two \012	\\Y \\grave \\a \\e \\i \\m \\q \\u \\y ];\012\012table GDEF {\012  GlyphClassDef @GDEF_Simple, , , ;\012\012} GDEF;";
name = Prefix;
}
);
fontMaster = (
{
ascender = 800;
capHeight = 0;
customParameters = (
{
name = hheaAscender;
value = 609;
},
{
name = hheaDescender;
value = -200;
},
{
name = hheaLineGap;
value = 0;
},
{
name = underlineThickness;
value = 50;
},
{
name = underlinePosition;
value = -100;
}
);
descender = -200;
id = "1F496C02-BC74-4D01-901C-8E7FF5CB5189";
weight = Bold;
weightValue = 700;
xHeight = 0;
}
);
glyphs = (
{
glyphname = A;
lastChange = "2017-08-06 04:52:05 +0000";
layers = (
{
layerId = "1F496C02-BC74-4D01-901C-8E7FF5CB5189";
paths = (
{
closed = 1;
nodes = (
"422 560 CURVE SMOOTH",
"422 540 OFFCURVE",
"411 524 OFFCURVE",
"394 516 CURVE",
"411 508 OFFCURVE",
"422 491 OFFCURVE",
"422 471 CURVE SMOOTH",
"422 451 OFFCURVE",
"411 435 OFFCURVE",
"394 427 CURVE",
"411 419 OFFCURVE",
"422 402 OFFCURVE",
"422 382 CURVE SMOOTH",
"422 362 OFFCURVE",
"411 346 OFFCURVE",
"394 338 CURVE",
"411 330 OFFCURVE",
"422 313 OFFCURVE",
"422 293 CURVE SMOOTH",
"422 273 OFFCURVE",
"411 257 OFFCURVE",
"394 249 CURVE",
"411 241 OFFCURVE",
"422 224 OFFCURVE",
"422 204 CURVE SMOOTH",
"422 184 OFFCURVE",
"411 168 OFFCURVE",
"394 160 CURVE",
"411 152 OFFCURVE",
"422 136 OFFCURVE",
"422 116 CURVE SMOOTH",
"422 96 OFFCURVE",
"411 79 OFFCURVE",
"394 71 CURVE",
"411 63 OFFCURVE",
"422 47 OFFCURVE",
"422 27 CURVE SMOOTH",
"422 0 OFFCURVE",
"400 -22 OFFCURVE",
"373 -22 CURVE SMOOTH",
"369 -22 OFFCURVE",
"365 -22 OFFCURVE",
"361 -21 CURVE",
"357 -22 OFFCURVE",
"353 -22 OFFCURVE",
"349 -22 CURVE SMOOTH",
"322 -22 OFFCURVE",
"300 0 OFFCURVE",
"300 27 CURVE SMOOTH",
"300 47 OFFCURVE",
"312 63 OFFCURVE",
"329 71 CURVE",
"312 79 OFFCURVE",
"300 96 OFFCURVE",
"300 116 CURVE SMOOTH",
"300 136 OFFCURVE",
"312 152 OFFCURVE",
"329 160 CURVE",
"327 161 OFFCURVE",
"326 162 OFFCURVE",
"324 163 CURVE",
"317 159 OFFCURVE",
"307 156 OFFCURVE",
"298 156 CURVE SMOOTH",
"294 156 OFFCURVE",
"290 156 OFFCURVE",
"286 157 CURVE",
"282 156 OFFCURVE",
"278 156 OFFCURVE",
"274 156 CURVE SMOOTH",
"265 156 OFFCURVE",
"256 159 OFFCURVE",
"249 163 CURVE",
"242 159 OFFCURVE",
"232 156 OFFCURVE",
"223 156 CURVE SMOOTH",
"219 156 OFFCURVE",
"215 156 OFFCURVE",
"211 157 CURVE",
"207 156 OFFCURVE",
"203 156 OFFCURVE",
"199 156 CURVE SMOOTH",
"190 156 OFFCURVE",
"181 159 OFFCURVE",
"174 163 CURVE",
"167 159 OFFCURVE",
"157 156 OFFCURVE",
"148 156 CURVE SMOOTH",
"144 156 OFFCURVE",
"141 156 OFFCURVE",
"137 157 CURVE",
"151 148 OFFCURVE",
"160 133 OFFCURVE",
"160 116 CURVE SMOOTH",
"160 89 OFFCURVE",
"138 67 OFFCURVE",
"111 67 CURVE SMOOTH",
"107 67 OFFCURVE",
"103 67 OFFCURVE",
"99 68 CURVE",
"113 59 OFFCURVE",
"122 44 OFFCURVE",
"122 27 CURVE SMOOTH",
"122 0 OFFCURVE",
"100 -22 OFFCURVE",
"73 -22 CURVE SMOOTH",
"69 -22 OFFCURVE",
"65 -22 OFFCURVE",
"61 -21 CURVE",
"57 -22 OFFCURVE",
"53 -22 OFFCURVE",
"49 -22 CURVE SMOOTH",
"22 -22 OFFCURVE",
"0 0 OFFCURVE",
"0 27 CURVE SMOOTH",
"0 54 OFFCURVE",
"22 76 OFFCURVE",
"49 76 CURVE SMOOTH",
"53 76 OFFCURVE",
"56 75 OFFCURVE",
"60 74 CURVE",
"46 83 OFFCURVE",
"37 99 OFFCURVE",
"37 116 CURVE SMOOTH",
"37 143 OFFCURVE",
"59 164 OFFCURVE",
"86 164 CURVE SMOOTH",
"90 164 OFFCURVE",
"94 164 OFFCURVE",
"98 163 CURVE",
"84 172 OFFCURVE",
"75 187 OFFCURVE",
"75 204 CURVE SMOOTH",
"75 231 OFFCURVE",
"97 253 OFFCURVE",
"124 253 CURVE SMOOTH",
"128 253 OFFCURVE",
"131 253 OFFCURVE",
"135 252 CURVE",
"121 261 OFFCURVE",
"112 276 OFFCURVE",
"112 293 CURVE SMOOTH",
"112 320 OFFCURVE",
"134 342 OFFCURVE",
"161 342 CURVE SMOOTH",
"165 342 OFFCURVE",
"169 342 OFFCURVE",
"173 341 CURVE",
"159 350 OFFCURVE",
"150 365 OFFCURVE",
"150 382 CURVE SMOOTH",
"150 409 OFFCURVE",
"172 431 OFFCURVE",
"199 431 CURVE SMOOTH",
"203 431 OFFCURVE",
"206 431 OFFCURVE",
"210 430 CURVE",
"196 439 OFFCURVE",
"188 454 OFFCURVE",
"188 471 CURVE SMOOTH",
"188 498 OFFCURVE",
"209 520 OFFCURVE",
"236 520 CURVE SMOOTH",
"240 520 OFFCURVE",
"244 520 OFFCURVE",
"248 519 CURVE",
"234 528 OFFCURVE",
"225 543 OFFCURVE",
"225 560 CURVE SMOOTH",
"225 587 OFFCURVE",
"247 609 OFFCURVE",
"274 609 CURVE SMOOTH",
"278 609 OFFCURVE",
"282 608 OFFCURVE",
"286 607 CURVE",
"290 608 OFFCURVE",
"294 609 OFFCURVE",
"298 609 CURVE SMOOTH",
"307 609 OFFCURVE",
"317 606 OFFCURVE",
"324 602 CURVE",
"331 606 OFFCURVE",
"340 609 OFFCURVE",
"349 609 CURVE SMOOTH",
"353 609 OFFCURVE",
"357 608 OFFCURVE",
"361 607 CURVE",
"365 608 OFFCURVE",
"369 609 OFFCURVE",
"373 609 CURVE SMOOTH",
"400 609 OFFCURVE",
"422 587 OFFCURVE"
);
},
{
closed = 1;
nodes = (
"324 518 CURVE",
"317 514 OFFCURVE",
"307 511 OFFCURVE",
"298 511 CURVE SMOOTH",
"294 511 OFFCURVE",
"291 511 OFFCURVE",
"287 512 CURVE",
"295 507 OFFCURVE",
"301 500 OFFCURVE",
"305 492 CURVE",
"310 502 OFFCURVE",
"319 511 OFFCURVE",
"329 516 CURVE",
"327 517 OFFCURVE",
"326 517 OFFCURVE"
);
},
{
closed = 1;
nodes = (
"305 450 CURVE",
"297 434 OFFCURVE",
"280 422 OFFCURVE",
"261 422 CURVE SMOOTH",
"257 422 OFFCURVE",
"253 423 OFFCURVE",
"249 424 CURVE",
"263 415 OFFCURVE",
"272 399 OFFCURVE",
"272 382 CURVE SMOOTH",
"272 355 OFFCURVE",
"250 333 OFFCURVE",
"223 333 CURVE SMOOTH",
"219 333 OFFCURVE",
"216 334 OFFCURVE",
"212 335 CURVE",
"226 326 OFFCURVE",
"235 310 OFFCURVE",
"235 293 CURVE SMOOTH",
"235 276 OFFCURVE",
"226 261 OFFCURVE",
"212 252 CURVE",
"216 253 OFFCURVE",
"219 253 OFFCURVE",
"223 253 CURVE SMOOTH",
"232 253 OFFCURVE",
"242 250 OFFCURVE",
"249 246 CURVE",
"256 250 OFFCURVE",
"265 253 OFFCURVE",
"274 253 CURVE SMOOTH",
"278 253 OFFCURVE",
"282 253 OFFCURVE",
"286 252 CURVE",
"290 253 OFFCURVE",
"294 253 OFFCURVE",
"298 253 CURVE SMOOTH",
"307 253 OFFCURVE",
"317 250 OFFCURVE",
"324 246 CURVE",
"326 247 OFFCURVE",
"327 248 OFFCURVE",
"329 249 CURVE",
"312 257 OFFCURVE",
"300 273 OFFCURVE",
"300 293 CURVE SMOOTH",
"300 313 OFFCURVE",
"312 330 OFFCURVE",
"329 338 CURVE",
"312 346 OFFCURVE",
"300 362 OFFCURVE",
"300 382 CURVE SMOOTH",
"300 402 OFFCURVE",
"312 419 OFFCURVE",
"329 427 CURVE",
"319 432 OFFCURVE",
"310 440 OFFCURVE"
);
}
);
width = 450;
}
);
unicode = 0041;
userData = {
com.fontlab.hintData = {
hhints = (
{
position = -22;
width = 98;
},
{
position = 156;
width = 97;
},
{
position = 411;
width = 20;
},
{
position = 511;
width = 98;
}
);
vhints = (
{
position = 0;
width = 122;
},
{
position = 37;
width = 123;
},
{
position = 112;
width = 123;
},
{
position = 150;
width = 122;
},
{
position = 225;
width = 197;
},
{
position = 300;
width = 122;
}
);
};
};
},
{
glyphname = B;
lastChange = "2017-08-06 04:52:05 +0000";
layers = (
{
layerId = "1F496C02-BC74-4D01-901C-8E7FF5CB5189";
paths = (
{
closed = 1;
nodes = (
"385 560 CURVE SMOOTH",
"385 543 OFFCURVE",
"376 528 OFFCURVE",
"362 519 CURVE",
"366 520 OFFCURVE",
"369 520 OFFCURVE",
"373 520 CURVE SMOOTH",
"400 520 OFFCURVE",
"422 498 OFFCURVE",
"422 471 CURVE SMOOTH",
"422 451 OFFCURVE",
"411 435 OFFCURVE",
"394 427 CURVE",
"411 419 OFFCURVE",
"422 402 OFFCURVE",
"422 382 CURVE SMOOTH",
"422 355 OFFCURVE",
"400 333 OFFCURVE",
"373 333 CURVE SMOOTH",
"369 333 OFFCURVE",
"365 334 OFFCURVE",
"361 335 CURVE",
"357 334 OFFCURVE",
"353 333 OFFCURVE",
"349 333 CURVE SMOOTH",
"322 333 OFFCURVE",
"300 355 OFFCURVE",
"300 382 CURVE SMOOTH",
"300 402 OFFCURVE",
"312 419 OFFCURVE",
"329 427 CURVE",
"312 435 OFFCURVE",
"300 451 OFFCURVE",
"300 471 CURVE SMOOTH",
"300 488 OFFCURVE",
"309 503 OFFCURVE",
"323 512 CURVE",
"319 511 OFFCURVE",
"315 511 OFFCURVE",
"311 511 CURVE SMOOTH",
"302 511 OFFCURVE",
"293 514 OFFCURVE",
"286 518 CURVE",
"279 514 OFFCURVE",
"270 511 OFFCURVE",
"261 511 CURVE SMOOTH",
"257 511 OFFCURVE",
"253 512 OFFCURVE",
"249 513 CURVE",
"245 512 OFFCURVE",
"240 511 OFFCURVE",
"236 511 CURVE SMOOTH",
"227 511 OFFCURVE",
"218 514 OFFCURVE",
"211 518 CURVE",
"204 514 OFFCURVE",
"195 511 OFFCURVE",
"186 511 CURVE SMOOTH",
"182 511 OFFCURVE",
"178 511 OFFCURVE",
"174 512 CURVE",
"188 503 OFFCURVE",
"197 488 OFFCURVE",
"197 471 CURVE SMOOTH",
"197 451 OFFCURVE",
"186 435 OFFCURVE",
"169 427 CURVE",
"186 419 OFFCURVE",
"197 402 OFFCURVE",
"197 382 CURVE SMOOTH",
"197 355 OFFCURVE",
"175 333 OFFCURVE",
"148 333 CURVE SMOOTH",
"144 333 OFFCURVE",
"141 334 OFFCURVE",
"137 335 CURVE",
"145 330 OFFCURVE",
"151 323 OFFCURVE",
"155 315 CURVE",
"163 331 OFFCURVE",
"180 342 OFFCURVE",
"199 342 CURVE SMOOTH",
"203 342 OFFCURVE",
"207 342 OFFCURVE",
"211 341 CURVE",
"215 342 OFFCURVE",
"219 342 OFFCURVE",
"223 342 CURVE SMOOTH",
"232 342 OFFCURVE",
"242 339 OFFCURVE",
"249 335 CURVE",
"256 339 OFFCURVE",
"265 342 OFFCURVE",
"274 342 CURVE SMOOTH",
"278 342 OFFCURVE",
"282 342 OFFCURVE",
"286 341 CURVE",
"290 342 OFFCURVE",
"294 342 OFFCURVE",
"298 342 CURVE SMOOTH",
"325 342 OFFCURVE",
"347 320 OFFCURVE",
"347 293 CURVE SMOOTH",
"347 276 OFFCURVE",
"338 261 OFFCURVE",
"324 252 CURVE",
"328 253 OFFCURVE",
"332 253 OFFCURVE",
"336 253 CURVE SMOOTH",
"363 253 OFFCURVE",
"385 231 OFFCURVE",
"385 204 CURVE SMOOTH",
"385 184 OFFCURVE",
"373 168 OFFCURVE",
"356 160 CURVE",
"373 152 OFFCURVE",
"385 136 OFFCURVE",
"385 116 CURVE SMOOTH",
"385 89 OFFCURVE",
"363 67 OFFCURVE",
"336 67 CURVE SMOOTH",
"332 67 OFFCURVE",
"328 67 OFFCURVE",
"324 68 CURVE",
"338 59 OFFCURVE",
"347 44 OFFCURVE",
"347 27 CURVE SMOOTH",
"347 0 OFFCURVE",
"325 -22 OFFCURVE",
"298 -22 CURVE SMOOTH",
"294 -22 OFFCURVE",
"290 -22 OFFCURVE",
"286 -21 CURVE",
"282 -22 OFFCURVE",
"278 -22 OFFCURVE",
"274 -22 CURVE SMOOTH",
"265 -22 OFFCURVE",
"256 -19 OFFCURVE",
"249 -15 CURVE",
"242 -19 OFFCURVE",
"232 -22 OFFCURVE",
"223 -22 CURVE SMOOTH",
"219 -22 OFFCURVE",
"215 -22 OFFCURVE",
"211 -21 CURVE",
"207 -22 OFFCURVE",
"203 -22 OFFCURVE",
"199 -22 CURVE SMOOTH",
"190 -22 OFFCURVE",
"181 -19 OFFCURVE",
"174 -15 CURVE",
"167 -19 OFFCURVE",
"157 -22 OFFCURVE",
"148 -22 CURVE SMOOTH",
"144 -22 OFFCURVE",
"140 -22 OFFCURVE",
"136 -21 CURVE",
"132 -22 OFFCURVE",
"128 -22 OFFCURVE",
"124 -22 CURVE SMOOTH",
"115 -22 OFFCURVE",
"106 -19 OFFCURVE",
"99 -15 CURVE",
"92 -19 OFFCURVE",
"82 -22 OFFCURVE",
"73 -22 CURVE SMOOTH",
"69 -22 OFFCURVE",
"65 -22 OFFCURVE",
"61 -21 CURVE",
"57 -22 OFFCURVE",
"53 -22 OFFCURVE",
"49 -22 CURVE SMOOTH",
"22 -22 OFFCURVE",
"0 0 OFFCURVE",
"0 27 CURVE SMOOTH",
"0 47 OFFCURVE",
"12 63 OFFCURVE",
"29 71 CURVE",
"12 79 OFFCURVE",
"0 96 OFFCURVE",
"0 116 CURVE SMOOTH",
"0 143 OFFCURVE",
"22 164 OFFCURVE",
"49 164 CURVE SMOOTH",
"53 164 OFFCURVE",
"56 164 OFFCURVE",
"60 163 CURVE",
"46 172 OFFCURVE",
"37 187 OFFCURVE",
"37 204 CURVE SMOOTH",
"37 224 OFFCURVE",
"49 241 OFFCURVE",
"66 249 CURVE",
"49 257 OFFCURVE",
"37 273 OFFCURVE",
"37 293 CURVE SMOOTH",
"37 320 OFFCURVE",
"59 342 OFFCURVE",
"86 342 CURVE SMOOTH",
"90 342 OFFCURVE",
"94 342 OFFCURVE",
"98 341 CURVE",
"84 350 OFFCURVE",
"75 365 OFFCURVE",
"75 382 CURVE SMOOTH",
"75 402 OFFCURVE",
"87 419 OFFCURVE",
"104 427 CURVE",
"87 435 OFFCURVE",
"75 451 OFFCURVE",
"75 471 CURVE SMOOTH",
"75 488 OFFCURVE",
"84 503 OFFCURVE",
"98 512 CURVE",
"94 511 OFFCURVE",
"90 511 OFFCURVE",
"86 511 CURVE SMOOTH",
"59 511 OFFCURVE",
"37 533 OFFCURVE",
"37 560 CURVE SMOOTH",
"37 587 OFFCURVE",
"59 609 OFFCURVE",
"86 609 CURVE SMOOTH",
"90 609 OFFCURVE",
"95 608 OFFCURVE",
"99 607 CURVE",
"103 608 OFFCURVE",
"107 609 OFFCURVE",
"111 609 CURVE SMOOTH",
"120 609 OFFCURVE",
"129 606 OFFCURVE",
"136 602 CURVE",
"143 606 OFFCURVE",
"152 609 OFFCURVE",
"161 609 CURVE SMOOTH",
"165 609 OFFCURVE",
"170 608 OFFCURVE",
"174 607 CURVE",
"178 608 OFFCURVE",
"182 609 OFFCURVE",
"186 609 CURVE SMOOTH",
"195 609 OFFCURVE",
"204 606 OFFCURVE",
"211 602 CURVE",
"218 606 OFFCURVE",
"227 609 OFFCURVE",
"236 609 CURVE SMOOTH",
"240 609 OFFCURVE",
"245 608 OFFCURVE",
"249 607 CURVE",
"253 608 OFFCURVE",
"257 609 OFFCURVE",
"261 609 CURVE SMOOTH",
"270 609 OFFCURVE",
"279 606 OFFCURVE",
"286 602 CURVE",
"293 606 OFFCURVE",
"302 609 OFFCURVE",
"311 609 CURVE SMOOTH",
"315 609 OFFCURVE",
"320 608 OFFCURVE",
"324 607 CURVE",
"328 608 OFFCURVE",
"332 609 OFFCURVE",
"336 609 CURVE SMOOTH",
"363 609 OFFCURVE",
"385 587 OFFCURVE"
);
},
{
closed = 1;
nodes = (
"155 272 CURVE",
"150 262 OFFCURVE",
"141 254 OFFCURVE",
"131 249 CURVE",
"148 241 OFFCURVE",
"160 224 OFFCURVE",
"160 204 CURVE SMOOTH",
"160 177 OFFCURVE",
"138 156 OFFCURVE",
"111 156 CURVE SMOOTH",
"107 156 OFFCURVE",
"103 156 OFFCURVE",
"99 157 CURVE",
"113 148 OFFCURVE",
"122 133 OFFCURVE",
"122 116 CURVE SMOOTH",
"122 96 OFFCURVE",
"111 79 OFFCURVE",
"94 71 CURVE",
"96 70 OFFCURVE",
"97 70 OFFCURVE",
"99 69 CURVE",
"106 73 OFFCURVE",
"115 76 OFFCURVE",
"124 76 CURVE SMOOTH",
"128 76 OFFCURVE",
"132 75 OFFCURVE",
"136 74 CURVE",
"140 75 OFFCURVE",
"144 76 OFFCURVE",
"148 76 CURVE SMOOTH",
"157 76 OFFCURVE",
"167 73 OFFCURVE",
"174 69 CURVE",
"181 73 OFFCURVE",
"190 76 OFFCURVE",
"199 76 CURVE SMOOTH",
"203 76 OFFCURVE",
"207 75 OFFCURVE",
"211 74 CURVE",
"215 75 OFFCURVE",
"219 76 OFFCURVE",
"223 76 CURVE SMOOTH",
"232 76 OFFCURVE",
"242 73 OFFCURVE",
"249 69 CURVE",
"256 73 OFFCURVE",
"265 76 OFFCURVE",
"274 76 CURVE SMOOTH",
"278 76 OFFCURVE",
"281 75 OFFCURVE",
"285 74 CURVE",
"271 83 OFFCURVE",
"262 99 OFFCURVE",
"262 116 CURVE SMOOTH",
"262 136 OFFCURVE",
"274 152 OFFCURVE",
"291 160 CURVE",
"274 168 OFFCURVE",
"262 184 OFFCURVE",
"262 204 CURVE SMOOTH",
"262 221 OFFCURVE",
"271 237 OFFCURVE",
"285 246 CURVE",
"281 245 OFFCURVE",
"278 244 OFFCURVE",
"274 244 CURVE SMOOTH",
"265 244 OFFCURVE",
"256 247 OFFCURVE",
"249 251 CURVE",
"242 247 OFFCURVE",
"232 244 OFFCURVE",
"223 244 CURVE SMOOTH",
"219 244 OFFCURVE",
"215 245 OFFCURVE",
"211 246 CURVE",
"207 245 OFFCURVE",
"203 244 OFFCURVE",
"199 244 CURVE SMOOTH",
"180 244 OFFCURVE",
"163 256 OFFCURVE"
);
}
);
width = 450;
}
);
unicode = 0042;
userData = {
com.fontlab.hintData = {
hhints = (
{
position = -22;
width = 98;
},
{
position = 244;
width = 98;
},
{
position = 511;
width = 98;
}
);
vhints = (
{
position = 0;
width = 122;
},
{
position = 37;
width = 123;
},
{
position = 75;
width = 122;
},
{
position = 262;
width = 123;
},
{
position = 300;
width = 122;
}
);
};
};
},
{
glyphname = C;
lastChange = "2017-08-06 04:52:05 +0000";
layers = (
{
layerId = "1F496C02-BC74-4D01-901C-8E7FF5CB5189";
paths = (
{
closed = 1;
nodes = (
"385 560 CURVE SMOOTH",
"385 543 OFFCURVE",
"376 528 OFFCURVE",
"362 519 CURVE",
"366 520 OFFCURVE",
"369 520 OFFCURVE",
"373 520 CURVE SMOOTH",
"400 520 OFFCURVE",
"422 498 OFFCURVE",
"422 471 CURVE SMOOTH",
"422 444 OFFCURVE",
"400 422 OFFCURVE",
"373 422 CURVE SMOOTH",
"369 422 OFFCURVE",
"365 423 OFFCURVE",
"361 424 CURVE",
"357 423 OFFCURVE",
"353 422 OFFCURVE",
"349 422 CURVE SMOOTH",
"322 422 OFFCURVE",
"300 444 OFFCURVE",
"300 471 CURVE SMOOTH",
"300 488 OFFCURVE",
"309 503 OFFCURVE",
"323 512 CURVE",
"319 511 OFFCURVE",
"315 511 OFFCURVE",
"311 511 CURVE SMOOTH",
"302 511 OFFCURVE",
"293 514 OFFCURVE",
"286 518 CURVE",
"279 514 OFFCURVE",
"270 511 OFFCURVE",
"261 511 CURVE SMOOTH",
"257 511 OFFCURVE",
"253 512 OFFCURVE",
"249 513 CURVE",
"245 512 OFFCURVE",
"240 511 OFFCURVE",
"236 511 CURVE SMOOTH",
"227 511 OFFCURVE",
"218 514 OFFCURVE",
"211 518 CURVE",
"204 514 OFFCURVE",
"195 511 OFFCURVE",
"186 511 CURVE SMOOTH",
"182 511 OFFCURVE",
"178 511 OFFCURVE",
"174 512 CURVE",
"188 503 OFFCURVE",
"197 488 OFFCURVE",
"197 471 CURVE SMOOTH",
"197 444 OFFCURVE",
"175 422 OFFCURVE",
"148 422 CURVE SMOOTH",
"144 422 OFFCURVE",
"141 423 OFFCURVE",
"137 424 CURVE",
"151 415 OFFCURVE",
"160 399 OFFCURVE",
"160 382 CURVE SMOOTH",
"160 355 OFFCURVE",
"138 333 OFFCURVE",
"111 333 CURVE SMOOTH",
"107 333 OFFCURVE",
"103 334 OFFCURVE",
"99 335 CURVE",
"113 326 OFFCURVE",
"122 310 OFFCURVE",
"122 293 CURVE SMOOTH",
"122 273 OFFCURVE",
"111 257 OFFCURVE",
"94 249 CURVE",
"111 241 OFFCURVE",
"122 224 OFFCURVE",
"122 204 CURVE SMOOTH",
"122 184 OFFCURVE",
"111 168 OFFCURVE",
"94 160 CURVE",
"111 152 OFFCURVE",
"122 136 OFFCURVE",
"122 116 CURVE SMOOTH",
"122 99 OFFCURVE",
"113 83 OFFCURVE",
"99 74 CURVE",
"103 75 OFFCURVE",
"107 76 OFFCURVE",
"111 76 CURVE SMOOTH",
"120 76 OFFCURVE",
"129 73 OFFCURVE",
"136 69 CURVE",
"143 73 OFFCURVE",
"152 76 OFFCURVE",
"161 76 CURVE SMOOTH",
"165 76 OFFCURVE",
"170 75 OFFCURVE",
"174 74 CURVE",
"178 75 OFFCURVE",
"182 76 OFFCURVE",
"186 76 CURVE SMOOTH",
"195 76 OFFCURVE",
"204 73 OFFCURVE",
"211 69 CURVE",
"218 73 OFFCURVE",
"227 76 OFFCURVE",
"236 76 CURVE SMOOTH",
"240 76 OFFCURVE",
"245 75 OFFCURVE",
"249 74 CURVE",
"253 75 OFFCURVE",
"257 76 OFFCURVE",
"261 76 CURVE SMOOTH",
"288 76 OFFCURVE",
"310 54 OFFCURVE",
"310 27 CURVE SMOOTH",
"310 0 OFFCURVE",
"288 -22 OFFCURVE",
"261 -22 CURVE SMOOTH",
"257 -22 OFFCURVE",
"253 -22 OFFCURVE",
"249 -21 CURVE",
"245 -22 OFFCURVE",
"240 -22 OFFCURVE",
"236 -22 CURVE SMOOTH",
"227 -22 OFFCURVE",
"218 -19 OFFCURVE",
"211 -15 CURVE",
"204 -19 OFFCURVE",
"195 -22 OFFCURVE",
"186 -22 CURVE SMOOTH",
"182 -22 OFFCURVE",
"178 -22 OFFCURVE",
"174 -21 CURVE",
"170 -22 OFFCURVE",
"165 -22 OFFCURVE",
"161 -22 CURVE SMOOTH",
"152 -22 OFFCURVE",
"143 -19 OFFCURVE",
"136 -15 CURVE",
"129 -19 OFFCURVE",
"120 -22 OFFCURVE",
"111 -22 CURVE SMOOTH",
"107 -22 OFFCURVE",
"103 -22 OFFCURVE",
"99 -21 CURVE",
"95 -22 OFFCURVE",
"90 -22 OFFCURVE",
"86 -22 CURVE SMOOTH",
"59 -22 OFFCURVE",
"37 0 OFFCURVE",
"37 27 CURVE SMOOTH",
"37 44 OFFCURVE",
"46 59 OFFCURVE",
"60 68 CURVE",
"56 67 OFFCURVE",
"53 67 OFFCURVE",
"49 67 CURVE SMOOTH",
"22 67 OFFCURVE",
"0 89 OFFCURVE",
"0 116 CURVE SMOOTH",
"0 136 OFFCURVE",
"12 152 OFFCURVE",
"29 160 CURVE",
"12 168 OFFCURVE",
"0 184 OFFCURVE",
"0 204 CURVE SMOOTH",
"0 224 OFFCURVE",
"12 241 OFFCURVE",
"29 249 CURVE",
"12 257 OFFCURVE",
"0 273 OFFCURVE",
"0 293 CURVE SMOOTH",
"0 320 OFFCURVE",
"22 342 OFFCURVE",
"49 342 CURVE SMOOTH",
"53 342 OFFCURVE",
"56 342 OFFCURVE",
"60 341 CURVE",
"46 350 OFFCURVE",
"37 365 OFFCURVE",
"37 382 CURVE SMOOTH",
"37 409 OFFCURVE",
"59 431 OFFCURVE",
"86 431 CURVE SMOOTH",
"90 431 OFFCURVE",
"94 431 OFFCURVE",
"98 430 CURVE",
"84 439 OFFCURVE",
"75 454 OFFCURVE",
"75 471 CURVE SMOOTH",
"75 498 OFFCURVE",
"97 520 OFFCURVE",
"124 520 CURVE SMOOTH",
"128 520 OFFCURVE",
"131 520 OFFCURVE",
"135 519 CURVE",
"121 528 OFFCURVE",
"112 543 OFFCURVE",
"112 560 CURVE SMOOTH",
"112 587 OFFCURVE",
"134 609 OFFCURVE",
"161 609 CURVE SMOOTH",
"165 609 OFFCURVE",
"170 608 OFFCURVE",
"174 607 CURVE",
"178 608 OFFCURVE",
"182 609 OFFCURVE",
"186 609 CURVE SMOOTH",
"195 609 OFFCURVE",
"204 606 OFFCURVE",
"211 602 CURVE",
"218 606 OFFCURVE",
"227 609 OFFCURVE",
"236 609 CURVE SMOOTH",
"240 609 OFFCURVE",
"245 608 OFFCURVE",
"249 607 CURVE",
"253 608 OFFCURVE",
"257 609 OFFCURVE",
"261 609 CURVE SMOOTH",
"270 609 OFFCURVE",
"279 606 OFFCURVE",
"286 602 CURVE",
"293 606 OFFCURVE",
"302 609 OFFCURVE",
"311 609 CURVE SMOOTH",
"315 609 OFFCURVE",
"320 608 OFFCURVE",
"324 607 CURVE",
"328 608 OFFCURVE",
"332 609 OFFCURVE",
"336 609 CURVE SMOOTH",
"363 609 OFFCURVE",
"385 587 OFFCURVE"
);
},
{
closed = 1;
nodes = (
"385 116 CURVE SMOOTH",
"385 89 OFFCURVE",
"363 67 OFFCURVE",
"336 67 CURVE SMOOTH",
"332 67 OFFCURVE",
"328 67 OFFCURVE",
"324 68 CURVE",
"320 67 OFFCURVE",
"315 67 OFFCURVE",
"311 67 CURVE SMOOTH",
"284 67 OFFCURVE",
"262 89 OFFCURVE",
"262 116 CURVE SMOOTH",
"262 143 OFFCURVE",
"284 164 OFFCURVE",
"311 164 CURVE SMOOTH",
"315 164 OFFCURVE",
"320 164 OFFCURVE",
"324 163 CURVE",
"328 164 OFFCURVE",
"332 164 OFFCURVE",
"336 164 CURVE SMOOTH",
"363 164 OFFCURVE",
"385 143 OFFCURVE"
);
}
);
width = 450;
}
);
unicode = 0043;
userData = {
com.fontlab.hintData = {
hhints = (
{
position = -22;
width = 98;
},
{
position = 67;
width = 97;
},
{
position = 411;
width = 20;
},
{
position = 422;
width = 98;
},
{
position = 511;
width = 98;
}
);
vhints = (
{
position = 0;
width = 122;
},
{
position = 37;
width = 273;
},
{
position = 37;
width = 123;
},
{
position = 75;
width = 122;
},
{
position = 112;
width = 273;
},
{
position = 262;
width = 123;
},
{
position = 300;
width = 122;
}
);
};
};
},
{
glyphname = D;
lastChange = "2017-08-06 04:52:05 +0000";
layers = (
{
layerId = "1F496C02-BC74-4D01-901C-8E7FF5CB5189";
paths = (
{
closed = 1;
nodes = (
"385 560 CURVE SMOOTH",
"385 543 OFFCURVE",
"376 528 OFFCURVE",
"362 519 CURVE",
"366 520 OFFCURVE",
"369 520 OFFCURVE",
"373 520 CURVE SMOOTH",
"400 520 OFFCURVE",
"422 498 OFFCURVE",
"422 471 CURVE SMOOTH",
"422 451 OFFCURVE",
"411 435 OFFCURVE",
"394 427 CURVE",
"411 419 OFFCURVE",
"422 402 OFFCURVE",
"422 382 CURVE SMOOTH",
"422 362 OFFCURVE",
"411 346 OFFCURVE",
"394 338 CURVE",
"411 330 OFFCURVE",
"422 313 OFFCURVE",
"422 293 CURVE SMOOTH",
"422 266 OFFCURVE",
"400 244 OFFCURVE",
"373 244 CURVE SMOOTH",
"369 244 OFFCURVE",
"366 245 OFFCURVE",
"362 246 CURVE",
"376 237 OFFCURVE",
"385 221 OFFCURVE",
"385 204 CURVE SMOOTH",
"385 177 OFFCURVE",
"363 156 OFFCURVE",
"336 156 CURVE SMOOTH",
"332 156 OFFCURVE",
"328 156 OFFCURVE",
"324 157 CURVE",
"338 148 OFFCURVE",
"347 133 OFFCURVE",
"347 116 CURVE SMOOTH",
"347 89 OFFCURVE",
"325 67 OFFCURVE",
"298 67 CURVE SMOOTH",
"294 67 OFFCURVE",
"290 67 OFFCURVE",
"286 68 CURVE",
"282 67 OFFCURVE",
"278 67 OFFCURVE",
"274 67 CURVE SMOOTH",
"247 67 OFFCURVE",
"225 89 OFFCURVE",
"225 116 CURVE SMOOTH",
"225 143 OFFCURVE",
"247 164 OFFCURVE",
"274 164 CURVE SMOOTH",
"278 164 OFFCURVE",
"281 164 OFFCURVE",
"285 163 CURVE",
"271 172 OFFCURVE",
"262 187 OFFCURVE",
"262 204 CURVE SMOOTH",
"262 231 OFFCURVE",
"284 253 OFFCURVE",
"311 253 CURVE SMOOTH",
"315 253 OFFCURVE",
"319 253 OFFCURVE",
"323 252 CURVE",
"309 261 OFFCURVE",
"300 276 OFFCURVE",
"300 293 CURVE SMOOTH",
"300 313 OFFCURVE",
"312 330 OFFCURVE",
"329 338 CURVE",
"312 346 OFFCURVE",
"300 362 OFFCURVE",
"300 382 CURVE SMOOTH",
"300 402 OFFCURVE",
"312 419 OFFCURVE",
"329 427 CURVE",
"312 435 OFFCURVE",
"300 451 OFFCURVE",
"300 471 CURVE SMOOTH",
"300 488 OFFCURVE",
"309 503 OFFCURVE",
"323 512 CURVE",
"319 511 OFFCURVE",
"315 511 OFFCURVE",
"311 511 CURVE SMOOTH",
"302 511 OFFCURVE",
"293 514 OFFCURVE",
"286 518 CURVE",
"279 514 OFFCURVE",
"270 511 OFFCURVE",
"261 511 CURVE SMOOTH",
"257 511 OFFCURVE",
"253 512 OFFCURVE",
"249 513 CURVE",
"245 512 OFFCURVE",
"240 511 OFFCURVE",
"236 511 CURVE SMOOTH",
"227 511 OFFCURVE",
"218 514 OFFCURVE",
"211 518 CURVE",
"204 514 OFFCURVE",
"195 511 OFFCURVE",
"186 511 CURVE SMOOTH",
"182 511 OFFCURVE",
"178 511 OFFCURVE",
"174 512 CURVE",
"188 503 OFFCURVE",
"197 488 OFFCURVE",
"197 471 CURVE SMOOTH",
"197 451 OFFCURVE",
"186 435 OFFCURVE",
"169 427 CURVE",
"186 419 OFFCURVE",
"197 402 OFFCURVE",
"197 382 CURVE SMOOTH",
"197 355 OFFCURVE",
"175 333 OFFCURVE",
"148 333 CURVE SMOOTH",
"144 333 OFFCURVE",
"141 334 OFFCURVE",
"137 335 CURVE",
"151 326 OFFCURVE",
"160 310 OFFCURVE",
"160 293 CURVE SMOOTH",
"160 273 OFFCURVE",
"148 257 OFFCURVE",
"131 249 CURVE",
"148 241 OFFCURVE",
"160 224 OFFCURVE",
"160 204 CURVE SMOOTH",
"160 177 OFFCURVE",
"138 156 OFFCURVE",
"111 156 CURVE SMOOTH",
"107 156 OFFCURVE",
"103 156 OFFCURVE",
"99 157 CURVE",
"113 148 OFFCURVE",
"122 133 OFFCURVE",
"122 116 CURVE SMOOTH",
"122 96 OFFCURVE",
"111 79 OFFCURVE",
"94 71 CURVE",
"96 70 OFFCURVE",
"97 70 OFFCURVE",
"99 69 CURVE",
"106 73 OFFCURVE",
"115 76 OFFCURVE",
"124 76 CURVE SMOOTH",
"128 76 OFFCURVE",
"132 75 OFFCURVE",
"136 74 CURVE",
"140 75 OFFCURVE",
"144 76 OFFCURVE",
"148 76 CURVE SMOOTH",
"157 76 OFFCURVE",
"167 73 OFFCURVE",
"174 69 CURVE",
"181 73 OFFCURVE",
"190 76 OFFCURVE",
"199 76 CURVE SMOOTH",
"203 76 OFFCURVE",
"207 75 OFFCURVE",
"211 74 CURVE",
"215 75 OFFCURVE",
"219 76 OFFCURVE",
"223 76 CURVE SMOOTH",
"250 76 OFFCURVE",
"272 54 OFFCURVE",
"272 27 CURVE SMOOTH",
"272 0 OFFCURVE",
"250 -22 OFFCURVE",
"223 -22 CURVE SMOOTH",
"219 -22 OFFCURVE",
"215 -22 OFFCURVE",
"211 -21 CURVE",
"207 -22 OFFCURVE",
"203 -22 OFFCURVE",
"199 -22 CURVE SMOOTH",
"190 -22 OFFCURVE",
"181 -19 OFFCURVE",
"174 -15 CURVE",
"167 -19 OFFCURVE",
"157 -22 OFFCURVE",
"148 -22 CURVE SMOOTH",
"144 -22 OFFCURVE",
"140 -22 OFFCURVE",
"136 -21 CURVE",
"132 -22 OFFCURVE",
"128 -22 OFFCURVE",
"124 -22 CURVE SMOOTH",
"115 -22 OFFCURVE",
"106 -19 OFFCURVE",
"99 -15 CURVE",
"92 -19 OFFCURVE",
"82 -22 OFFCURVE",
"73 -22 CURVE SMOOTH",
"69 -22 OFFCURVE",
"65 -22 OFFCURVE",
"61 -21 CURVE",
"57 -22 OFFCURVE",
"53 -22 OFFCURVE",
"49 -22 CURVE SMOOTH",
"22 -22 OFFCURVE",
"0 0 OFFCURVE",
"0 27 CURVE SMOOTH",
"0 47 OFFCURVE",
"12 63 OFFCURVE",
"29 71 CURVE",
"12 79 OFFCURVE",
"0 96 OFFCURVE",
"0 116 CURVE SMOOTH",
"0 143 OFFCURVE",
"22 164 OFFCURVE",
"49 164 CURVE SMOOTH",
"53 164 OFFCURVE",
"56 164 OFFCURVE",
"60 163 CURVE",
"46 172 OFFCURVE",
"37 187 OFFCURVE",
"37 204 CURVE SMOOTH",
"37 224 OFFCURVE",
"49 241 OFFCURVE",
"66 249 CURVE",
"49 257 OFFCURVE",
"37 273 OFFCURVE",
"37 293 CURVE SMOOTH",
"37 320 OFFCURVE",
"59 342 OFFCURVE",
"86 342 CURVE SMOOTH",
"90 342 OFFCURVE",
"94 342 OFFCURVE",
"98 341 CURVE",
"84 350 OFFCURVE",
"75 365 OFFCURVE",
"75 382 CURVE SMOOTH",
"75 402 OFFCURVE",
"87 419 OFFCURVE",
"104 427 CURVE",
"87 435 OFFCURVE",
"75 451 OFFCURVE",
"75 471 CURVE SMOOTH",
"75 488 OFFCURVE",
"84 503 OFFCURVE",
"98 512 CURVE",
"94 511 OFFCURVE",
"90 511 OFFCURVE",
"86 511 CURVE SMOOTH",
"59 511 OFFCURVE",
"37 533 OFFCURVE",
"37 560 CURVE SMOOTH",
"37 587 OFFCURVE",
"59 609 OFFCURVE",
"86 609 CURVE SMOOTH",
"90 609 OFFCURVE",
"95 608 OFFCURVE",
"99 607 CURVE",
"103 608 OFFCURVE",
"107 609 OFFCURVE",
"111 609 CURVE SMOOTH",
"120 609 OFFCURVE",
"129 606 OFFCURVE",
"136 602 CURVE",
"143 606 OFFCURVE",
"152 609 OFFCURVE",
"161 609 CURVE SMOOTH",
"165 609 OFFCURVE",
"170 608 OFFCURVE",
"174 607 CURVE",
"178 608 OFFCURVE",
"182 609 OFFCURVE",
"186 609 CURVE SMOOTH",
"195 609 OFFCURVE",
"204 606 OFFCURVE",
"211 602 CURVE",
"218 606 OFFCURVE",
"227 609 OFFCURVE",
"236 609 CURVE SMOOTH",
"240 609 OFFCURVE",
"245 608 OFFCURVE",
"249 607 CURVE",
"253 608 OFFCURVE",
"257 609 OFFCURVE",
"261 609 CURVE SMOOTH",
"270 609 OFFCURVE",
"279 606 OFFCURVE",
"286 602 CURVE",
"293 606 OFFCURVE",
"302 609 OFFCURVE",
"311 609 CURVE SMOOTH",
"315 609 OFFCURVE",
"320 608 OFFCURVE",
"324 607 CURVE",
"328 608 OFFCURVE",
"332 609 OFFCURVE",
"336 609 CURVE SMOOTH",
"363 609 OFFCURVE",
"385 587 OFFCURVE"
);
}
);
width = 450;
}
);
unicode = 0044;
userData = {
com.fontlab.hintData = {
hhints = (
{
position = -22;
width = 98;
},
{
position = 67;
width = 97;
},
{
position = 511;
width = 98;
}
);
vhints = (
{
position = 0;
width = 272;
},
{
position = 0;
width = 122;
},
{
position = 37;
width = 123;
},
{
position = 75;
width = 122;
},
{
position = 225;
width = 122;
},
{
position = 262;
width = 123;
},
{
position = 300;
width = 122;
}
);
};
};
},
{
glyphname = E;
lastChange = "2017-08-06 04:52:05 +0000";
layers = (
{
layerId = "1F496C02-BC74-4D01-901C-8E7FF5CB5189";
paths = (
{
closed = 1;
nodes = (
"422 560 CURVE SMOOTH",
"422 533 OFFCURVE",
"400 511 OFFCURVE",
"373 511 CURVE SMOOTH",
"369 511 OFFCURVE",
"365 512 OFFCURVE",
"361 513 CURVE",
"357 512 OFFCURVE",
"353 511 OFFCURVE",
"349 511 CURVE SMOOTH",
"340 511 OFFCURVE",
"331 514 OFFCURVE",
"324 518 CURVE",
"317 514 OFFCURVE",
"307 511 OFFCURVE",
"298 511 CURVE SMOOTH",
"294 511 OFFCURVE",
"290 512 OFFCURVE",
"286 513 CURVE",
"282 512 OFFCURVE",
"278 511 OFFCURVE",
"274 511 CURVE SMOOTH",
"265 511 OFFCURVE",
"256 514 OFFCURVE",
"249 518 CURVE",
"242 514 OFFCURVE",
"232 511 OFFCURVE",
"223 511 CURVE SMOOTH",
"219 511 OFFCURVE",
"215 512 OFFCURVE",
"211 513 CURVE",
"207 512 OFFCURVE",
"203 511 OFFCURVE",
"199 511 CURVE SMOOTH",
"190 511 OFFCURVE",
"181 514 OFFCURVE",
"174 518 CURVE",
"172 517 OFFCURVE",
"171 517 OFFCURVE",
"169 516 CURVE",
"186 508 OFFCURVE",
"197 491 OFFCURVE",
"197 471 CURVE SMOOTH",
"197 444 OFFCURVE",
"175 422 OFFCURVE",
"148 422 CURVE SMOOTH",
"144 422 OFFCURVE",
"141 423 OFFCURVE",
"137 424 CURVE",
"151 415 OFFCURVE",
"160 399 OFFCURVE",
"160 382 CURVE SMOOTH",
"160 362 OFFCURVE",
"148 346 OFFCURVE",
"131 338 CURVE",
"133 337 OFFCURVE",
"134 336 OFFCURVE",
"136 335 CURVE",
"143 339 OFFCURVE",
"152 342 OFFCURVE",
"161 342 CURVE SMOOTH",
"165 342 OFFCURVE",
"170 342 OFFCURVE",
"174 341 CURVE",
"178 342 OFFCURVE",
"182 342 OFFCURVE",
"186 342 CURVE SMOOTH",
"195 342 OFFCURVE",
"204 339 OFFCURVE",
"211 335 CURVE",
"218 339 OFFCURVE",
"227 342 OFFCURVE",
"236 342 CURVE SMOOTH",
"240 342 OFFCURVE",
"245 342 OFFCURVE",
"249 341 CURVE",
"253 342 OFFCURVE",
"257 342 OFFCURVE",
"261 342 CURVE SMOOTH",
"288 342 OFFCURVE",
"310 320 OFFCURVE",
"310 293 CURVE SMOOTH",
"310 266 OFFCURVE",
"288 244 OFFCURVE",
"261 244 CURVE SMOOTH",
"257 244 OFFCURVE",
"253 245 OFFCURVE",
"249 246 CURVE",
"245 245 OFFCURVE",
"240 244 OFFCURVE",
"236 244 CURVE SMOOTH",
"227 244 OFFCURVE",
"218 247 OFFCURVE",
"211 251 CURVE",
"204 247 OFFCURVE",
"195 244 OFFCURVE",
"186 244 CURVE SMOOTH",
"182 244 OFFCURVE",
"178 245 OFFCURVE",
"174 246 CURVE",
"170 245 OFFCURVE",
"165 244 OFFCURVE",
"161 244 CURVE SMOOTH",
"152 244 OFFCURVE",
"143 247 OFFCURVE",
"136 251 CURVE",
"134 250 OFFCURVE",
"133 250 OFFCURVE",
"131 249 CURVE",
"148 241 OFFCURVE",
"160 224 OFFCURVE",
"160 204 CURVE SMOOTH",
"160 177 OFFCURVE",
"138 156 OFFCURVE",
"111 156 CURVE SMOOTH",
"107 156 OFFCURVE",
"103 156 OFFCURVE",
"99 157 CURVE",
"113 148 OFFCURVE",
"122 133 OFFCURVE",
"122 116 CURVE SMOOTH",
"122 96 OFFCURVE",
"111 79 OFFCURVE",
"94 71 CURVE",
"96 70 OFFCURVE",
"97 70 OFFCURVE",
"99 69 CURVE",
"106 73 OFFCURVE",
"115 76 OFFCURVE",
"124 76 CURVE SMOOTH",
"128 76 OFFCURVE",
"132 75 OFFCURVE",
"136 74 CURVE",
"140 75 OFFCURVE",
"144 76 OFFCURVE",
"148 76 CURVE SMOOTH",
"157 76 OFFCURVE",
"167 73 OFFCURVE",
"174 69 CURVE",
"181 73 OFFCURVE",
"190 76 OFFCURVE",
"199 76 CURVE SMOOTH",
"203 76 OFFCURVE",
"207 75 OFFCURVE",
"211 74 CURVE",
"215 75 OFFCURVE",
"219 76 OFFCURVE",
"223 76 CURVE SMOOTH",
"232 76 OFFCURVE",
"242 73 OFFCURVE",
"249 69 CURVE",
"256 73 OFFCURVE",
"265 76 OFFCURVE",
"274 76 CURVE SMOOTH",
"278 76 OFFCURVE",
"282 75 OFFCURVE",
"286 74 CURVE",
"290 75 OFFCURVE",
"294 76 OFFCURVE",
"298 76 CURVE SMOOTH",
"325 76 OFFCURVE",
"347 54 OFFCURVE",
"347 27 CURVE SMOOTH",
"347 0 OFFCURVE",
"325 -22 OFFCURVE",
"298 -22 CURVE SMOOTH",
"294 -22 OFFCURVE",
"290 -22 OFFCURVE",
"286 -21 CURVE",
"282 -22 OFFCURVE",
"278 -22 OFFCURVE",
"274 -22 CURVE SMOOTH",
"265 -22 OFFCURVE",
"256 -19 OFFCURVE",
"249 -15 CURVE",
"242 -19 OFFCURVE",
"232 -22 OFFCURVE",
"223 -22 CURVE SMOOTH",
"219 -22 OFFCURVE",
"215 -22 OFFCURVE",
"211 -21 CURVE",
"207 -22 OFFCURVE",
"203 -22 OFFCURVE",
"199 -22 CURVE SMOOTH",
"190 -22 OFFCURVE",
"181 -19 OFFCURVE",
"174 -15 CURVE",
"167 -19 OFFCURVE",
"157 -22 OFFCURVE",
"148 -22 CURVE SMOOTH",
"144 -22 OFFCURVE",
"140 -22 OFFCURVE",
"136 -21 CURVE",
"132 -22 OFFCURVE",
"128 -22 OFFCURVE",
"124 -22 CURVE SMOOTH",
"115 -22 OFFCURVE",
"106 -19 OFFCURVE",
"99 -15 CURVE",
"92 -19 OFFCURVE",
"82 -22 OFFCURVE",
"73 -22 CURVE SMOOTH",
"69 -22 OFFCURVE",
"65 -22 OFFCURVE",
"61 -21 CURVE",
"57 -22 OFFCURVE",
"53 -22 OFFCURVE",
"49 -22 CURVE SMOOTH",
"22 -22 OFFCURVE",
"0 0 OFFCURVE",
"0 27 CURVE SMOOTH",
"0 47 OFFCURVE",
"12 63 OFFCURVE",
"29 71 CURVE",
"12 79 OFFCURVE",
"0 96 OFFCURVE",
"0 116 CURVE SMOOTH",
"0 143 OFFCURVE",
"22 164 OFFCURVE",
"49 164 CURVE SMOOTH",
"53 164 OFFCURVE",
"56 164 OFFCURVE",
"60 163 CURVE",
"46 172 OFFCURVE",
"37 187 OFFCURVE",
"37 204 CURVE SMOOTH",
"37 224 OFFCURVE",
"49 241 OFFCURVE",
"66 249 CURVE",
"49 257 OFFCURVE",
"37 273 OFFCURVE",
"37 293 CURVE SMOOTH",
"37 313 OFFCURVE",
"49 330 OFFCURVE",
"66 338 CURVE",
"49 346 OFFCURVE",
"37 362 OFFCURVE",
"37 382 CURVE SMOOTH",
"37 409 OFFCURVE",
"59 431 OFFCURVE",
"86 431 CURVE SMOOTH",
"90 431 OFFCURVE",
"94 431 OFFCURVE",
"98 430 CURVE",
"84 439 OFFCURVE",
"75 454 OFFCURVE",
"75 471 CURVE SMOOTH",
"75 491 OFFCURVE",
"87 508 OFFCURVE",
"104 516 CURVE",
"87 524 OFFCURVE",
"75 540 OFFCURVE",
"75 560 CURVE SMOOTH",
"75 587 OFFCURVE",
"97 609 OFFCURVE",
"124 609 CURVE SMOOTH",
"128 609 OFFCURVE",
"132 608 OFFCURVE",
"136 607 CURVE",
"140 608 OFFCURVE",
"144 609 OFFCURVE",
"148 609 CURVE SMOOTH",
"157 609 OFFCURVE",
"167 606 OFFCURVE",
"174 602 CURVE",
"181 606 OFFCURVE",
"190 609 OFFCURVE",
"199 609 CURVE SMOOTH",
"203 609 OFFCURVE",
"207 608 OFFCURVE",
"211 607 CURVE",
"215 608 OFFCURVE",
"219 609 OFFCURVE",
"223 609 CURVE SMOOTH",
"232 609 OFFCURVE",
"242 606 OFFCURVE",
"249 602 CURVE",
"256 606 OFFCURVE",
"265 609 OFFCURVE",
"274 609 CURVE SMOOTH",
"278 609 OFFCURVE",
"282 608 OFFCURVE",
"286 607 CURVE",
"290 608 OFFCURVE",
"294 609 OFFCURVE",
"298 609 CURVE SMOOTH",
"307 609 OFFCURVE",
"317 606 OFFCURVE",
"324 602 CURVE",
"331 606 OFFCURVE",
"340 609 OFFCURVE",
"349 609 CURVE SMOOTH",
"353 609 OFFCURVE",
"357 608 OFFCURVE",
"361 607 CURVE",
"365 608 OFFCURVE",
"369 609 OFFCURVE",
"373 609 CURVE SMOOTH",
"400 609 OFFCURVE",
"422 587 OFFCURVE"
);
}
);
width = 450;
}
);
unicode = 0045;
userData = {
com.fontlab.hintData = {
hhints = (
{
position = -22;
width = 98;
},
{
position = 244;
width = 98;
},
{
position = 411;
width = 20;
},
{
position = 511;
width = 98;
}
);
vhints = (
{
position = 0;
width = 122;
},
{
position = 37;
width = 123;
},
{
position = 75;
width = 122;
}
);
};
};
},
{
glyphname = F;
lastChange = "2017-08-06 04:52:05 +0000";
layers = (
{
layerId = "1F496C02-BC74-4D01-901C-8E7FF5CB5189";
paths = (
{
closed = 1;
nodes = (
"422 560 CURVE SMOOTH",
"422 533 OFFCURVE",
"400 511 OFFCURVE",
"373 511 CURVE SMOOTH",
"369 511 OFFCURVE",
"365 512 OFFCURVE",
"361 513 CURVE",
"357 512 OFFCURVE",
"353 511 OFFCURVE",
"349 511 CURVE SMOOTH",
"340 511 OFFCURVE",
"331 514 OFFCURVE",
"324 518 CURVE",
"317 514 OFFCURVE",
"307 511 OFFCURVE",
"298 511 CURVE SMOOTH",
"294 511 OFFCURVE",
"290 512 OFFCURVE",
"286 513 CURVE",
"282 512 OFFCURVE",
"278 511 OFFCURVE",
"274 511 CURVE SMOOTH",
"265 511 OFFCURVE",
"256 514 OFFCURVE",
"249 518 CURVE",
"242 514 OFFCURVE",
"232 511 OFFCURVE",
"223 511 CURVE SMOOTH",
"219 511 OFFCURVE",
"215 512 OFFCURVE",
"211 513 CURVE",
"207 512 OFFCURVE",
"203 511 OFFCURVE",
"199 511 CURVE SMOOTH",
"190 511 OFFCURVE",
"181 514 OFFCURVE",
"174 518 CURVE",
"172 517 OFFCURVE",
"171 517 OFFCURVE",
"169 516 CURVE",
"186 508 OFFCURVE",
"197 491 OFFCURVE",
"197 471 CURVE SMOOTH",
"197 444 OFFCURVE",
"175 422 OFFCURVE",
"148 422 CURVE SMOOTH",
"144 422 OFFCURVE",
"141 423 OFFCURVE",
"137 424 CURVE",
"151 415 OFFCURVE",
"160 399 OFFCURVE",
"160 382 CURVE SMOOTH",
"160 362 OFFCURVE",
"148 346 OFFCURVE",
"131 338 CURVE",
"133 337 OFFCURVE",
"134 336 OFFCURVE",
"136 335 CURVE",
"143 339 OFFCURVE",
"152 342 OFFCURVE",
"161 342 CURVE SMOOTH",
"165 342 OFFCURVE",
"170 342 OFFCURVE",
"174 341 CURVE",
"178 342 OFFCURVE",
"182 342 OFFCURVE",
"186 342 CURVE SMOOTH",
"195 342 OFFCURVE",
"204 339 OFFCURVE",
"211 335 CURVE",
"218 339 OFFCURVE",
"227 342 OFFCURVE",
"236 342 CURVE SMOOTH",
"240 342 OFFCURVE",
"245 342 OFFCURVE",
"249 341 CURVE",
"253 342 OFFCURVE",
"257 342 OFFCURVE",
"261 342 CURVE SMOOTH",
"288 342 OFFCURVE",
"310 320 OFFCURVE",
"310 293 CURVE SMOOTH",
"310 266 OFFCURVE",
"288 244 OFFCURVE",
"261 244 CURVE SMOOTH",
"257 244 OFFCURVE",
"253 245 OFFCURVE",
"249 246 CURVE",
"245 245 OFFCURVE",
"240 244 OFFCURVE",
"236 244 CURVE SMOOTH",
"227 244 OFFCURVE",
"218 247 OFFCURVE",
"211 251 CURVE",
"204 247 OFFCURVE",
"195 244 OFFCURVE",
"186 244 CURVE SMOOTH",
"182 244 OFFCURVE",
"178 245 OFFCURVE",
"174 246 CURVE",
"170 245 OFFCURVE",
"165 244 OFFCURVE",
"161 244 CURVE SMOOTH",
"152 244 OFFCURVE",
"143 247 OFFCURVE",
"136 251 CURVE",
"134 250 OFFCURVE",
"133 250 OFFCURVE",
"131 249 CURVE",
"148 241 OFFCURVE",
"160 224 OFFCURVE",
"160 204 CURVE SMOOTH",
"160 177 OFFCURVE",
"138 156 OFFCURVE",
"111 156 CURVE SMOOTH",
"107 156 OFFCURVE",
"103 156 OFFCURVE",
"99 157 CURVE",
"113 148 OFFCURVE",
"122 133 OFFCURVE",
"122 116 CURVE SMOOTH",
"122 96 OFFCURVE",
"111 79 OFFCURVE",
"94 71 CURVE",
"111 63 OFFCURVE",
"122 47 OFFCURVE",
"122 27 CURVE SMOOTH",
"122 0 OFFCURVE",
"100 -22 OFFCURVE",
"73 -22 CURVE SMOOTH",
"69 -22 OFFCURVE",
"65 -22 OFFCURVE",
"61 -21 CURVE",
"57 -22 OFFCURVE",
"53 -22 OFFCURVE",
"49 -22 CURVE SMOOTH",
"22 -22 OFFCURVE",
"0 0 OFFCURVE",
"0 27 CURVE SMOOTH",
"0 47 OFFCURVE",
"12 63 OFFCURVE",
"29 71 CURVE",
"12 79 OFFCURVE",
"0 96 OFFCURVE",
"0 116 CURVE SMOOTH",
"0 143 OFFCURVE",
"22 164 OFFCURVE",
"49 164 CURVE SMOOTH",
"53 164 OFFCURVE",
"56 164 OFFCURVE",
"60 163 CURVE",
"46 172 OFFCURVE",
"37 187 OFFCURVE",
"37 204 CURVE SMOOTH",
"37 224 OFFCURVE",
"49 241 OFFCURVE",
"66 249 CURVE",
"49 257 OFFCURVE",
"37 273 OFFCURVE",
"37 293 CURVE SMOOTH",
"37 313 OFFCURVE",
"49 330 OFFCURVE",
"66 338 CURVE",
"49 346 OFFCURVE",
"37 362 OFFCURVE",
"37 382 CURVE SMOOTH",
"37 409 OFFCURVE",
"59 431 OFFCURVE",
"86 431 CURVE SMOOTH",
"90 431 OFFCURVE",
"94 431 OFFCURVE",
"98 430 CURVE",
"84 439 OFFCURVE",
"75 454 OFFCURVE",
"75 471 CURVE SMOOTH",
"75 491 OFFCURVE",
"87 508 OFFCURVE",
"104 516 CURVE",
"87 524 OFFCURVE",
"75 540 OFFCURVE",
"75 560 CURVE SMOOTH",
"75 587 OFFCURVE",
"97 609 OFFCURVE",
"124 609 CURVE SMOOTH",
"128 609 OFFCURVE",
"132 608 OFFCURVE",
"136 607 CURVE",
"140 608 OFFCURVE",
"144 609 OFFCURVE",
"148 609 CURVE SMOOTH",
"157 609 OFFCURVE",
"167 606 OFFCURVE",
"174 602 CURVE",
"181 606 OFFCURVE",
"190 609 OFFCURVE",
"199 609 CURVE SMOOTH",
"203 609 OFFCURVE",
"207 608 OFFCURVE",
"211 607 CURVE",
"215 608 OFFCURVE",
"219 609 OFFCURVE",
"223 609 CURVE SMOOTH",
"232 609 OFFCURVE",
"242 606 OFFCURVE",
"249 602 CURVE",
"256 606 OFFCURVE",
"265 609 OFFCURVE",
"274 609 CURVE SMOOTH",
"278 609 OFFCURVE",
"282 608 OFFCURVE",
"286 607 CURVE",
"290 608 OFFCURVE",
"294 609 OFFCURVE",
"298 609 CURVE SMOOTH",
"307 609 OFFCURVE",
"317 606 OFFCURVE",
"324 602 CURVE",
"331 606 OFFCURVE",
"340 609 OFFCURVE",
"349 609 CURVE SMOOTH",
"353 609 OFFCURVE",
"357 608 OFFCURVE",
"361 607 CURVE",
"365 608 OFFCURVE",
"369 609 OFFCURVE",
"373 609 CURVE SMOOTH",
"400 609 OFFCURVE",
"422 587 OFFCURVE"
);
}
);
width = 450;
}
);
unicode = 0046;
userData = {
com.fontlab.hintData = {
hhints = (
{
position = -22;
width = 21;
},
{
position = -22;
width = 21;
},
{
position = 244;
width = 98;
},
{
position = 411;
width = 20;
},
{
position = 511;
width = 98;
}
);
vhints = (
{
position = 0;
width = 122;
},
{
position = 37;
width = 123;
},
{
position = 75;
width = 122;
}
);
};
};
},
{
glyphname = G;
lastChange = "2017-08-06 04:52:05 +0000";
layers = (
{
layerId = "1F496C02-BC74-4D01-901C-8E7FF5CB5189";
paths = (
{
closed = 1;
nodes = (
"385 560 CURVE SMOOTH",
"385 543 OFFCURVE",
"376 528 OFFCURVE",
"362 519 CURVE",
"366 520 OFFCURVE",
"369 520 OFFCURVE",
"373 520 CURVE SMOOTH",
"400 520 OFFCURVE",
"422 498 OFFCURVE",
"422 471 CURVE SMOOTH",
"422 444 OFFCURVE",
"400 422 OFFCURVE",
"373 422 CURVE SMOOTH",
"369 422 OFFCURVE",
"365 423 OFFCURVE",
"361 424 CURVE",
"357 423 OFFCURVE",
"353 422 OFFCURVE",
"349 422 CURVE SMOOTH",
"322 422 OFFCURVE",
"300 444 OFFCURVE",
"300 471 CURVE SMOOTH",
"300 488 OFFCURVE",
"309 503 OFFCURVE",
"323 512 CURVE",
"319 511 OFFCURVE",
"315 511 OFFCURVE",
"311 511 CURVE SMOOTH",
"302 511 OFFCURVE",
"293 514 OFFCURVE",
"286 518 CURVE",
"279 514 OFFCURVE",
"270 511 OFFCURVE",
"261 511 CURVE SMOOTH",
"257 511 OFFCURVE",
"253 512 OFFCURVE",
"249 513 CURVE",
"245 512 OFFCURVE",
"240 511 OFFCURVE",
"236 511 CURVE SMOOTH",
"227 511 OFFCURVE",
"218 514 OFFCURVE",
"211 518 CURVE",
"204 514 OFFCURVE",
"195 511 OFFCURVE",
"186 511 CURVE SMOOTH",
"182 511 OFFCURVE",
"178 511 OFFCURVE",
"174 512 CURVE",
"188 503 OFFCURVE",
"197 488 OFFCURVE",
"197 471 CURVE SMOOTH",
"197 444 OFFCURVE",
"175 422 OFFCURVE",
"148 422 CURVE SMOOTH",
"144 422 OFFCURVE",
"141 423 OFFCURVE",
"137 424 CURVE",
"151 415 OFFCURVE",
"160 399 OFFCURVE",
"160 382 CURVE SMOOTH",
"160 355 OFFCURVE",
"138 333 OFFCURVE",
"111 333 CURVE SMOOTH",
"107 333 OFFCURVE",
"103 334 OFFCURVE",
"99 335 CURVE",
"113 326 OFFCURVE",
"122 310 OFFCURVE",
"122 293 CURVE SMOOTH",
"122 273 OFFCURVE",
"111 257 OFFCURVE",
"94 249 CURVE",
"111 241 OFFCURVE",
"122 224 OFFCURVE",
"122 204 CURVE SMOOTH",
"122 184 OFFCURVE",
"111 168 OFFCURVE",
"94 160 CURVE",
"111 152 OFFCURVE",
"122 136 OFFCURVE",
"122 116 CURVE SMOOTH",
"122 99 OFFCURVE",
"113 83 OFFCURVE",
"99 74 CURVE",
"103 75 OFFCURVE",
"107 76 OFFCURVE",
"111 76 CURVE SMOOTH",
"120 76 OFFCURVE",
"129 73 OFFCURVE",
"136 69 CURVE",
"143 73 OFFCURVE",
"152 76 OFFCURVE",
"161 76 CURVE SMOOTH",
"165 76 OFFCURVE",
"170 75 OFFCURVE",
"174 74 CURVE",
"178 75 OFFCURVE",
"182 76 OFFCURVE",
"186 76 CURVE SMOOTH",
"195 76 OFFCURVE",
"204 73 OFFCURVE",
"211 69 CURVE",
"218 73 OFFCURVE",
"227 76 OFFCURVE",
"236 76 CURVE SMOOTH",
"240 76 OFFCURVE",
"244 75 OFFCURVE",
"248 74 CURVE",
"234 83 OFFCURVE",
"225 99 OFFCURVE",
"225 116 CURVE SMOOTH",
"225 143 OFFCURVE",
"247 164 OFFCURVE",
"274 164 CURVE SMOOTH",
"278 164 OFFCURVE",
"281 164 OFFCURVE",
"285 163 CURVE",
"271 172 OFFCURVE",
"262 187 OFFCURVE",
"262 204 CURVE SMOOTH",
"262 224 OFFCURVE",
"274 241 OFFCURVE",
"291 249 CURVE",
"289 250 OFFCURVE",
"288 250 OFFCURVE",
"286 251 CURVE",
"279 247 OFFCURVE",
"270 244 OFFCURVE",
"261 244 CURVE SMOOTH",
"257 244 OFFCURVE",
"253 245 OFFCURVE",
"249 246 CURVE",
"245 245 OFFCURVE",
"240 244 OFFCURVE",
"236 244 CURVE SMOOTH",
"209 244 OFFCURVE",
"188 266 OFFCURVE",
"188 293 CURVE SMOOTH",
"188 320 OFFCURVE",
"209 342 OFFCURVE",
"236 342 CURVE SMOOTH",
"240 342 OFFCURVE",
"245 342 OFFCURVE",
"249 341 CURVE",
"253 342 OFFCURVE",
"257 342 OFFCURVE",
"261 342 CURVE SMOOTH",
"270 342 OFFCURVE",
"279 339 OFFCURVE",
"286 335 CURVE",
"293 339 OFFCURVE",
"302 342 OFFCURVE",
"311 342 CURVE SMOOTH",
"315 342 OFFCURVE",
"320 342 OFFCURVE",
"324 341 CURVE",
"328 342 OFFCURVE",
"332 342 OFFCURVE",
"336 342 CURVE SMOOTH",
"363 342 OFFCURVE",
"385 320 OFFCURVE",
"385 293 CURVE SMOOTH",
"385 273 OFFCURVE",
"373 257 OFFCURVE",
"356 249 CURVE",
"373 241 OFFCURVE",
"385 224 OFFCURVE",
"385 204 CURVE SMOOTH",
"385 177 OFFCURVE",
"363 156 OFFCURVE",
"336 156 CURVE SMOOTH",
"332 156 OFFCURVE",
"328 156 OFFCURVE",
"324 157 CURVE",
"338 148 OFFCURVE",
"347 133 OFFCURVE",
"347 116 CURVE SMOOTH",
"347 89 OFFCURVE",
"325 67 OFFCURVE",
"298 67 CURVE SMOOTH",
"294 67 OFFCURVE",
"291 67 OFFCURVE",
"287 68 CURVE",
"301 59 OFFCURVE",
"310 44 OFFCURVE",
"310 27 CURVE SMOOTH",
"310 0 OFFCURVE",
"288 -22 OFFCURVE",
"261 -22 CURVE SMOOTH",
"257 -22 OFFCURVE",
"253 -22 OFFCURVE",
"249 -21 CURVE",
"245 -22 OFFCURVE",
"240 -22 OFFCURVE",
"236 -22 CURVE SMOOTH",
"227 -22 OFFCURVE",
"218 -19 OFFCURVE",
"211 -15 CURVE",
"204 -19 OFFCURVE",
"195 -22 OFFCURVE",
"186 -22 CURVE SMOOTH",
"182 -22 OFFCURVE",
"178 -22 OFFCURVE",
"174 -21 CURVE",
"170 -22 OFFCURVE",
"165 -22 OFFCURVE",
"161 -22 CURVE SMOOTH",
"152 -22 OFFCURVE",
"143 -19 OFFCURVE",
"136 -15 CURVE",
"129 -19 OFFCURVE",
"120 -22 OFFCURVE",
"111 -22 CURVE SMOOTH",
"107 -22 OFFCURVE",
"103 -22 OFFCURVE",
"99 -21 CURVE",
"95 -22 OFFCURVE",
"90 -22 OFFCURVE",
"86 -22 CURVE SMOOTH",
"59 -22 OFFCURVE",
"37 0 OFFCURVE",
"37 27 CURVE SMOOTH",
"37 44 OFFCURVE",
"46 59 OFFCURVE",
"60 68 CURVE",
"56 67 OFFCURVE",
"53 67 OFFCURVE",
"49 67 CURVE SMOOTH",
"22 67 OFFCURVE",
"0 89 OFFCURVE",
"0 116 CURVE SMOOTH",
"0 136 OFFCURVE",
"12 152 OFFCURVE",
"29 160 CURVE",
"12 168 OFFCURVE",
"0 184 OFFCURVE",
"0 204 CURVE SMOOTH",
"0 224 OFFCURVE",
"12 241 OFFCURVE",
"29 249 CURVE",
"12 257 OFFCURVE",
"0 273 OFFCURVE",
"0 293 CURVE SMOOTH",
"0 320 OFFCURVE",
"22 342 OFFCURVE",
"49 342 CURVE SMOOTH",
"53 342 OFFCURVE",
"56 342 OFFCURVE",
"60 341 CURVE",
"46 350 OFFCURVE",
"37 365 OFFCURVE",
"37 382 CURVE SMOOTH",
"37 409 OFFCURVE",
"59 431 OFFCURVE",
"86 431 CURVE SMOOTH",
"90 431 OFFCURVE",
"94 431 OFFCURVE",
"98 430 CURVE",
"84 439 OFFCURVE",
"75 454 OFFCURVE",
"75 471 CURVE SMOOTH",
"75 498 OFFCURVE",
"97 520 OFFCURVE",
"124 520 CURVE SMOOTH",
"128 520 OFFCURVE",
"131 520 OFFCURVE",
"135 519 CURVE",
"121 528 OFFCURVE",
"112 543 OFFCURVE",
"112 560 CURVE SMOOTH",
"112 587 OFFCURVE",
"134 609 OFFCURVE",
"161 609 CURVE SMOOTH",
"165 609 OFFCURVE",
"170 608 OFFCURVE",
"174 607 CURVE",
"178 608 OFFCURVE",
"182 609 OFFCURVE",
"186 609 CURVE SMOOTH",
"195 609 OFFCURVE",
"204 606 OFFCURVE",
"211 602 CURVE",
"218 606 OFFCURVE",
"227 609 OFFCURVE",
"236 609 CURVE SMOOTH",
"240 609 OFFCURVE",
"245 608 OFFCURVE",
"249 607 CURVE",
"253 608 OFFCURVE",
"257 609 OFFCURVE",
"261 609 CURVE SMOOTH",
"270 609 OFFCURVE",
"279 606 OFFCURVE",
"286 602 CURVE",
"293 606 OFFCURVE",
"302 609 OFFCURVE",
"311 609 CURVE SMOOTH",
"315 609 OFFCURVE",
"320 608 OFFCURVE",
"324 607 CURVE",
"328 608 OFFCURVE",
"332 609 OFFCURVE",
"336 609 CURVE SMOOTH",
"363 609 OFFCURVE",
"385 587 OFFCURVE"
);
}
);
width = 450;
}
);
unicode = 0047;
userData = {
com.fontlab.hintData = {
hhints = (
{
position = -22;
width = 98;
},
{
position = 244;
width = 98;
},
{
position = 411;
width = 20;
},
{
position = 422;
width = 98;
},
{
position = 511;
width = 98;
}
);
vhints = (
{
position = 0;
width = 122;
},
{
position = 37;
width = 273;
},
{
position = 37;
width = 123;
},
{
position = 75;
width = 122;
},
{
position = 112;
width = 273;
},
{
position = 188;
width = 197;
},
{
position = 225;
width = 122;
},
{
position = 262;
width = 123;
},
{
position = 300;
width = 122;
}
);
};
};
},
{
glyphname = H;
lastChange = "2017-08-06 04:52:05 +0000";
layers = (
{
layerId = "1F496C02-BC74-4D01-901C-8E7FF5CB5189";
paths = (
{
closed = 1;
nodes = (
"197 560 CURVE SMOOTH",
"197 540 OFFCURVE",
"186 524 OFFCURVE",
"169 516 CURVE",
"186 508 OFFCURVE",
"197 491 OFFCURVE",
"197 471 CURVE SMOOTH",
"197 444 OFFCURVE",
"175 422 OFFCURVE",
"148 422 CURVE SMOOTH",
"144 422 OFFCURVE",
"141 423 OFFCURVE",
"137 424 CURVE",
"151 415 OFFCURVE",
"160 399 OFFCURVE",
"160 382 CURVE SMOOTH",
"160 362 OFFCURVE",
"148 346 OFFCURVE",
"131 338 CURVE",
"133 337 OFFCURVE",
"134 336 OFFCURVE",
"136 335 CURVE",
"143 339 OFFCURVE",
"152 342 OFFCURVE",
"161 342 CURVE SMOOTH",
"165 342 OFFCURVE",
"170 342 OFFCURVE",
"174 341 CURVE",
"178 342 OFFCURVE",
"182 342 OFFCURVE",
"186 342 CURVE SMOOTH",
"195 342 OFFCURVE",
"204 339 OFFCURVE",
"211 335 CURVE",
"218 339 OFFCURVE",
"227 342 OFFCURVE",
"236 342 CURVE SMOOTH",
"240 342 OFFCURVE",
"245 342 OFFCURVE",
"249 341 CURVE",
"253 342 OFFCURVE",
"257 342 OFFCURVE",
"261 342 CURVE SMOOTH",
"270 342 OFFCURVE",
"279 339 OFFCURVE",
"286 335 CURVE",
"288 336 OFFCURVE",
"289 337 OFFCURVE",
"291 338 CURVE",
"274 346 OFFCURVE",
"262 362 OFFCURVE",
"262 382 CURVE SMOOTH",
"262 409 OFFCURVE",
"284 431 OFFCURVE",
"311 431 CURVE SMOOTH",
"315 431 OFFCURVE",
"319 431 OFFCURVE",
"323 430 CURVE",
"309 439 OFFCURVE",
"300 454 OFFCURVE",
"300 471 CURVE SMOOTH",
"300 491 OFFCURVE",
"312 508 OFFCURVE",
"329 516 CURVE",
"312 524 OFFCURVE",
"300 540 OFFCURVE",
"300 560 CURVE SMOOTH",
"300 587 OFFCURVE",
"322 609 OFFCURVE",
"349 609 CURVE SMOOTH",
"353 609 OFFCURVE",
"357 608 OFFCURVE",
"361 607 CURVE",
"365 608 OFFCURVE",
"369 609 OFFCURVE",
"373 609 CURVE SMOOTH",
"400 609 OFFCURVE",
"422 587 OFFCURVE",
"422 560 CURVE SMOOTH",
"422 540 OFFCURVE",
"411 524 OFFCURVE",
"394 516 CURVE",
"411 508 OFFCURVE",
"422 491 OFFCURVE",
"422 471 CURVE SMOOTH",
"422 444 OFFCURVE",
"400 422 OFFCURVE",
"373 422 CURVE SMOOTH",
"369 422 OFFCURVE",
"366 423 OFFCURVE",
"362 424 CURVE",
"376 415 OFFCURVE",
"385 399 OFFCURVE",
"385 382 CURVE SMOOTH",
"385 362 OFFCURVE",
"373 346 OFFCURVE",
"356 338 CURVE",
"373 330 OFFCURVE",
"385 313 OFFCURVE",
"385 293 CURVE SMOOTH",
"385 273 OFFCURVE",
"373 257 OFFCURVE",
"356 249 CURVE",
"373 241 OFFCURVE",
"385 224 OFFCURVE",
"385 204 CURVE SMOOTH",
"385 177 OFFCURVE",
"363 156 OFFCURVE",
"336 156 CURVE SMOOTH",
"332 156 OFFCURVE",
"328 156 OFFCURVE",
"324 157 CURVE",
"338 148 OFFCURVE",
"347 133 OFFCURVE",
"347 116 CURVE SMOOTH",
"347 96 OFFCURVE",
"336 79 OFFCURVE",
"319 71 CURVE",
"336 63 OFFCURVE",
"347 47 OFFCURVE",
"347 27 CURVE SMOOTH",
"347 0 OFFCURVE",
"325 -22 OFFCURVE",
"298 -22 CURVE SMOOTH",
"294 -22 OFFCURVE",
"290 -22 OFFCURVE",
"286 -21 CURVE",
"282 -22 OFFCURVE",
"278 -22 OFFCURVE",
"274 -22 CURVE SMOOTH",
"247 -22 OFFCURVE",
"225 0 OFFCURVE",
"225 27 CURVE SMOOTH",
"225 47 OFFCURVE",
"237 63 OFFCURVE",
"254 71 CURVE",
"237 79 OFFCURVE",
"225 96 OFFCURVE",
"225 116 CURVE SMOOTH",
"225 143 OFFCURVE",
"247 164 OFFCURVE",
"274 164 CURVE SMOOTH",
"278 164 OFFCURVE",
"281 164 OFFCURVE",
"285 163 CURVE",
"271 172 OFFCURVE",
"262 187 OFFCURVE",
"262 204 CURVE SMOOTH",
"262 224 OFFCURVE",
"274 241 OFFCURVE",
"291 249 CURVE",
"289 250 OFFCURVE",
"288 250 OFFCURVE",
"286 251 CURVE",
"279 247 OFFCURVE",
"270 244 OFFCURVE",
"261 244 CURVE SMOOTH",
"257 244 OFFCURVE",
"253 245 OFFCURVE",
"249 246 CURVE",
"245 245 OFFCURVE",
"240 244 OFFCURVE",
"236 244 CURVE SMOOTH",
"227 244 OFFCURVE",
"218 247 OFFCURVE",
"211 251 CURVE",
"204 247 OFFCURVE",
"195 244 OFFCURVE",
"186 244 CURVE SMOOTH",
"182 244 OFFCURVE",
"178 245 OFFCURVE",
"174 246 CURVE",
"170 245 OFFCURVE",
"165 244 OFFCURVE",
"161 244 CURVE SMOOTH",
"152 244 OFFCURVE",
"143 247 OFFCURVE",
"136 251 CURVE",
"134 250 OFFCURVE",
"133 250 OFFCURVE",
"131 249 CURVE",
"148 241 OFFCURVE",
"160 224 OFFCURVE",
"160 204 CURVE SMOOTH",
"160 177 OFFCURVE",
"138 156 OFFCURVE",
"111 156 CURVE SMOOTH",
"107 156 OFFCURVE",
"103 156 OFFCURVE",
"99 157 CURVE",
"113 148 OFFCURVE",
"122 133 OFFCURVE",
"122 116 CURVE SMOOTH",
"122 96 OFFCURVE",
"111 79 OFFCURVE",
"94 71 CURVE",
"111 63 OFFCURVE",
"122 47 OFFCURVE",
"122 27 CURVE SMOOTH",
"122 0 OFFCURVE",
"100 -22 OFFCURVE",
"73 -22 CURVE SMOOTH",
"69 -22 OFFCURVE",
"65 -22 OFFCURVE",
"61 -21 CURVE",
"57 -22 OFFCURVE",
"53 -22 OFFCURVE",
"49 -22 CURVE SMOOTH",
"22 -22 OFFCURVE",
"0 0 OFFCURVE",
"0 27 CURVE SMOOTH",
"0 47 OFFCURVE",
"12 63 OFFCURVE",
"29 71 CURVE",
"12 79 OFFCURVE",
"0 96 OFFCURVE",
"0 116 CURVE SMOOTH",
"0 143 OFFCURVE",
"22 164 OFFCURVE",
"49 164 CURVE SMOOTH",
"53 164 OFFCURVE",
"56 164 OFFCURVE",
"60 163 CURVE",
"46 172 OFFCURVE",
"37 187 OFFCURVE",
"37 204 CURVE SMOOTH",
"37 224 OFFCURVE",
"49 241 OFFCURVE",
"66 249 CURVE",
"49 257 OFFCURVE",
"37 273 OFFCURVE",
"37 293 CURVE SMOOTH",
"37 313 OFFCURVE",
"49 330 OFFCURVE",
"66 338 CURVE",
"49 346 OFFCURVE",
"37 362 OFFCURVE",
"37 382 CURVE SMOOTH",
"37 409 OFFCURVE",
"59 431 OFFCURVE",
"86 431 CURVE SMOOTH",
"90 431 OFFCURVE",
"94 431 OFFCURVE",
"98 430 CURVE",
"84 439 OFFCURVE",
"75 454 OFFCURVE",
"75 471 CURVE SMOOTH",
"75 491 OFFCURVE",
"87 508 OFFCURVE",
"104 516 CURVE",
"87 524 OFFCURVE",
"75 540 OFFCURVE",
"75 560 CURVE SMOOTH",
"75 587 OFFCURVE",
"97 609 OFFCURVE",
"124 609 CURVE SMOOTH",
"128 609 OFFCURVE",
"132 608 OFFCURVE",
"136 607 CURVE",
"140 608 OFFCURVE",
"144 609 OFFCURVE",
"148 609 CURVE SMOOTH",
"175 609 OFFCURVE",
"197 587 OFFCURVE"
);
}
);
width = 450;
}
);
unicode = 0048;
userData = {
com.fontlab.hintData = {
hhints = (
{
position = -22;
width = 21;
},
{
position = -22;
width = 21;
},
{
position = 244;
width = 98;
},
{
position = 411;
width = 20;
},
{
position = 589;
width = 20;
}
);
vhints = (
{
position = 0;
width = 122;
},
{
position = 37;
width = 123;
},
{
position = 75;
width = 122;
},
{
position = 225;
width = 122;
},
{
position = 262;
width = 123;
},
{
position = 300;
width = 122;
}
);
};
};
},
{
glyphname = I;
lastChange = "2017-08-06 04:52:05 +0000";
layers = (
{
layerId = "1F496C02-BC74-4D01-901C-8E7FF5CB5189";
paths = (
{
closed = 1;
nodes = (
"385 560 CURVE SMOOTH",
"385 533 OFFCURVE",
"363 511 OFFCURVE",
"336 511 CURVE SMOOTH",
"332 511 OFFCURVE",
"328 512 OFFCURVE",
"324 513 CURVE",
"320 512 OFFCURVE",
"315 511 OFFCURVE",
"311 511 CURVE SMOOTH",
"302 511 OFFCURVE",
"293 514 OFFCURVE",
"286 518 CURVE",
"284 517 OFFCURVE",
"283 517 OFFCURVE",
"281 516 CURVE",
"298 508 OFFCURVE",
"310 491 OFFCURVE",
"310 471 CURVE SMOOTH",
"310 451 OFFCURVE",
"298 435 OFFCURVE",
"281 427 CURVE",
"298 419 OFFCURVE",
"310 402 OFFCURVE",
"310 382 CURVE SMOOTH",
"310 355 OFFCURVE",
"288 333 OFFCURVE",
"261 333 CURVE SMOOTH",
"257 333 OFFCURVE",
"253 334 OFFCURVE",
"249 335 CURVE",
"263 326 OFFCURVE",
"272 310 OFFCURVE",
"272 293 CURVE SMOOTH",
"272 273 OFFCURVE",
"261 257 OFFCURVE",
"244 249 CURVE",
"261 241 OFFCURVE",
"272 224 OFFCURVE",
"272 204 CURVE SMOOTH",
"272 177 OFFCURVE",
"250 156 OFFCURVE",
"223 156 CURVE SMOOTH",
"219 156 OFFCURVE",
"216 156 OFFCURVE",
"212 157 CURVE",
"226 148 OFFCURVE",
"235 133 OFFCURVE",
"235 116 CURVE SMOOTH",
"235 96 OFFCURVE",
"223 79 OFFCURVE",
"206 71 CURVE",
"208 70 OFFCURVE",
"209 70 OFFCURVE",
"211 69 CURVE",
"218 73 OFFCURVE",
"227 76 OFFCURVE",
"236 76 CURVE SMOOTH",
"240 76 OFFCURVE",
"245 75 OFFCURVE",
"249 74 CURVE",
"253 75 OFFCURVE",
"257 76 OFFCURVE",
"261 76 CURVE SMOOTH",
"288 76 OFFCURVE",
"310 54 OFFCURVE",
"310 27 CURVE SMOOTH",
"310 0 OFFCURVE",
"288 -22 OFFCURVE",
"261 -22 CURVE SMOOTH",
"257 -22 OFFCURVE",
"253 -22 OFFCURVE",
"249 -21 CURVE",
"245 -22 OFFCURVE",
"240 -22 OFFCURVE",
"236 -22 CURVE SMOOTH",
"227 -22 OFFCURVE",
"218 -19 OFFCURVE",
"211 -15 CURVE",
"204 -19 OFFCURVE",
"195 -22 OFFCURVE",
"186 -22 CURVE SMOOTH",
"182 -22 OFFCURVE",
"178 -22 OFFCURVE",
"174 -21 CURVE",
"170 -22 OFFCURVE",
"165 -22 OFFCURVE",
"161 -22 CURVE SMOOTH",
"152 -22 OFFCURVE",
"143 -19 OFFCURVE",
"136 -15 CURVE",
"129 -19 OFFCURVE",
"120 -22 OFFCURVE",
"111 -22 CURVE SMOOTH",
"107 -22 OFFCURVE",
"103 -22 OFFCURVE",
"99 -21 CURVE",
"95 -22 OFFCURVE",
"90 -22 OFFCURVE",
"86 -22 CURVE SMOOTH",
"59 -22 OFFCURVE",
"37 0 OFFCURVE",
"37 27 CURVE SMOOTH",
"37 54 OFFCURVE",
"59 76 OFFCURVE",
"86 76 CURVE SMOOTH",
"90 76 OFFCURVE",
"95 75 OFFCURVE",
"99 74 CURVE",
"103 75 OFFCURVE",
"107 76 OFFCURVE",
"111 76 CURVE SMOOTH",
"120 76 OFFCURVE",
"129 73 OFFCURVE",
"136 69 CURVE",
"138 70 OFFCURVE",
"139 70 OFFCURVE",
"141 71 CURVE",
"124 79 OFFCURVE",
"112 96 OFFCURVE",
"112 116 CURVE SMOOTH",
"112 143 OFFCURVE",
"134 164 OFFCURVE",
"161 164 CURVE SMOOTH",
"165 164 OFFCURVE",
"169 164 OFFCURVE",
"173 163 CURVE",
"159 172 OFFCURVE",
"150 187 OFFCURVE",
"150 204 CURVE SMOOTH",
"150 224 OFFCURVE",
"162 241 OFFCURVE",
"179 249 CURVE",
"162 257 OFFCURVE",
"150 273 OFFCURVE",
"150 293 CURVE SMOOTH",
"150 320 OFFCURVE",
"172 342 OFFCURVE",
"199 342 CURVE SMOOTH",
"203 342 OFFCURVE",
"206 342 OFFCURVE",
"210 341 CURVE",
"196 350 OFFCURVE",
"188 365 OFFCURVE",
"188 382 CURVE SMOOTH",
"188 402 OFFCURVE",
"199 419 OFFCURVE",
"216 427 CURVE",
"199 435 OFFCURVE",
"188 451 OFFCURVE",
"188 471 CURVE SMOOTH",
"188 491 OFFCURVE",
"199 508 OFFCURVE",
"216 516 CURVE",
"214 517 OFFCURVE",
"213 517 OFFCURVE",
"211 518 CURVE",
"204 514 OFFCURVE",
"195 511 OFFCURVE",
"186 511 CURVE SMOOTH",
"182 511 OFFCURVE",
"178 512 OFFCURVE",
"174 513 CURVE",
"170 512 OFFCURVE",
"165 511 OFFCURVE",
"161 511 CURVE SMOOTH",
"134 511 OFFCURVE",
"112 533 OFFCURVE",
"112 560 CURVE SMOOTH",
"112 587 OFFCURVE",
"134 609 OFFCURVE",
"161 609 CURVE SMOOTH",
"165 609 OFFCURVE",
"170 608 OFFCURVE",
"174 607 CURVE",
"178 608 OFFCURVE",
"182 609 OFFCURVE",
"186 609 CURVE SMOOTH",
"195 609 OFFCURVE",
"204 606 OFFCURVE",
"211 602 CURVE",
"218 606 OFFCURVE",
"227 609 OFFCURVE",
"236 609 CURVE SMOOTH",
"240 609 OFFCURVE",
"245 608 OFFCURVE",
"249 607 CURVE",
"253 608 OFFCURVE",
"257 609 OFFCURVE",
"261 609 CURVE SMOOTH",
"270 609 OFFCURVE",
"279 606 OFFCURVE",
"286 602 CURVE",
"293 606 OFFCURVE",
"302 609 OFFCURVE",
"311 609 CURVE SMOOTH",
"315 609 OFFCURVE",
"320 608 OFFCURVE",
"324 607 CURVE",
"328 608 OFFCURVE",
"332 609 OFFCURVE",
"336 609 CURVE SMOOTH",
"363 609 OFFCURVE",
"385 587 OFFCURVE"
);
}
);
width = 450;
}
);
unicode = 0049;
userData = {
com.fontlab.hintData = {
hhints = (
{
position = -22;
width = 98;
},
{
position = 511;
width = 98;
}
);
vhints = (
{
position = 37;
width = 273;
},
{
position = 112;
width = 273;
},
{
position = 112;
width = 123;
},
{
position = 150;
width = 122;
},
{
position = 188;
width = 122;
}
);
};
};
},
{
glyphname = J;
lastChange = "2017-08-06 04:52:05 +0000";
layers = (
{
layerId = "1F496C02-BC74-4D01-901C-8E7FF5CB5189";
paths = (
{
closed = 1;
nodes = (
"422 560 CURVE SMOOTH",
"422 533 OFFCURVE",
"400 511 OFFCURVE",
"373 511 CURVE SMOOTH",
"369 511 OFFCURVE",
"366 511 OFFCURVE",
"362 512 CURVE",
"376 503 OFFCURVE",
"385 488 OFFCURVE",
"385 471 CURVE SMOOTH",
"385 451 OFFCURVE",
"373 435 OFFCURVE",
"356 427 CURVE",
"373 419 OFFCURVE",
"385 402 OFFCURVE",
"385 382 CURVE SMOOTH",
"385 355 OFFCURVE",
"363 333 OFFCURVE",
"336 333 CURVE SMOOTH",
"332 333 OFFCURVE",
"328 334 OFFCURVE",
"324 335 CURVE",
"338 326 OFFCURVE",
"347 310 OFFCURVE",
"347 293 CURVE SMOOTH",
"347 273 OFFCURVE",
"336 257 OFFCURVE",
"319 249 CURVE",
"336 241 OFFCURVE",
"347 224 OFFCURVE",
"347 204 CURVE SMOOTH",
"347 177 OFFCURVE",
"325 156 OFFCURVE",
"298 156 CURVE SMOOTH",
"294 156 OFFCURVE",
"291 156 OFFCURVE",
"287 157 CURVE",
"301 148 OFFCURVE",
"310 133 OFFCURVE",
"310 116 CURVE SMOOTH",
"310 89 OFFCURVE",
"288 67 OFFCURVE",
"261 67 CURVE SMOOTH",
"257 67 OFFCURVE",
"253 67 OFFCURVE",
"249 68 CURVE",
"245 67 OFFCURVE",
"240 67 OFFCURVE",
"236 67 CURVE SMOOTH",
"209 67 OFFCURVE",
"188 89 OFFCURVE",
"188 116 CURVE SMOOTH",
"188 143 OFFCURVE",
"209 164 OFFCURVE",
"236 164 CURVE SMOOTH",
"240 164 OFFCURVE",
"244 164 OFFCURVE",
"248 163 CURVE",
"234 172 OFFCURVE",
"225 187 OFFCURVE",
"225 204 CURVE SMOOTH",
"225 224 OFFCURVE",
"237 241 OFFCURVE",
"254 249 CURVE",
"237 257 OFFCURVE",
"225 273 OFFCURVE",
"225 293 CURVE SMOOTH",
"225 320 OFFCURVE",
"247 342 OFFCURVE",
"274 342 CURVE SMOOTH",
"278 342 OFFCURVE",
"281 342 OFFCURVE",
"285 341 CURVE",
"271 350 OFFCURVE",
"262 365 OFFCURVE",
"262 382 CURVE SMOOTH",
"262 402 OFFCURVE",
"274 419 OFFCURVE",
"291 427 CURVE",
"274 435 OFFCURVE",
"262 451 OFFCURVE",
"262 471 CURVE SMOOTH",
"262 488 OFFCURVE",
"271 503 OFFCURVE",
"285 512 CURVE",
"281 511 OFFCURVE",
"278 511 OFFCURVE",
"274 511 CURVE SMOOTH",
"265 511 OFFCURVE",
"256 514 OFFCURVE",
"249 518 CURVE",
"242 514 OFFCURVE",
"232 511 OFFCURVE",
"223 511 CURVE SMOOTH",
"219 511 OFFCURVE",
"215 512 OFFCURVE",
"211 513 CURVE",
"207 512 OFFCURVE",
"203 511 OFFCURVE",
"199 511 CURVE SMOOTH",
"172 511 OFFCURVE",
"150 533 OFFCURVE",
"150 560 CURVE SMOOTH",
"150 587 OFFCURVE",
"172 609 OFFCURVE",
"199 609 CURVE SMOOTH",
"203 609 OFFCURVE",
"207 608 OFFCURVE",
"211 607 CURVE",
"215 608 OFFCURVE",
"219 609 OFFCURVE",
"223 609 CURVE SMOOTH",
"232 609 OFFCURVE",
"242 606 OFFCURVE",
"249 602 CURVE",
"256 606 OFFCURVE",
"265 609 OFFCURVE",
"274 609 CURVE SMOOTH",
"278 609 OFFCURVE",
"282 608 OFFCURVE",
"286 607 CURVE",
"290 608 OFFCURVE",
"294 609 OFFCURVE",
"298 609 CURVE SMOOTH",
"307 609 OFFCURVE",
"317 606 OFFCURVE",
"324 602 CURVE",
"331 606 OFFCURVE",
"340 609 OFFCURVE",
"349 609 CURVE SMOOTH",
"353 609 OFFCURVE",
"357 608 OFFCURVE",
"361 607 CURVE",
"365 608 OFFCURVE",
"369 609 OFFCURVE",
"373 609 CURVE SMOOTH",
"400 609 OFFCURVE",
"422 587 OFFCURVE"
);
},
{
closed = 1;
nodes = (
"122 204 CURVE SMOOTH",
"122 184 OFFCURVE",
"111 168 OFFCURVE",
"94 160 CURVE",
"111 152 OFFCURVE",
"122 136 OFFCURVE",
"122 116 CURVE SMOOTH",
"122 99 OFFCURVE",
"113 83 OFFCURVE",
"99 74 CURVE",
"103 75 OFFCURVE",
"107 76 OFFCURVE",
"111 76 CURVE SMOOTH",
"120 76 OFFCURVE",
"129 73 OFFCURVE",
"136 69 CURVE",
"143 73 OFFCURVE",
"152 76 OFFCURVE",
"161 76 CURVE SMOOTH",
"165 76 OFFCURVE",
"170 75 OFFCURVE",
"174 74 CURVE",
"178 75 OFFCURVE",
"182 76 OFFCURVE",
"186 76 CURVE SMOOTH",
"213 76 OFFCURVE",
"235 54 OFFCURVE",
"235 27 CURVE SMOOTH",
"235 0 OFFCURVE",
"213 -22 OFFCURVE",
"186 -22 CURVE SMOOTH",
"182 -22 OFFCURVE",
"178 -22 OFFCURVE",
"174 -21 CURVE",
"170 -22 OFFCURVE",
"165 -22 OFFCURVE",
"161 -22 CURVE SMOOTH",
"152 -22 OFFCURVE",
"143 -19 OFFCURVE",
"136 -15 CURVE",
"129 -19 OFFCURVE",
"120 -22 OFFCURVE",
"111 -22 CURVE SMOOTH",
"107 -22 OFFCURVE",
"103 -22 OFFCURVE",
"99 -21 CURVE",
"95 -22 OFFCURVE",
"90 -22 OFFCURVE",
"86 -22 CURVE SMOOTH",
"59 -22 OFFCURVE",
"37 0 OFFCURVE",
"37 27 CURVE SMOOTH",
"37 44 OFFCURVE",
"46 59 OFFCURVE",
"60 68 CURVE",
"56 67 OFFCURVE",
"53 67 OFFCURVE",
"49 67 CURVE SMOOTH",
"22 67 OFFCURVE",
"0 89 OFFCURVE",
"0 116 CURVE SMOOTH",
"0 136 OFFCURVE",
"12 152 OFFCURVE",
"29 160 CURVE",
"12 168 OFFCURVE",
"0 184 OFFCURVE",
"0 204 CURVE SMOOTH",
"0 231 OFFCURVE",
"22 253 OFFCURVE",
"49 253 CURVE SMOOTH",
"53 253 OFFCURVE",
"57 253 OFFCURVE",
"61 252 CURVE",
"65 253 OFFCURVE",
"69 253 OFFCURVE",
"73 253 CURVE SMOOTH",
"100 253 OFFCURVE",
"122 231 OFFCURVE"
);
}
);
width = 450;
}
);
unicode = 004A;
userData = {
com.fontlab.hintData = {
hhints = (
{
position = -22;
width = 98;
},
{
position = 67;
width = 97;
},
{
position = 511;
width = 98;
}
);
vhints = (
{
position = 0;
width = 122;
},
{
position = 37;
width = 198;
},
{
position = 150;
width = 272;
},
{
position = 188;
width = 122;
},
{
position = 225;
width = 122;
},
{
position = 262;
width = 123;
}
);
};
};
},
{
glyphname = K;
lastChange = "2017-08-06 04:52:05 +0000";
layers = (
{
layerId = "1F496C02-BC74-4D01-901C-8E7FF5CB5189";
paths = (
{
closed = 1;
nodes = (
"197 560 CURVE SMOOTH",
"197 540 OFFCURVE",
"186 524 OFFCURVE",
"169 516 CURVE",
"186 508 OFFCURVE",
"197 491 OFFCURVE",
"197 471 CURVE SMOOTH",
"197 444 OFFCURVE",
"175 422 OFFCURVE",
"148 422 CURVE SMOOTH",
"144 422 OFFCURVE",
"141 423 OFFCURVE",
"137 424 CURVE",
"145 419 OFFCURVE",
"151 411 OFFCURVE",
"155 403 CURVE",
"163 419 OFFCURVE",
"180 431 OFFCURVE",
"199 431 CURVE SMOOTH",
"203 431 OFFCURVE",
"207 431 OFFCURVE",
"211 430 CURVE",
"215 431 OFFCURVE",
"219 431 OFFCURVE",
"223 431 CURVE SMOOTH",
"250 431 OFFCURVE",
"272 409 OFFCURVE",
"272 382 CURVE SMOOTH",
"272 355 OFFCURVE",
"250 333 OFFCURVE",
"223 333 CURVE SMOOTH",
"219 333 OFFCURVE",
"216 334 OFFCURVE",
"212 335 CURVE",
"226 326 OFFCURVE",
"235 310 OFFCURVE",
"235 293 CURVE SMOOTH",
"235 266 OFFCURVE",
"213 244 OFFCURVE",
"186 244 CURVE SMOOTH",
"182 244 OFFCURVE",
"178 245 OFFCURVE",
"174 246 CURVE",
"170 245 OFFCURVE",
"165 244 OFFCURVE",
"161 244 CURVE SMOOTH",
"152 244 OFFCURVE",
"143 247 OFFCURVE",
"136 251 CURVE",
"134 250 OFFCURVE",
"133 250 OFFCURVE",
"131 249 CURVE",
"148 241 OFFCURVE",
"160 224 OFFCURVE",
"160 204 CURVE SMOOTH",
"160 177 OFFCURVE",
"138 156 OFFCURVE",
"111 156 CURVE SMOOTH",
"107 156 OFFCURVE",
"103 156 OFFCURVE",
"99 157 CURVE",
"113 148 OFFCURVE",
"122 133 OFFCURVE",
"122 116 CURVE SMOOTH",
"122 96 OFFCURVE",
"111 79 OFFCURVE",
"94 71 CURVE",
"111 63 OFFCURVE",
"122 47 OFFCURVE",
"122 27 CURVE SMOOTH",
"122 0 OFFCURVE",
"100 -22 OFFCURVE",
"73 -22 CURVE SMOOTH",
"69 -22 OFFCURVE",
"65 -22 OFFCURVE",
"61 -21 CURVE",
"57 -22 OFFCURVE",
"53 -22 OFFCURVE",
"49 -22 CURVE SMOOTH",
"22 -22 OFFCURVE",
"0 0 OFFCURVE",
"0 27 CURVE SMOOTH",
"0 47 OFFCURVE",
"12 63 OFFCURVE",
"29 71 CURVE",
"12 79 OFFCURVE",
"0 96 OFFCURVE",
"0 116 CURVE SMOOTH",
"0 143 OFFCURVE",
"22 164 OFFCURVE",
"49 164 CURVE SMOOTH",
"53 164 OFFCURVE",
"56 164 OFFCURVE",
"60 163 CURVE",
"46 172 OFFCURVE",
"37 187 OFFCURVE",
"37 204 CURVE SMOOTH",
"37 224 OFFCURVE",
"49 241 OFFCURVE",
"66 249 CURVE",
"49 257 OFFCURVE",
"37 273 OFFCURVE",
"37 293 CURVE SMOOTH",
"37 313 OFFCURVE",
"49 330 OFFCURVE",
"66 338 CURVE",
"49 346 OFFCURVE",
"37 362 OFFCURVE",
"37 382 CURVE SMOOTH",
"37 409 OFFCURVE",
"59 431 OFFCURVE",
"86 431 CURVE SMOOTH",
"90 431 OFFCURVE",
"94 431 OFFCURVE",
"98 430 CURVE",
"84 439 OFFCURVE",
"75 454 OFFCURVE",
"75 471 CURVE SMOOTH",
"75 491 OFFCURVE",
"87 508 OFFCURVE",
"104 516 CURVE",
"87 524 OFFCURVE",
"75 540 OFFCURVE",
"75 560 CURVE SMOOTH",
"75 587 OFFCURVE",
"97 609 OFFCURVE",
"124 609 CURVE SMOOTH",
"128 609 OFFCURVE",
"132 608 OFFCURVE",
"136 607 CURVE",
"140 608 OFFCURVE",
"144 609 OFFCURVE",
"148 609 CURVE SMOOTH",
"175 609 OFFCURVE",
"197 587 OFFCURVE"
);
},
{
closed = 1;
nodes = (
"422 560 CURVE SMOOTH",
"422 533 OFFCURVE",
"400 511 OFFCURVE",
"373 511 CURVE SMOOTH",
"369 511 OFFCURVE",
"365 512 OFFCURVE",
"361 513 CURVE",
"357 512 OFFCURVE",
"353 511 OFFCURVE",
"349 511 CURVE SMOOTH",
"322 511 OFFCURVE",
"300 533 OFFCURVE",
"300 560 CURVE SMOOTH",
"300 587 OFFCURVE",
"322 609 OFFCURVE",
"349 609 CURVE SMOOTH",
"353 609 OFFCURVE",
"357 608 OFFCURVE",
"361 607 CURVE",
"365 608 OFFCURVE",
"369 609 OFFCURVE",
"373 609 CURVE SMOOTH",
"400 609 OFFCURVE",
"422 587 OFFCURVE"
);
},
{
closed = 1;
nodes = (
"347 471 CURVE SMOOTH",
"347 444 OFFCURVE",
"325 422 OFFCURVE",
"298 422 CURVE SMOOTH",
"294 422 OFFCURVE",
"290 423 OFFCURVE",
"286 424 CURVE",
"282 423 OFFCURVE",
"278 422 OFFCURVE",
"274 422 CURVE SMOOTH",
"247 422 OFFCURVE",
"225 444 OFFCURVE",
"225 471 CURVE SMOOTH",
"225 498 OFFCURVE",
"247 520 OFFCURVE",
"274 520 CURVE SMOOTH",
"278 520 OFFCURVE",
"282 519 OFFCURVE",
"286 518 CURVE",
"290 519 OFFCURVE",
"294 520 OFFCURVE",
"298 520 CURVE SMOOTH",
"325 520 OFFCURVE",
"347 498 OFFCURVE"
);
},
{
closed = 1;
nodes = (
"310 204 CURVE SMOOTH",
"310 187 OFFCURVE",
"301 172 OFFCURVE",
"287 163 CURVE",
"291 164 OFFCURVE",
"294 164 OFFCURVE",
"298 164 CURVE SMOOTH",
"325 164 OFFCURVE",
"347 143 OFFCURVE",
"347 116 CURVE SMOOTH",
"347 99 OFFCURVE",
"338 83 OFFCURVE",
"324 74 CURVE",
"328 75 OFFCURVE",
"332 76 OFFCURVE",
"336 76 CURVE SMOOTH",
"363 76 OFFCURVE",
"385 54 OFFCURVE",
"385 27 CURVE SMOOTH",
"385 0 OFFCURVE",
"363 -22 OFFCURVE",
"336 -22 CURVE SMOOTH",
"332 -22 OFFCURVE",
"328 -22 OFFCURVE",
"324 -21 CURVE",
"320 -22 OFFCURVE",
"315 -22 OFFCURVE",
"311 -22 CURVE SMOOTH",
"284 -22 OFFCURVE",
"262 0 OFFCURVE",
"262 27 CURVE SMOOTH",
"262 44 OFFCURVE",
"271 59 OFFCURVE",
"285 68 CURVE",
"281 67 OFFCURVE",
"278 67 OFFCURVE",
"274 67 CURVE SMOOTH",
"247 67 OFFCURVE",
"225 89 OFFCURVE",
"225 116 CURVE SMOOTH",
"225 133 OFFCURVE",
"234 148 OFFCURVE",
"248 157 CURVE",
"244 156 OFFCURVE",
"240 156 OFFCURVE",
"236 156 CURVE SMOOTH",
"209 156 OFFCURVE",
"188 177 OFFCURVE",
"188 204 CURVE SMOOTH",
"188 231 OFFCURVE",
"209 253 OFFCURVE",
"236 253 CURVE SMOOTH",
"240 253 OFFCURVE",
"245 253 OFFCURVE",
"249 252 CURVE",
"253 253 OFFCURVE",
"257 253 OFFCURVE",
"261 253 CURVE SMOOTH",
"288 253 OFFCURVE",
"310 231 OFFCURVE"
);
},
{
closed = 1;
nodes = (
"155 361 CURVE",
"150 351 OFFCURVE",
"141 343 OFFCURVE",
"131 338 CURVE",
"133 337 OFFCURVE",
"134 336 OFFCURVE",
"136 335 CURVE",
"143 339 OFFCURVE",
"152 342 OFFCURVE",
"161 342 CURVE SMOOTH",
"165 342 OFFCURVE",
"169 342 OFFCURVE",
"173 341 CURVE",
"165 346 OFFCURVE",
"159 353 OFFCURVE"
);
}
);
width = 450;
}
);
unicode = 004B;
userData = {
com.fontlab.hintData = {
hhints = (
{
position = -22;
width = 98;
},
{
position = 156;
width = 97;
},
{
position = 244;
width = 98;
},
{
position = 333;
width = 98;
},
{
position = 422;
width = 98;
},
{
position = 511;
width = 98;
}
);
vhints = (
{
position = 0;
width = 122;
},
{
position = 37;
width = 123;
},
{
position = 75;
width = 122;
},
{
position = 188;
width = 122;
},
{
position = 225;
width = 122;
},
{
position = 262;
width = 123;
},
{
position = 300;
width = 122;
}
);
};
};
},
{
glyphname = L;
lastChange = "2017-08-06 04:52:05 +0000";
layers = (
{
layerId = "1F496C02-BC74-4D01-901C-8E7FF5CB5189";
paths = (
{
closed = 1;
nodes = (
"272 560 CURVE SMOOTH",
"272 533 OFFCURVE",
"250 511 OFFCURVE",
"223 511 CURVE SMOOTH",
"219 511 OFFCURVE",
"216 511 OFFCURVE",
"212 512 CURVE",
"226 503 OFFCURVE",
"235 488 OFFCURVE",
"235 471 CURVE SMOOTH",
"235 451 OFFCURVE",
"223 435 OFFCURVE",
"206 427 CURVE",
"223 419 OFFCURVE",
"235 402 OFFCURVE",
"235 382 CURVE SMOOTH",
"235 355 OFFCURVE",
"213 333 OFFCURVE",
"186 333 CURVE SMOOTH",
"182 333 OFFCURVE",
"178 334 OFFCURVE",
"174 335 CURVE",
"188 326 OFFCURVE",
"197 310 OFFCURVE",
"197 293 CURVE SMOOTH",
"197 273 OFFCURVE",
"186 257 OFFCURVE",
"169 249 CURVE",
"186 241 OFFCURVE",
"197 224 OFFCURVE",
"197 204 CURVE SMOOTH",
"197 177 OFFCURVE",
"175 156 OFFCURVE",
"148 156 CURVE SMOOTH",
"144 156 OFFCURVE",
"141 156 OFFCURVE",
"137 157 CURVE",
"151 148 OFFCURVE",
"160 133 OFFCURVE",
"160 116 CURVE SMOOTH",
"160 96 OFFCURVE",
"148 79 OFFCURVE",
"131 71 CURVE",
"133 70 OFFCURVE",
"134 70 OFFCURVE",
"136 69 CURVE",
"143 73 OFFCURVE",
"152 76 OFFCURVE",
"161 76 CURVE SMOOTH",
"165 76 OFFCURVE",
"170 75 OFFCURVE",
"174 74 CURVE",
"178 75 OFFCURVE",
"182 76 OFFCURVE",
"186 76 CURVE SMOOTH",
"195 76 OFFCURVE",
"204 73 OFFCURVE",
"211 69 CURVE",
"218 73 OFFCURVE",
"227 76 OFFCURVE",
"236 76 CURVE SMOOTH",
"240 76 OFFCURVE",
"245 75 OFFCURVE",
"249 74 CURVE",
"253 75 OFFCURVE",
"257 76 OFFCURVE",
"261 76 CURVE SMOOTH",
"270 76 OFFCURVE",
"279 73 OFFCURVE",
"286 69 CURVE",
"293 73 OFFCURVE",
"302 76 OFFCURVE",
"311 76 CURVE SMOOTH",
"315 76 OFFCURVE",
"320 75 OFFCURVE",
"324 74 CURVE",
"328 75 OFFCURVE",
"332 76 OFFCURVE",
"336 76 CURVE SMOOTH",
"363 76 OFFCURVE",
"385 54 OFFCURVE",
"385 27 CURVE SMOOTH",
"385 0 OFFCURVE",
"363 -22 OFFCURVE",
"336 -22 CURVE SMOOTH",
"332 -22 OFFCURVE",
"328 -22 OFFCURVE",
"324 -21 CURVE",
"320 -22 OFFCURVE",
"315 -22 OFFCURVE",
"311 -22 CURVE SMOOTH",
"302 -22 OFFCURVE",
"293 -19 OFFCURVE",
"286 -15 CURVE",
"279 -19 OFFCURVE",
"270 -22 OFFCURVE",
"261 -22 CURVE SMOOTH",
"257 -22 OFFCURVE",
"253 -22 OFFCURVE",
"249 -21 CURVE",
"245 -22 OFFCURVE",
"240 -22 OFFCURVE",
"236 -22 CURVE SMOOTH",
"227 -22 OFFCURVE",
"218 -19 OFFCURVE",
"211 -15 CURVE",
"204 -19 OFFCURVE",
"195 -22 OFFCURVE",
"186 -22 CURVE SMOOTH",
"182 -22 OFFCURVE",
"178 -22 OFFCURVE",
"174 -21 CURVE",
"170 -22 OFFCURVE",
"165 -22 OFFCURVE",
"161 -22 CURVE SMOOTH",
"152 -22 OFFCURVE",
"143 -19 OFFCURVE",
"136 -15 CURVE",
"129 -19 OFFCURVE",
"120 -22 OFFCURVE",
"111 -22 CURVE SMOOTH",
"107 -22 OFFCURVE",
"103 -22 OFFCURVE",
"99 -21 CURVE",
"95 -22 OFFCURVE",
"90 -22 OFFCURVE",
"86 -22 CURVE SMOOTH",
"59 -22 OFFCURVE",
"37 0 OFFCURVE",
"37 27 CURVE SMOOTH",
"37 47 OFFCURVE",
"49 63 OFFCURVE",
"66 71 CURVE",
"49 79 OFFCURVE",
"37 96 OFFCURVE",
"37 116 CURVE SMOOTH",
"37 143 OFFCURVE",
"59 164 OFFCURVE",
"86 164 CURVE SMOOTH",
"90 164 OFFCURVE",
"94 164 OFFCURVE",
"98 163 CURVE",
"84 172 OFFCURVE",
"75 187 OFFCURVE",
"75 204 CURVE SMOOTH",
"75 224 OFFCURVE",
"87 241 OFFCURVE",
"104 249 CURVE",
"87 257 OFFCURVE",
"75 273 OFFCURVE",
"75 293 CURVE SMOOTH",
"75 320 OFFCURVE",
"97 342 OFFCURVE",
"124 342 CURVE SMOOTH",
"128 342 OFFCURVE",
"131 342 OFFCURVE",
"135 341 CURVE",
"121 350 OFFCURVE",
"112 365 OFFCURVE",
"112 382 CURVE SMOOTH",
"112 402 OFFCURVE",
"124 419 OFFCURVE",
"141 427 CURVE",
"124 435 OFFCURVE",
"112 451 OFFCURVE",
"112 471 CURVE SMOOTH",
"112 498 OFFCURVE",
"134 520 OFFCURVE",
"161 520 CURVE SMOOTH",
"165 520 OFFCURVE",
"169 520 OFFCURVE",
"173 519 CURVE",
"159 528 OFFCURVE",
"150 543 OFFCURVE",
"150 560 CURVE SMOOTH",
"150 587 OFFCURVE",
"172 609 OFFCURVE",
"199 609 CURVE SMOOTH",
"203 609 OFFCURVE",
"207 608 OFFCURVE",
"211 607 CURVE",
"215 608 OFFCURVE",
"219 609 OFFCURVE",
"223 609 CURVE SMOOTH",
"250 609 OFFCURVE",
"272 587 OFFCURVE"
);
}
);
width = 450;
}
);
unicode = 004C;
userData = {
com.fontlab.hintData = {
hhints = (
{
position = -22;
width = 98;
},
{
position = 511;
width = 98;
}
);
vhints = (
{
position = 37;
width = 123;
},
{
position = 75;
width = 122;
},
{
position = 112;
width = 123;
},
{
position = 150;
width = 122;
}
);
};
};
},
{
glyphname = M;
lastChange = "2017-08-06 04:52:05 +0000";
layers = (
{
layerId = "1F496C02-BC74-4D01-901C-8E7FF5CB5189";
paths = (
{
closed = 1;
nodes = (
"197 560 CURVE SMOOTH",
"197 540 OFFCURVE",
"186 524 OFFCURVE",
"169 516 CURVE",
"186 508 OFFCURVE",
"197 491 OFFCURVE",
"197 471 CURVE SMOOTH",
"197 444 OFFCURVE",
"175 422 OFFCURVE",
"148 422 CURVE SMOOTH",
"144 422 OFFCURVE",
"141 423 OFFCURVE",
"137 424 CURVE",
"145 419 OFFCURVE",
"151 411 OFFCURVE",
"155 403 CURVE",
"163 419 OFFCURVE",
"180 431 OFFCURVE",
"199 431 CURVE SMOOTH",
"203 431 OFFCURVE",
"207 431 OFFCURVE",
"211 430 CURVE",
"215 431 OFFCURVE",
"219 431 OFFCURVE",
"223 431 CURVE SMOOTH",
"242 431 OFFCURVE",
"259 419 OFFCURVE",
"267 403 CURVE",
"271 411 OFFCURVE",
"277 419 OFFCURVE",
"285 424 CURVE",
"281 423 OFFCURVE",
"278 422 OFFCURVE",
"274 422 CURVE SMOOTH",
"247 422 OFFCURVE",
"225 444 OFFCURVE",
"225 471 CURVE SMOOTH",
"225 498 OFFCURVE",
"247 520 OFFCURVE",
"274 520 CURVE SMOOTH",
"278 520 OFFCURVE",
"282 519 OFFCURVE",
"286 518 CURVE",
"290 519 OFFCURVE",
"294 520 OFFCURVE",
"298 520 CURVE SMOOTH",
"307 520 OFFCURVE",
"317 517 OFFCURVE",
"324 513 CURVE",
"326 514 OFFCURVE",
"327 515 OFFCURVE",
"329 516 CURVE",
"312 524 OFFCURVE",
"300 540 OFFCURVE",
"300 560 CURVE SMOOTH",
"300 587 OFFCURVE",
"322 609 OFFCURVE",
"349 609 CURVE SMOOTH",
"353 609 OFFCURVE",
"357 608 OFFCURVE",
"361 607 CURVE",
"365 608 OFFCURVE",
"369 609 OFFCURVE",
"373 609 CURVE SMOOTH",
"400 609 OFFCURVE",
"422 587 OFFCURVE",
"422 560 CURVE SMOOTH",
"422 540 OFFCURVE",
"411 524 OFFCURVE",
"394 516 CURVE",
"411 508 OFFCURVE",
"422 491 OFFCURVE",
"422 471 CURVE SMOOTH",
"422 444 OFFCURVE",
"400 422 OFFCURVE",
"373 422 CURVE SMOOTH",
"369 422 OFFCURVE",
"366 423 OFFCURVE",
"362 424 CURVE",
"376 415 OFFCURVE",
"385 399 OFFCURVE",
"385 382 CURVE SMOOTH",
"385 362 OFFCURVE",
"373 346 OFFCURVE",
"356 338 CURVE",
"373 330 OFFCURVE",
"385 313 OFFCURVE",
"385 293 CURVE SMOOTH",
"385 273 OFFCURVE",
"373 257 OFFCURVE",
"356 249 CURVE",
"373 241 OFFCURVE",
"385 224 OFFCURVE",
"385 204 CURVE SMOOTH",
"385 177 OFFCURVE",
"363 156 OFFCURVE",
"336 156 CURVE SMOOTH",
"332 156 OFFCURVE",
"328 156 OFFCURVE",
"324 157 CURVE",
"338 148 OFFCURVE",
"347 133 OFFCURVE",
"347 116 CURVE SMOOTH",
"347 96 OFFCURVE",
"336 79 OFFCURVE",
"319 71 CURVE",
"336 63 OFFCURVE",
"347 47 OFFCURVE",
"347 27 CURVE SMOOTH",
"347 0 OFFCURVE",
"325 -22 OFFCURVE",
"298 -22 CURVE SMOOTH",
"294 -22 OFFCURVE",
"290 -22 OFFCURVE",
"286 -21 CURVE",
"282 -22 OFFCURVE",
"278 -22 OFFCURVE",
"274 -22 CURVE SMOOTH",
"247 -22 OFFCURVE",
"225 0 OFFCURVE",
"225 27 CURVE SMOOTH",
"225 47 OFFCURVE",
"237 63 OFFCURVE",
"254 71 CURVE",
"237 79 OFFCURVE",
"225 96 OFFCURVE",
"225 116 CURVE SMOOTH",
"225 143 OFFCURVE",
"247 164 OFFCURVE",
"274 164 CURVE SMOOTH",
"278 164 OFFCURVE",
"281 164 OFFCURVE",
"285 163 CURVE",
"271 172 OFFCURVE",
"262 187 OFFCURVE",
"262 204 CURVE SMOOTH",
"262 224 OFFCURVE",
"274 241 OFFCURVE",
"291 249 CURVE",
"274 257 OFFCURVE",
"262 273 OFFCURVE",
"262 293 CURVE SMOOTH",
"262 313 OFFCURVE",
"274 330 OFFCURVE",
"291 338 CURVE",
"281 343 OFFCURVE",
"272 351 OFFCURVE",
"267 361 CURVE",
"259 345 OFFCURVE",
"242 333 OFFCURVE",
"223 333 CURVE SMOOTH",
"219 333 OFFCURVE",
"215 334 OFFCURVE",
"211 335 CURVE",
"207 334 OFFCURVE",
"203 333 OFFCURVE",
"199 333 CURVE SMOOTH",
"180 333 OFFCURVE",
"163 345 OFFCURVE",
"155 361 CURVE",
"150 351 OFFCURVE",
"141 343 OFFCURVE",
"131 338 CURVE",
"148 330 OFFCURVE",
"160 313 OFFCURVE",
"160 293 CURVE SMOOTH",
"160 273 OFFCURVE",
"148 257 OFFCURVE",
"131 249 CURVE",
"148 241 OFFCURVE",
"160 224 OFFCURVE",
"160 204 CURVE SMOOTH",
"160 177 OFFCURVE",
"138 156 OFFCURVE",
"111 156 CURVE SMOOTH",
"107 156 OFFCURVE",
"103 156 OFFCURVE",
"99 157 CURVE",
"113 148 OFFCURVE",
"122 133 OFFCURVE",
"122 116 CURVE SMOOTH",
"122 96 OFFCURVE",
"111 79 OFFCURVE",
"94 71 CURVE",
"111 63 OFFCURVE",
"122 47 OFFCURVE",
"122 27 CURVE SMOOTH",
"122 0 OFFCURVE",
"100 -22 OFFCURVE",
"73 -22 CURVE SMOOTH",
"69 -22 OFFCURVE",
"65 -22 OFFCURVE",
"61 -21 CURVE",
"57 -22 OFFCURVE",
"53 -22 OFFCURVE",
"49 -22 CURVE SMOOTH",
"22 -22 OFFCURVE",
"0 0 OFFCURVE",
"0 27 CURVE SMOOTH",
"0 47 OFFCURVE",
"12 63 OFFCURVE",
"29 71 CURVE",
"12 79 OFFCURVE",
"0 96 OFFCURVE",
"0 116 CURVE SMOOTH",
"0 143 OFFCURVE",
"22 164 OFFCURVE",
"49 164 CURVE SMOOTH",
"53 164 OFFCURVE",
"56 164 OFFCURVE",
"60 163 CURVE",
"46 172 OFFCURVE",
"37 187 OFFCURVE",
"37 204 CURVE SMOOTH",
"37 224 OFFCURVE",
"49 241 OFFCURVE",
"66 249 CURVE",
"49 257 OFFCURVE",
"37 273 OFFCURVE",
"37 293 CURVE SMOOTH",
"37 313 OFFCURVE",
"49 330 OFFCURVE",
"66 338 CURVE",
"49 346 OFFCURVE",
"37 362 OFFCURVE",
"37 382 CURVE SMOOTH",
"37 409 OFFCURVE",
"59 431 OFFCURVE",
"86 431 CURVE SMOOTH",
"90 431 OFFCURVE",
"94 431 OFFCURVE",
"98 430 CURVE",
"84 439 OFFCURVE",
"75 454 OFFCURVE",
"75 471 CURVE SMOOTH",
"75 491 OFFCURVE",
"87 508 OFFCURVE",
"104 516 CURVE",
"87 524 OFFCURVE",
"75 540 OFFCURVE",
"75 560 CURVE SMOOTH",
"75 587 OFFCURVE",
"97 609 OFFCURVE",
"124 609 CURVE SMOOTH",
"128 609 OFFCURVE",
"132 608 OFFCURVE",
"136 607 CURVE",
"140 608 OFFCURVE",
"144 609 OFFCURVE",
"148 609 CURVE SMOOTH",
"175 609 OFFCURVE",
"197 587 OFFCURVE"
);
}
);
width = 450;
}
);
unicode = 004D;
userData = {
com.fontlab.hintData = {
hhints = (
{
position = -22;
width = 21;
},
{
position = -22;
width = 21;
},
{
position = 333;
width = 98;
},
{
position = 422;
width = 98;
},
{
position = 589;
width = 20;
}
);
vhints = (
{
position = 0;
width = 122;
},
{
position = 37;
width = 123;
},
{
position = 75;
width = 122;
},
{
position = 225;
width = 197;
},
{
position = 225;
width = 122;
},
{
position = 262;
width = 123;
},
{
position = 300;
width = 122;
}
);
};
};
},
{
glyphname = N;
lastChange = "2017-08-06 04:52:05 +0000";
layers = (
{
layerId = "1F496C02-BC74-4D01-901C-8E7FF5CB5189";
paths = (
{
closed = 1;
nodes = (
"197 560 CURVE SMOOTH",
"197 540 OFFCURVE",
"186 524 OFFCURVE",
"169 516 CURVE",
"186 508 OFFCURVE",
"197 491 OFFCURVE",
"197 471 CURVE SMOOTH",
"197 454 OFFCURVE",
"188 439 OFFCURVE",
"174 430 CURVE",
"178 431 OFFCURVE",
"182 431 OFFCURVE",
"186 431 CURVE SMOOTH",
"213 431 OFFCURVE",
"235 409 OFFCURVE",
"235 382 CURVE SMOOTH",
"235 365 OFFCURVE",
"226 350 OFFCURVE",
"212 341 CURVE",
"216 342 OFFCURVE",
"219 342 OFFCURVE",
"223 342 CURVE SMOOTH",
"242 342 OFFCURVE",
"259 331 OFFCURVE",
"267 315 CURVE",
"272 325 OFFCURVE",
"281 333 OFFCURVE",
"291 338 CURVE",
"274 346 OFFCURVE",
"262 362 OFFCURVE",
"262 382 CURVE SMOOTH",
"262 409 OFFCURVE",
"284 431 OFFCURVE",
"311 431 CURVE SMOOTH",
"315 431 OFFCURVE",
"319 431 OFFCURVE",
"323 430 CURVE",
"309 439 OFFCURVE",
"300 454 OFFCURVE",
"300 471 CURVE SMOOTH",
"300 491 OFFCURVE",
"312 508 OFFCURVE",
"329 516 CURVE",
"312 524 OFFCURVE",
"300 540 OFFCURVE",
"300 560 CURVE SMOOTH",
"300 587 OFFCURVE",
"322 609 OFFCURVE",
"349 609 CURVE SMOOTH",
"353 609 OFFCURVE",
"357 608 OFFCURVE",
"361 607 CURVE",
"365 608 OFFCURVE",
"369 609 OFFCURVE",
"373 609 CURVE SMOOTH",
"400 609 OFFCURVE",
"422 587 OFFCURVE",
"422 560 CURVE SMOOTH",
"422 540 OFFCURVE",
"411 524 OFFCURVE",
"394 516 CURVE",
"411 508 OFFCURVE",
"422 491 OFFCURVE",
"422 471 CURVE SMOOTH",
"422 444 OFFCURVE",
"400 422 OFFCURVE",
"373 422 CURVE SMOOTH",
"369 422 OFFCURVE",
"366 423 OFFCURVE",
"362 424 CURVE",
"376 415 OFFCURVE",
"385 399 OFFCURVE",
"385 382 CURVE SMOOTH",
"385 362 OFFCURVE",
"373 346 OFFCURVE",
"356 338 CURVE",
"373 330 OFFCURVE",
"385 313 OFFCURVE",
"385 293 CURVE SMOOTH",
"385 273 OFFCURVE",
"373 257 OFFCURVE",
"356 249 CURVE",
"373 241 OFFCURVE",
"385 224 OFFCURVE",
"385 204 CURVE SMOOTH",
"385 177 OFFCURVE",
"363 156 OFFCURVE",
"336 156 CURVE SMOOTH",
"332 156 OFFCURVE",
"328 156 OFFCURVE",
"324 157 CURVE",
"338 148 OFFCURVE",
"347 133 OFFCURVE",
"347 116 CURVE SMOOTH",
"347 96 OFFCURVE",
"336 79 OFFCURVE",
"319 71 CURVE",
"336 63 OFFCURVE",
"347 47 OFFCURVE",
"347 27 CURVE SMOOTH",
"347 0 OFFCURVE",
"325 -22 OFFCURVE",
"298 -22 CURVE SMOOTH",
"294 -22 OFFCURVE",
"290 -22 OFFCURVE",
"286 -21 CURVE",
"282 -22 OFFCURVE",
"278 -22 OFFCURVE",
"274 -22 CURVE SMOOTH",
"247 -22 OFFCURVE",
"225 0 OFFCURVE",
"225 27 CURVE SMOOTH",
"225 47 OFFCURVE",
"237 63 OFFCURVE",
"254 71 CURVE",
"237 79 OFFCURVE",
"225 96 OFFCURVE",
"225 116 CURVE SMOOTH",
"225 133 OFFCURVE",
"234 148 OFFCURVE",
"248 157 CURVE",
"244 156 OFFCURVE",
"240 156 OFFCURVE",
"236 156 CURVE SMOOTH",
"209 156 OFFCURVE",
"188 177 OFFCURVE",
"188 204 CURVE SMOOTH",
"188 221 OFFCURVE",
"196 237 OFFCURVE",
"210 246 CURVE",
"206 245 OFFCURVE",
"203 244 OFFCURVE",
"199 244 CURVE SMOOTH",
"180 244 OFFCURVE",
"163 256 OFFCURVE",
"155 272 CURVE",
"150 262 OFFCURVE",
"141 254 OFFCURVE",
"131 249 CURVE",
"148 241 OFFCURVE",
"160 224 OFFCURVE",
"160 204 CURVE SMOOTH",
"160 177 OFFCURVE",
"138 156 OFFCURVE",
"111 156 CURVE SMOOTH",
"107 156 OFFCURVE",
"103 156 OFFCURVE",
"99 157 CURVE",
"113 148 OFFCURVE",
"122 133 OFFCURVE",
"122 116 CURVE SMOOTH",
"122 96 OFFCURVE",
"111 79 OFFCURVE",
"94 71 CURVE",
"111 63 OFFCURVE",
"122 47 OFFCURVE",
"122 27 CURVE SMOOTH",
"122 0 OFFCURVE",
"100 -22 OFFCURVE",
"73 -22 CURVE SMOOTH",
"69 -22 OFFCURVE",
"65 -22 OFFCURVE",
"61 -21 CURVE",
"57 -22 OFFCURVE",
"53 -22 OFFCURVE",
"49 -22 CURVE SMOOTH",
"22 -22 OFFCURVE",
"0 0 OFFCURVE",
"0 27 CURVE SMOOTH",
"0 47 OFFCURVE",
"12 63 OFFCURVE",
"29 71 CURVE",
"12 79 OFFCURVE",
"0 96 OFFCURVE",
"0 116 CURVE SMOOTH",
"0 143 OFFCURVE",
"22 164 OFFCURVE",
"49 164 CURVE SMOOTH",
"53 164 OFFCURVE",
"56 164 OFFCURVE",
"60 163 CURVE",
"46 172 OFFCURVE",
"37 187 OFFCURVE",
"37 204 CURVE SMOOTH",
"37 224 OFFCURVE",
"49 241 OFFCURVE",
"66 249 CURVE",
"49 257 OFFCURVE",
"37 273 OFFCURVE",
"37 293 CURVE SMOOTH",
"37 313 OFFCURVE",
"49 330 OFFCURVE",
"66 338 CURVE",
"49 346 OFFCURVE",
"37 362 OFFCURVE",
"37 382 CURVE SMOOTH",
"37 409 OFFCURVE",
"59 431 OFFCURVE",
"86 431 CURVE SMOOTH",
"90 431 OFFCURVE",
"94 431 OFFCURVE",
"98 430 CURVE",
"84 439 OFFCURVE",
"75 454 OFFCURVE",
"75 471 CURVE SMOOTH",
"75 491 OFFCURVE",
"87 508 OFFCURVE",
"104 516 CURVE",
"87 524 OFFCURVE",
"75 540 OFFCURVE",
"75 560 CURVE SMOOTH",
"75 587 OFFCURVE",
"97 609 OFFCURVE",
"124 609 CURVE SMOOTH",
"128 609 OFFCURVE",
"132 608 OFFCURVE",
"136 607 CURVE",
"140 608 OFFCURVE",
"144 609 OFFCURVE",
"148 609 CURVE SMOOTH",
"175 609 OFFCURVE",
"197 587 OFFCURVE"
);
},
{
closed = 1;
nodes = (
"136 340 CURVE",
"134 339 OFFCURVE",
"133 339 OFFCURVE",
"131 338 CURVE",
"141 333 OFFCURVE",
"150 325 OFFCURVE",
"155 315 CURVE",
"159 323 OFFCURVE",
"165 330 OFFCURVE",
"173 335 CURVE",
"169 334 OFFCURVE",
"165 333 OFFCURVE",
"161 333 CURVE SMOOTH",
"152 333 OFFCURVE",
"143 336 OFFCURVE"
);
},
{
closed = 1;
nodes = (
"267 272 CURVE",
"263 264 OFFCURVE",
"257 257 OFFCURVE",
"249 252 CURVE",
"253 253 OFFCURVE",
"257 253 OFFCURVE",
"261 253 CURVE SMOOTH",
"270 253 OFFCURVE",
"279 250 OFFCURVE",
"286 246 CURVE",
"288 247 OFFCURVE",
"289 248 OFFCURVE",
"291 249 CURVE",
"281 254 OFFCURVE",
"272 262 OFFCURVE"
);
}
);
width = 450;
}
);
unicode = 004E;
userData = {
com.fontlab.hintData = {
hhints = (
{
position = -22;
width = 21;
},
{
position = -22;
width = 21;
},
{
position = 411;
width = 20;
},
{
position = 589;
width = 20;
}
);
vhints = (
{
position = 0;
width = 122;
},
{
position = 37;
width = 198;
},
{
position = 37;
width = 123;
},
{
position = 75;
width = 122;
},
{
position = 188;
width = 197;
},
{
position = 225;
width = 122;
},
{
position = 262;
width = 123;
},
{
position = 300;
width = 122;
}
);
};
};
},
{
glyphname = O;
lastChange = "2017-08-06 04:52:05 +0000";
layers = (
{
layerId = "1F496C02-BC74-4D01-901C-8E7FF5CB5189";
paths = (
{
closed = 1;
nodes = (
"385 560 CURVE SMOOTH",
"385 543 OFFCURVE",
"376 528 OFFCURVE",
"362 519 CURVE",
"366 520 OFFCURVE",
"369 520 OFFCURVE",
"373 520 CURVE SMOOTH",
"400 520 OFFCURVE",
"422 498 OFFCURVE",
"422 471 CURVE SMOOTH",
"422 451 OFFCURVE",
"411 435 OFFCURVE",
"394 427 CURVE",
"411 419 OFFCURVE",
"422 402 OFFCURVE",
"422 382 CURVE SMOOTH",
"422 355 OFFCURVE",
"400 333 OFFCURVE",
"373 333 CURVE SMOOTH",
"369 333 OFFCURVE",
"366 334 OFFCURVE",
"362 335 CURVE",
"376 326 OFFCURVE",
"385 310 OFFCURVE",
"385 293 CURVE SMOOTH",
"385 273 OFFCURVE",
"373 257 OFFCURVE",
"356 249 CURVE",
"373 241 OFFCURVE",
"385 224 OFFCURVE",
"385 204 CURVE SMOOTH",
"385 177 OFFCURVE",
"363 156 OFFCURVE",
"336 156 CURVE SMOOTH",
"332 156 OFFCURVE",
"328 156 OFFCURVE",
"324 157 CURVE",
"338 148 OFFCURVE",
"347 133 OFFCURVE",
"347 116 CURVE SMOOTH",
"347 89 OFFCURVE",
"325 67 OFFCURVE",
"298 67 CURVE SMOOTH",
"294 67 OFFCURVE",
"291 67 OFFCURVE",
"287 68 CURVE",
"301 59 OFFCURVE",
"310 44 OFFCURVE",
"310 27 CURVE SMOOTH",
"310 0 OFFCURVE",
"288 -22 OFFCURVE",
"261 -22 CURVE SMOOTH",
"257 -22 OFFCURVE",
"253 -22 OFFCURVE",
"249 -21 CURVE",
"245 -22 OFFCURVE",
"240 -22 OFFCURVE",
"236 -22 CURVE SMOOTH",
"227 -22 OFFCURVE",
"218 -19 OFFCURVE",
"211 -15 CURVE",
"204 -19 OFFCURVE",
"195 -22 OFFCURVE",
"186 -22 CURVE SMOOTH",
"182 -22 OFFCURVE",
"178 -22 OFFCURVE",
"174 -21 CURVE",
"170 -22 OFFCURVE",
"165 -22 OFFCURVE",
"161 -22 CURVE SMOOTH",
"152 -22 OFFCURVE",
"143 -19 OFFCURVE",
"136 -15 CURVE",
"129 -19 OFFCURVE",
"120 -22 OFFCURVE",
"111 -22 CURVE SMOOTH",
"107 -22 OFFCURVE",
"103 -22 OFFCURVE",
"99 -21 CURVE",
"95 -22 OFFCURVE",
"90 -22 OFFCURVE",
"86 -22 CURVE SMOOTH",
"59 -22 OFFCURVE",
"37 0 OFFCURVE",
"37 27 CURVE SMOOTH",
"37 44 OFFCURVE",
"46 59 OFFCURVE",
"60 68 CURVE",
"56 67 OFFCURVE",
"53 67 OFFCURVE",
"49 67 CURVE SMOOTH",
"22 67 OFFCURVE",
"0 89 OFFCURVE",
"0 116 CURVE SMOOTH",
"0 136 OFFCURVE",
"12 152 OFFCURVE",
"29 160 CURVE",
"12 168 OFFCURVE",
"0 184 OFFCURVE",
"0 204 CURVE SMOOTH",
"0 231 OFFCURVE",
"22 253 OFFCURVE",
"49 253 CURVE SMOOTH",
"53 253 OFFCURVE",
"56 253 OFFCURVE",
"60 252 CURVE",
"46 261 OFFCURVE",
"37 276 OFFCURVE",
"37 293 CURVE SMOOTH",
"37 313 OFFCURVE",
"49 330 OFFCURVE",
"66 338 CURVE",
"49 346 OFFCURVE",
"37 362 OFFCURVE",
"37 382 CURVE SMOOTH",
"37 409 OFFCURVE",
"59 431 OFFCURVE",
"86 431 CURVE SMOOTH",
"90 431 OFFCURVE",
"94 431 OFFCURVE",
"98 430 CURVE",
"84 439 OFFCURVE",
"75 454 OFFCURVE",
"75 471 CURVE SMOOTH",
"75 498 OFFCURVE",
"97 520 OFFCURVE",
"124 520 CURVE SMOOTH",
"128 520 OFFCURVE",
"131 520 OFFCURVE",
"135 519 CURVE",
"121 528 OFFCURVE",
"112 543 OFFCURVE",
"112 560 CURVE SMOOTH",
"112 587 OFFCURVE",
"134 609 OFFCURVE",
"161 609 CURVE SMOOTH",
"165 609 OFFCURVE",
"170 608 OFFCURVE",
"174 607 CURVE",
"178 608 OFFCURVE",
"182 609 OFFCURVE",
"186 609 CURVE SMOOTH",
"195 609 OFFCURVE",
"204 606 OFFCURVE",
"211 602 CURVE",
"218 606 OFFCURVE",
"227 609 OFFCURVE",
"236 609 CURVE SMOOTH",
"240 609 OFFCURVE",
"245 608 OFFCURVE",
"249 607 CURVE",
"253 608 OFFCURVE",
"257 609 OFFCURVE",
"261 609 CURVE SMOOTH",
"270 609 OFFCURVE",
"279 606 OFFCURVE",
"286 602 CURVE",
"293 606 OFFCURVE",
"302 609 OFFCURVE",
"311 609 CURVE SMOOTH",
"315 609 OFFCURVE",
"320 608 OFFCURVE",
"324 607 CURVE",
"328 608 OFFCURVE",
"332 609 OFFCURVE",
"336 609 CURVE SMOOTH",
"363 609 OFFCURVE",
"385 587 OFFCURVE"
);
},
{
closed = 1;
nodes = (
"211 518 CURVE",
"204 514 OFFCURVE",
"195 511 OFFCURVE",
"186 511 CURVE SMOOTH",
"182 511 OFFCURVE",
"178 511 OFFCURVE",
"174 512 CURVE",
"188 503 OFFCURVE",
"197 488 OFFCURVE",
"197 471 CURVE SMOOTH",
"197 444 OFFCURVE",
"175 422 OFFCURVE",
"148 422 CURVE SMOOTH",
"144 422 OFFCURVE",
"141 423 OFFCURVE",
"137 424 CURVE",
"151 415 OFFCURVE",
"160 399 OFFCURVE",
"160 382 CURVE SMOOTH",
"160 362 OFFCURVE",
"148 346 OFFCURVE",
"131 338 CURVE",
"148 330 OFFCURVE",
"160 313 OFFCURVE",
"160 293 CURVE SMOOTH",
"160 266 OFFCURVE",
"138 244 OFFCURVE",
"111 244 CURVE SMOOTH",
"107 244 OFFCURVE",
"103 245 OFFCURVE",
"99 246 CURVE",
"113 237 OFFCURVE",
"122 221 OFFCURVE",
"122 204 CURVE SMOOTH",
"122 184 OFFCURVE",
"111 168 OFFCURVE",
"94 160 CURVE",
"111 152 OFFCURVE",
"122 136 OFFCURVE",
"122 116 CURVE SMOOTH",
"122 99 OFFCURVE",
"113 83 OFFCURVE",
"99 74 CURVE",
"103 75 OFFCURVE",
"107 76 OFFCURVE",
"111 76 CURVE SMOOTH",
"120 76 OFFCURVE",
"129 73 OFFCURVE",
"136 69 CURVE",
"143 73 OFFCURVE",
"152 76 OFFCURVE",
"161 76 CURVE SMOOTH",
"165 76 OFFCURVE",
"170 75 OFFCURVE",
"174 74 CURVE",
"178 75 OFFCURVE",
"182 76 OFFCURVE",
"186 76 CURVE SMOOTH",
"195 76 OFFCURVE",
"204 73 OFFCURVE",
"211 69 CURVE",
"218 73 OFFCURVE",
"227 76 OFFCURVE",
"236 76 CURVE SMOOTH",
"240 76 OFFCURVE",
"244 75 OFFCURVE",
"248 74 CURVE",
"234 83 OFFCURVE",
"225 99 OFFCURVE",
"225 116 CURVE SMOOTH",
"225 143 OFFCURVE",
"247 164 OFFCURVE",
"274 164 CURVE SMOOTH",
"278 164 OFFCURVE",
"281 164 OFFCURVE",
"285 163 CURVE",
"271 172 OFFCURVE",
"262 187 OFFCURVE",
"262 204 CURVE SMOOTH",
"262 224 OFFCURVE",
"274 241 OFFCURVE",
"291 249 CURVE",
"274 257 OFFCURVE",
"262 273 OFFCURVE",
"262 293 CURVE SMOOTH",
"262 320 OFFCURVE",
"284 342 OFFCURVE",
"311 342 CURVE SMOOTH",
"315 342 OFFCURVE",
"319 342 OFFCURVE",
"323 341 CURVE",
"309 350 OFFCURVE",
"300 365 OFFCURVE",
"300 382 CURVE SMOOTH",
"300 402 OFFCURVE",
"312 419 OFFCURVE",
"329 427 CURVE",
"312 435 OFFCURVE",
"300 451 OFFCURVE",
"300 471 CURVE SMOOTH",
"300 488 OFFCURVE",
"309 503 OFFCURVE",
"323 512 CURVE",
"319 511 OFFCURVE",
"315 511 OFFCURVE",
"311 511 CURVE SMOOTH",
"302 511 OFFCURVE",
"293 514 OFFCURVE",
"286 518 CURVE",
"279 514 OFFCURVE",
"270 511 OFFCURVE",
"261 511 CURVE SMOOTH",
"257 511 OFFCURVE",
"253 512 OFFCURVE",
"249 513 CURVE",
"245 512 OFFCURVE",
"240 511 OFFCURVE",
"236 511 CURVE SMOOTH",
"227 511 OFFCURVE",
"218 514 OFFCURVE"
);
}
);
width = 450;
}
);
unicode = 004F;
userData = {
com.fontlab.hintData = {
hhints = (
{
position = -22;
width = 98;
},
{
position = 411;
width = 20;
},
{
position = 511;
width = 98;
}
);
vhints = (
{
position = 0;
width = 122;
},
{
position = 37;
width = 273;
},
{
position = 37;
width = 123;
},
{
position = 75;
width = 122;
},
{
position = 112;
width = 273;
},
{
position = 225;
width = 122;
},
{
position = 262;
width = 123;
},
{
position = 300;
width = 122;
}
);
};
};
},
{
glyphname = P;
lastChange = "2017-08-06 04:52:05 +0000";
layers = (
{
layerId = "1F496C02-BC74-4D01-901C-8E7FF5CB5189";
paths = (
{
closed = 1;
nodes = (
"385 560 CURVE SMOOTH",
"385 543 OFFCURVE",
"376 528 OFFCURVE",
"362 519 CURVE",
"366 520 OFFCURVE",
"369 520 OFFCURVE",
"373 520 CURVE SMOOTH",
"400 520 OFFCURVE",
"422 498 OFFCURVE",
"422 471 CURVE SMOOTH",
"422 451 OFFCURVE",
"411 435 OFFCURVE",
"394 427 CURVE",
"411 419 OFFCURVE",
"422 402 OFFCURVE",
"422 382 CURVE SMOOTH",
"422 355 OFFCURVE",
"400 333 OFFCURVE",
"373 333 CURVE SMOOTH",
"369 333 OFFCURVE",
"366 334 OFFCURVE",
"362 335 CURVE",
"376 326 OFFCURVE",
"385 310 OFFCURVE",
"385 293 CURVE SMOOTH",
"385 266 OFFCURVE",
"363 244 OFFCURVE",
"336 244 CURVE SMOOTH",
"332 244 OFFCURVE",
"328 245 OFFCURVE",
"324 246 CURVE",
"320 245 OFFCURVE",
"315 244 OFFCURVE",
"311 244 CURVE SMOOTH",
"302 244 OFFCURVE",
"293 247 OFFCURVE",
"286 251 CURVE",
"279 247 OFFCURVE",
"270 244 OFFCURVE",
"261 244 CURVE SMOOTH",
"257 244 OFFCURVE",
"253 245 OFFCURVE",
"249 246 CURVE",
"245 245 OFFCURVE",
"240 244 OFFCURVE",
"236 244 CURVE SMOOTH",
"227 244 OFFCURVE",
"218 247 OFFCURVE",
"211 251 CURVE",
"204 247 OFFCURVE",
"195 244 OFFCURVE",
"186 244 CURVE SMOOTH",
"182 244 OFFCURVE",
"178 245 OFFCURVE",
"174 246 CURVE",
"170 245 OFFCURVE",
"165 244 OFFCURVE",
"161 244 CURVE SMOOTH",
"152 244 OFFCURVE",
"143 247 OFFCURVE",
"136 251 CURVE",
"134 250 OFFCURVE",
"133 250 OFFCURVE",
"131 249 CURVE",
"148 241 OFFCURVE",
"160 224 OFFCURVE",
"160 204 CURVE SMOOTH",
"160 177 OFFCURVE",
"138 156 OFFCURVE",
"111 156 CURVE SMOOTH",
"107 156 OFFCURVE",
"103 156 OFFCURVE",
"99 157 CURVE",
"113 148 OFFCURVE",
"122 133 OFFCURVE",
"122 116 CURVE SMOOTH",
"122 96 OFFCURVE",
"111 79 OFFCURVE",
"94 71 CURVE",
"111 63 OFFCURVE",
"122 47 OFFCURVE",
"122 27 CURVE SMOOTH",
"122 0 OFFCURVE",
"100 -22 OFFCURVE",
"73 -22 CURVE SMOOTH",
"69 -22 OFFCURVE",
"65 -22 OFFCURVE",
"61 -21 CURVE",
"57 -22 OFFCURVE",
"53 -22 OFFCURVE",
"49 -22 CURVE SMOOTH",
"22 -22 OFFCURVE",
"0 0 OFFCURVE",
"0 27 CURVE SMOOTH",
"0 47 OFFCURVE",
"12 63 OFFCURVE",
"29 71 CURVE",
"12 79 OFFCURVE",
"0 96 OFFCURVE",
"0 116 CURVE SMOOTH",
"0 143 OFFCURVE",
"22 164 OFFCURVE",
"49 164 CURVE SMOOTH",
"53 164 OFFCURVE",
"56 164 OFFCURVE",
"60 163 CURVE",
"46 172 OFFCURVE",
"37 187 OFFCURVE",
"37 204 CURVE SMOOTH",
"37 224 OFFCURVE",
"49 241 OFFCURVE",
"66 249 CURVE",
"49 257 OFFCURVE",
"37 273 OFFCURVE",
"37 293 CURVE SMOOTH",
"37 320 OFFCURVE",
"59 342 OFFCURVE",
"86 342 CURVE SMOOTH",
"90 342 OFFCURVE",
"94 342 OFFCURVE",
"98 341 CURVE",
"84 350 OFFCURVE",
"75 365 OFFCURVE",
"75 382 CURVE SMOOTH",
"75 402 OFFCURVE",
"87 419 OFFCURVE",
"104 427 CURVE",
"87 435 OFFCURVE",
"75 451 OFFCURVE",
"75 471 CURVE SMOOTH",
"75 498 OFFCURVE",
"97 520 OFFCURVE",
"124 520 CURVE SMOOTH",
"128 520 OFFCURVE",
"131 520 OFFCURVE",
"135 519 CURVE",
"121 528 OFFCURVE",
"112 543 OFFCURVE",
"112 560 CURVE SMOOTH",
"112 587 OFFCURVE",
"134 609 OFFCURVE",
"161 609 CURVE SMOOTH",
"165 609 OFFCURVE",
"170 608 OFFCURVE",
"174 607 CURVE",
"178 608 OFFCURVE",
"182 609 OFFCURVE",
"186 609 CURVE SMOOTH",
"195 609 OFFCURVE",
"204 606 OFFCURVE",
"211 602 CURVE",
"218 606 OFFCURVE",
"227 609 OFFCURVE",
"236 609 CURVE SMOOTH",
"240 609 OFFCURVE",
"245 608 OFFCURVE",
"249 607 CURVE",
"253 608 OFFCURVE",
"257 609 OFFCURVE",
"261 609 CURVE SMOOTH",
"270 609 OFFCURVE",
"279 606 OFFCURVE",
"286 602 CURVE",
"293 606 OFFCURVE",
"302 609 OFFCURVE",
"311 609 CURVE SMOOTH",
"315 609 OFFCURVE",
"320 608 OFFCURVE",
"324 607 CURVE",
"328 608 OFFCURVE",
"332 609 OFFCURVE",
"336 609 CURVE SMOOTH",
"363 609 OFFCURVE",
"385 587 OFFCURVE"
);
},
{
closed = 1;
nodes = (
"211 518 CURVE",
"204 514 OFFCURVE",
"195 511 OFFCURVE",
"186 511 CURVE SMOOTH",
"182 511 OFFCURVE",
"178 511 OFFCURVE",
"174 512 CURVE",
"188 503 OFFCURVE",
"197 488 OFFCURVE",
"197 471 CURVE SMOOTH",
"197 451 OFFCURVE",
"186 435 OFFCURVE",
"169 427 CURVE",
"186 419 OFFCURVE",
"197 402 OFFCURVE",
"197 382 CURVE SMOOTH",
"197 365 OFFCURVE",
"188 350 OFFCURVE",
"174 341 CURVE",
"178 342 OFFCURVE",
"182 342 OFFCURVE",
"186 342 CURVE SMOOTH",
"195 342 OFFCURVE",
"204 339 OFFCURVE",
"211 335 CURVE",
"218 339 OFFCURVE",
"227 342 OFFCURVE",
"236 342 CURVE SMOOTH",
"240 342 OFFCURVE",
"245 342 OFFCURVE",
"249 341 CURVE",
"253 342 OFFCURVE",
"257 342 OFFCURVE",
"261 342 CURVE SMOOTH",
"270 342 OFFCURVE",
"279 339 OFFCURVE",
"286 335 CURVE",
"293 339 OFFCURVE",
"302 342 OFFCURVE",
"311 342 CURVE SMOOTH",
"315 342 OFFCURVE",
"319 342 OFFCURVE",
"323 341 CURVE",
"309 350 OFFCURVE",
"300 365 OFFCURVE",
"300 382 CURVE SMOOTH",
"300 402 OFFCURVE",
"312 419 OFFCURVE",
"329 427 CURVE",
"312 435 OFFCURVE",
"300 451 OFFCURVE",
"300 471 CURVE SMOOTH",
"300 488 OFFCURVE",
"309 503 OFFCURVE",
"323 512 CURVE",
"319 511 OFFCURVE",
"315 511 OFFCURVE",
"311 511 CURVE SMOOTH",
"302 511 OFFCURVE",
"293 514 OFFCURVE",
"286 518 CURVE",
"279 514 OFFCURVE",
"270 511 OFFCURVE",
"261 511 CURVE SMOOTH",
"257 511 OFFCURVE",
"253 512 OFFCURVE",
"249 513 CURVE",
"245 512 OFFCURVE",
"240 511 OFFCURVE",
"236 511 CURVE SMOOTH",
"227 511 OFFCURVE",
"218 514 OFFCURVE"
);
}
);
width = 450;
}
);
unicode = 0050;
userData = {
com.fontlab.hintData = {
hhints = (
{
position = -22;
width = 21;
},
{
position = -22;
width = 21;
},
{
position = 244;
width = 98;
},
{
position = 511;
width = 98;
}
);
vhints = (
{
position = 0;
width = 122;
},
{
position = 37;
width = 123;
},
{
position = 75;
width = 122;
},
{
position = 112;
width = 273;
},
{
position = 300;
width = 122;
}
);
};
};
},
{
glyphname = Q;
lastChange = "2017-08-06 04:52:05 +0000";
layers = (
{
layerId = "1F496C02-BC74-4D01-901C-8E7FF5CB5189";
paths = (
{
closed = 1;
nodes = (
"347 560 CURVE SMOOTH",
"347 533 OFFCURVE",
"325 511 OFFCURVE",
"298 511 CURVE SMOOTH",
"294 511 OFFCURVE",
"290 512 OFFCURVE",
"286 513 CURVE",
"282 512 OFFCURVE",
"278 511 OFFCURVE",
"274 511 CURVE SMOOTH",
"265 511 OFFCURVE",
"256 514 OFFCURVE",
"249 518 CURVE",
"242 514 OFFCURVE",
"232 511 OFFCURVE",
"223 511 CURVE SMOOTH",
"219 511 OFFCURVE",
"215 512 OFFCURVE",
"211 513 CURVE",
"207 512 OFFCURVE",
"203 511 OFFCURVE",
"199 511 CURVE SMOOTH",
"172 511 OFFCURVE",
"150 533 OFFCURVE",
"150 560 CURVE SMOOTH",
"150 587 OFFCURVE",
"172 609 OFFCURVE",
"199 609 CURVE SMOOTH",
"203 609 OFFCURVE",
"207 608 OFFCURVE",
"211 607 CURVE",
"215 608 OFFCURVE",
"219 609 OFFCURVE",
"223 609 CURVE SMOOTH",
"232 609 OFFCURVE",
"242 606 OFFCURVE",
"249 602 CURVE",
"256 606 OFFCURVE",
"265 609 OFFCURVE",
"274 609 CURVE SMOOTH",
"278 609 OFFCURVE",
"282 608 OFFCURVE",
"286 607 CURVE",
"290 608 OFFCURVE",
"294 609 OFFCURVE",
"298 609 CURVE SMOOTH",
"325 609 OFFCURVE",
"347 587 OFFCURVE"
);
},
{
closed = 1;
nodes = (
"197 471 CURVE SMOOTH",
"197 444 OFFCURVE",
"175 422 OFFCURVE",
"148 422 CURVE SMOOTH",
"144 422 OFFCURVE",
"141 423 OFFCURVE",
"137 424 CURVE",
"151 415 OFFCURVE",
"160 399 OFFCURVE",
"160 382 CURVE SMOOTH",
"160 355 OFFCURVE",
"138 333 OFFCURVE",
"111 333 CURVE SMOOTH",
"107 333 OFFCURVE",
"103 334 OFFCURVE",
"99 335 CURVE",
"113 326 OFFCURVE",
"122 310 OFFCURVE",
"122 293 CURVE SMOOTH",
"122 273 OFFCURVE",
"111 257 OFFCURVE",
"94 249 CURVE",
"111 241 OFFCURVE",
"122 224 OFFCURVE",
"122 204 CURVE SMOOTH",
"122 184 OFFCURVE",
"111 168 OFFCURVE",
"94 160 CURVE",
"111 152 OFFCURVE",
"122 136 OFFCURVE",
"122 116 CURVE SMOOTH",
"122 89 OFFCURVE",
"100 67 OFFCURVE",
"73 67 CURVE SMOOTH",
"69 67 OFFCURVE",
"65 67 OFFCURVE",
"61 68 CURVE",
"57 67 OFFCURVE",
"53 67 OFFCURVE",
"49 67 CURVE SMOOTH",
"22 67 OFFCURVE",
"0 89 OFFCURVE",
"0 116 CURVE SMOOTH",
"0 136 OFFCURVE",
"12 152 OFFCURVE",
"29 160 CURVE",
"12 168 OFFCURVE",
"0 184 OFFCURVE",
"0 204 CURVE SMOOTH",
"0 224 OFFCURVE",
"12 241 OFFCURVE",
"29 249 CURVE",
"12 257 OFFCURVE",
"0 273 OFFCURVE",
"0 293 CURVE SMOOTH",
"0 320 OFFCURVE",
"22 342 OFFCURVE",
"49 342 CURVE SMOOTH",
"53 342 OFFCURVE",
"56 342 OFFCURVE",
"60 341 CURVE",
"46 350 OFFCURVE",
"37 365 OFFCURVE",
"37 382 CURVE SMOOTH",
"37 409 OFFCURVE",
"59 431 OFFCURVE",
"86 431 CURVE SMOOTH",
"90 431 OFFCURVE",
"94 431 OFFCURVE",
"98 430 CURVE",
"84 439 OFFCURVE",
"75 454 OFFCURVE",
"75 471 CURVE SMOOTH",
"75 498 OFFCURVE",
"97 520 OFFCURVE",
"124 520 CURVE SMOOTH",
"128 520 OFFCURVE",
"132 519 OFFCURVE",
"136 518 CURVE",
"140 519 OFFCURVE",
"144 520 OFFCURVE",
"148 520 CURVE SMOOTH",
"175 520 OFFCURVE",
"197 498 OFFCURVE"
);
},
{
closed = 1;
nodes = (
"422 471 CURVE SMOOTH",
"422 451 OFFCURVE",
"411 435 OFFCURVE",
"394 427 CURVE",
"411 419 OFFCURVE",
"422 402 OFFCURVE",
"422 382 CURVE SMOOTH",
"422 362 OFFCURVE",
"411 346 OFFCURVE",
"394 338 CURVE",
"411 330 OFFCURVE",
"422 313 OFFCURVE",
"422 293 CURVE SMOOTH",
"422 266 OFFCURVE",
"400 244 OFFCURVE",
"373 244 CURVE SMOOTH",
"369 244 OFFCURVE",
"366 245 OFFCURVE",
"362 246 CURVE",
"376 237 OFFCURVE",
"385 221 OFFCURVE",
"385 204 CURVE SMOOTH",
"385 177 OFFCURVE",
"363 156 OFFCURVE",
"336 156 CURVE SMOOTH",
"332 156 OFFCURVE",
"328 156 OFFCURVE",
"324 157 CURVE",
"338 148 OFFCURVE",
"347 133 OFFCURVE",
"347 116 CURVE SMOOTH",
"347 99 OFFCURVE",
"338 83 OFFCURVE",
"324 74 CURVE",
"328 75 OFFCURVE",
"332 76 OFFCURVE",
"336 76 CURVE SMOOTH",
"363 76 OFFCURVE",
"385 54 OFFCURVE",
"385 27 CURVE SMOOTH",
"385 0 OFFCURVE",
"363 -22 OFFCURVE",
"336 -22 CURVE SMOOTH",
"332 -22 OFFCURVE",
"328 -22 OFFCURVE",
"324 -21 CURVE",
"320 -22 OFFCURVE",
"315 -22 OFFCURVE",
"311 -22 CURVE SMOOTH",
"292 -22 OFFCURVE",
"275 -11 OFFCURVE",
"267 5 CURVE",
"259 -11 OFFCURVE",
"242 -22 OFFCURVE",
"223 -22 CURVE SMOOTH",
"219 -22 OFFCURVE",
"215 -22 OFFCURVE",
"211 -21 CURVE",
"207 -22 OFFCURVE",
"203 -22 OFFCURVE",
"199 -22 CURVE SMOOTH",
"190 -22 OFFCURVE",
"181 -19 OFFCURVE",
"174 -15 CURVE",
"167 -19 OFFCURVE",
"157 -22 OFFCURVE",
"148 -22 CURVE SMOOTH",
"144 -22 OFFCURVE",
"140 -22 OFFCURVE",
"136 -21 CURVE",
"132 -22 OFFCURVE",
"128 -22 OFFCURVE",
"124 -22 CURVE SMOOTH",
"97 -22 OFFCURVE",
"75 0 OFFCURVE",
"75 27 CURVE SMOOTH",
"75 54 OFFCURVE",
"97 76 OFFCURVE",
"124 76 CURVE SMOOTH",
"128 76 OFFCURVE",
"132 75 OFFCURVE",
"136 74 CURVE",
"140 75 OFFCURVE",
"144 76 OFFCURVE",
"148 76 CURVE SMOOTH",
"157 76 OFFCURVE",
"167 73 OFFCURVE",
"174 69 CURVE",
"181 73 OFFCURVE",
"190 76 OFFCURVE",
"199 76 CURVE SMOOTH",
"203 76 OFFCURVE",
"207 75 OFFCURVE",
"211 74 CURVE",
"215 75 OFFCURVE",
"219 76 OFFCURVE",
"223 76 CURVE SMOOTH",
"242 76 OFFCURVE",
"259 64 OFFCURVE",
"267 48 CURVE",
"271 56 OFFCURVE",
"277 63 OFFCURVE",
"285 68 CURVE",
"281 67 OFFCURVE",
"278 67 OFFCURVE",
"274 67 CURVE SMOOTH",
"247 67 OFFCURVE",
"225 89 OFFCURVE",
"225 116 CURVE SMOOTH",
"225 143 OFFCURVE",
"247 164 OFFCURVE",
"274 164 CURVE SMOOTH",
"278 164 OFFCURVE",
"281 164 OFFCURVE",
"285 163 CURVE",
"277 168 OFFCURVE",
"271 175 OFFCURVE",
"267 183 CURVE",
"259 167 OFFCURVE",
"242 156 OFFCURVE",
"223 156 CURVE SMOOTH",
"219 156 OFFCURVE",
"215 156 OFFCURVE",
"211 157 CURVE",
"207 156 OFFCURVE",
"203 156 OFFCURVE",
"199 156 CURVE SMOOTH",
"172 156 OFFCURVE",
"150 177 OFFCURVE",
"150 204 CURVE SMOOTH",
"150 231 OFFCURVE",
"172 253 OFFCURVE",
"199 253 CURVE SMOOTH",
"203 253 OFFCURVE",
"207 253 OFFCURVE",
"211 252 CURVE",
"215 253 OFFCURVE",
"219 253 OFFCURVE",
"223 253 CURVE SMOOTH",
"242 253 OFFCURVE",
"259 242 OFFCURVE",
"267 226 CURVE",
"275 242 OFFCURVE",
"292 253 OFFCURVE",
"311 253 CURVE SMOOTH",
"315 253 OFFCURVE",
"319 253 OFFCURVE",
"323 252 CURVE",
"309 261 OFFCURVE",
"300 276 OFFCURVE",
"300 293 CURVE SMOOTH",
"300 313 OFFCURVE",
"312 330 OFFCURVE",
"329 338 CURVE",
"312 346 OFFCURVE",
"300 362 OFFCURVE",
"300 382 CURVE SMOOTH",
"300 402 OFFCURVE",
"312 419 OFFCURVE",
"329 427 CURVE",
"312 435 OFFCURVE",
"300 451 OFFCURVE",
"300 471 CURVE SMOOTH",
"300 498 OFFCURVE",
"322 520 OFFCURVE",
"349 520 CURVE SMOOTH",
"353 520 OFFCURVE",
"357 519 OFFCURVE",
"361 518 CURVE",
"365 519 OFFCURVE",
"369 520 OFFCURVE",
"373 520 CURVE SMOOTH",
"400 520 OFFCURVE",
"422 498 OFFCURVE"
);
}
);
width = 450;
}
);
unicode = 0051;
userData = {
com.fontlab.hintData = {
hhints = (
{
position = -22;
width = 98;
},
{
position = 67;
width = 97;
},
{
position = 156;
width = 97;
},
{
position = 411;
width = 20;
},
{
position = 422;
width = 98;
},
{
position = 511;
width = 98;
}
);
vhints = (
{
position = 0;
width = 122;
},
{
position = 37;
width = 123;
},
{
position = 75;
width = 122;
},
{
position = 150;
width = 197;
},
{
position = 225;
width = 122;
},
{
position = 300;
width = 122;
}
);
};
};
},
{
glyphname = R;
lastChange = "2017-08-06 04:52:05 +0000";
layers = (
{
layerId = "1F496C02-BC74-4D01-901C-8E7FF5CB5189";
paths = (
{
closed = 1;
nodes = (
"385 560 CURVE SMOOTH",
"385 543 OFFCURVE",
"376 528 OFFCURVE",
"362 519 CURVE",
"366 520 OFFCURVE",
"369 520 OFFCURVE",
"373 520 CURVE SMOOTH",
"400 520 OFFCURVE",
"422 498 OFFCURVE",
"422 471 CURVE SMOOTH",
"422 451 OFFCURVE",
"411 435 OFFCURVE",
"394 427 CURVE",
"411 419 OFFCURVE",
"422 402 OFFCURVE",
"422 382 CURVE SMOOTH",
"422 355 OFFCURVE",
"400 333 OFFCURVE",
"373 333 CURVE SMOOTH",
"369 333 OFFCURVE",
"365 334 OFFCURVE",
"361 335 CURVE",
"357 334 OFFCURVE",
"353 333 OFFCURVE",
"349 333 CURVE SMOOTH",
"322 333 OFFCURVE",
"300 355 OFFCURVE",
"300 382 CURVE SMOOTH",
"300 402 OFFCURVE",
"312 419 OFFCURVE",
"329 427 CURVE",
"312 435 OFFCURVE",
"300 451 OFFCURVE",
"300 471 CURVE SMOOTH",
"300 488 OFFCURVE",
"309 503 OFFCURVE",
"323 512 CURVE",
"319 511 OFFCURVE",
"315 511 OFFCURVE",
"311 511 CURVE SMOOTH",
"302 511 OFFCURVE",
"293 514 OFFCURVE",
"286 518 CURVE",
"279 514 OFFCURVE",
"270 511 OFFCURVE",
"261 511 CURVE SMOOTH",
"257 511 OFFCURVE",
"253 512 OFFCURVE",
"249 513 CURVE",
"245 512 OFFCURVE",
"240 511 OFFCURVE",
"236 511 CURVE SMOOTH",
"227 511 OFFCURVE",
"218 514 OFFCURVE",
"211 518 CURVE",
"204 514 OFFCURVE",
"195 511 OFFCURVE",
"186 511 CURVE SMOOTH",
"182 511 OFFCURVE",
"178 511 OFFCURVE",
"174 512 CURVE",
"188 503 OFFCURVE",
"197 488 OFFCURVE",
"197 471 CURVE SMOOTH",
"197 451 OFFCURVE",
"186 435 OFFCURVE",
"169 427 CURVE",
"186 419 OFFCURVE",
"197 402 OFFCURVE",
"197 382 CURVE SMOOTH",
"197 355 OFFCURVE",
"175 333 OFFCURVE",
"148 333 CURVE SMOOTH",
"144 333 OFFCURVE",
"141 334 OFFCURVE",
"137 335 CURVE",
"145 330 OFFCURVE",
"151 323 OFFCURVE",
"155 315 CURVE",
"163 331 OFFCURVE",
"180 342 OFFCURVE",
"199 342 CURVE SMOOTH",
"203 342 OFFCURVE",
"207 342 OFFCURVE",
"211 341 CURVE",
"215 342 OFFCURVE",
"219 342 OFFCURVE",
"223 342 CURVE SMOOTH",
"232 342 OFFCURVE",
"242 339 OFFCURVE",
"249 335 CURVE",
"256 339 OFFCURVE",
"265 342 OFFCURVE",
"274 342 CURVE SMOOTH",
"278 342 OFFCURVE",
"282 342 OFFCURVE",
"286 341 CURVE",
"290 342 OFFCURVE",
"294 342 OFFCURVE",
"298 342 CURVE SMOOTH",
"325 342 OFFCURVE",
"347 320 OFFCURVE",
"347 293 CURVE SMOOTH",
"347 266 OFFCURVE",
"325 244 OFFCURVE",
"298 244 CURVE SMOOTH",
"294 244 OFFCURVE",
"291 245 OFFCURVE",
"287 246 CURVE",
"301 237 OFFCURVE",
"310 221 OFFCURVE",
"310 204 CURVE SMOOTH",
"310 187 OFFCURVE",
"301 172 OFFCURVE",
"287 163 CURVE",
"291 164 OFFCURVE",
"294 164 OFFCURVE",
"298 164 CURVE SMOOTH",
"325 164 OFFCURVE",
"347 143 OFFCURVE",
"347 116 CURVE SMOOTH",
"347 99 OFFCURVE",
"338 83 OFFCURVE",
"324 74 CURVE",
"328 75 OFFCURVE",
"332 76 OFFCURVE",
"336 76 CURVE SMOOTH",
"363 76 OFFCURVE",
"385 54 OFFCURVE",
"385 27 CURVE SMOOTH",
"385 0 OFFCURVE",
"363 -22 OFFCURVE",
"336 -22 CURVE SMOOTH",
"332 -22 OFFCURVE",
"328 -22 OFFCURVE",
"324 -21 CURVE",
"320 -22 OFFCURVE",
"315 -22 OFFCURVE",
"311 -22 CURVE SMOOTH",
"284 -22 OFFCURVE",
"262 0 OFFCURVE",
"262 27 CURVE SMOOTH",
"262 44 OFFCURVE",
"271 59 OFFCURVE",
"285 68 CURVE",
"281 67 OFFCURVE",
"278 67 OFFCURVE",
"274 67 CURVE SMOOTH",
"247 67 OFFCURVE",
"225 89 OFFCURVE",
"225 116 CURVE SMOOTH",
"225 133 OFFCURVE",
"234 148 OFFCURVE",
"248 157 CURVE",
"244 156 OFFCURVE",
"240 156 OFFCURVE",
"236 156 CURVE SMOOTH",
"209 156 OFFCURVE",
"188 177 OFFCURVE",
"188 204 CURVE SMOOTH",
"188 221 OFFCURVE",
"196 237 OFFCURVE",
"210 246 CURVE",
"206 245 OFFCURVE",
"203 244 OFFCURVE",
"199 244 CURVE SMOOTH",
"180 244 OFFCURVE",
"163 256 OFFCURVE",
"155 272 CURVE",
"150 262 OFFCURVE",
"141 254 OFFCURVE",
"131 249 CURVE",
"148 241 OFFCURVE",
"160 224 OFFCURVE",
"160 204 CURVE SMOOTH",
"160 177 OFFCURVE",
"138 156 OFFCURVE",
"111 156 CURVE SMOOTH",
"107 156 OFFCURVE",
"103 156 OFFCURVE",
"99 157 CURVE",
"113 148 OFFCURVE",
"122 133 OFFCURVE",
"122 116 CURVE SMOOTH",
"122 96 OFFCURVE",
"111 79 OFFCURVE",
"94 71 CURVE",
"111 63 OFFCURVE",
"122 47 OFFCURVE",
"122 27 CURVE SMOOTH",
"122 0 OFFCURVE",
"100 -22 OFFCURVE",
"73 -22 CURVE SMOOTH",
"69 -22 OFFCURVE",
"65 -22 OFFCURVE",
"61 -21 CURVE",
"57 -22 OFFCURVE",
"53 -22 OFFCURVE",
"49 -22 CURVE SMOOTH",
"22 -22 OFFCURVE",
"0 0 OFFCURVE",
"0 27 CURVE SMOOTH",
"0 47 OFFCURVE",
"12 63 OFFCURVE",
"29 71 CURVE",
"12 79 OFFCURVE",
"0 96 OFFCURVE",
"0 116 CURVE SMOOTH",
"0 143 OFFCURVE",
"22 164 OFFCURVE",
"49 164 CURVE SMOOTH",
"53 164 OFFCURVE",
"56 164 OFFCURVE",
"60 163 CURVE",
"46 172 OFFCURVE",
"37 187 OFFCURVE",
"37 204 CURVE SMOOTH",
"37 224 OFFCURVE",
"49 241 OFFCURVE",
"66 249 CURVE",
"49 257 OFFCURVE",
"37 273 OFFCURVE",
"37 293 CURVE SMOOTH",
"37 320 OFFCURVE",
"59 342 OFFCURVE",
"86 342 CURVE SMOOTH",
"90 342 OFFCURVE",
"94 342 OFFCURVE",
"98 341 CURVE",
"84 350 OFFCURVE",
"75 365 OFFCURVE",
"75 382 CURVE SMOOTH",
"75 402 OFFCURVE",
"87 419 OFFCURVE",
"104 427 CURVE",
"87 435 OFFCURVE",
"75 451 OFFCURVE",
"75 471 CURVE SMOOTH",
"75 498 OFFCURVE",
"97 520 OFFCURVE",
"124 520 CURVE SMOOTH",
"128 520 OFFCURVE",
"131 520 OFFCURVE",
"135 519 CURVE",
"121 528 OFFCURVE",
"112 543 OFFCURVE",
"112 560 CURVE SMOOTH",
"112 587 OFFCURVE",
"134 609 OFFCURVE",
"161 609 CURVE SMOOTH",
"165 609 OFFCURVE",
"170 608 OFFCURVE",
"174 607 CURVE",
"178 608 OFFCURVE",
"182 609 OFFCURVE",
"186 609 CURVE SMOOTH",
"195 609 OFFCURVE",
"204 606 OFFCURVE",
"211 602 CURVE",
"218 606 OFFCURVE",
"227 609 OFFCURVE",
"236 609 CURVE SMOOTH",
"240 609 OFFCURVE",
"245 608 OFFCURVE",
"249 607 CURVE",
"253 608 OFFCURVE",
"257 609 OFFCURVE",
"261 609 CURVE SMOOTH",
"270 609 OFFCURVE",
"279 606 OFFCURVE",
"286 602 CURVE",
"293 606 OFFCURVE",
"302 609 OFFCURVE",
"311 609 CURVE SMOOTH",
"315 609 OFFCURVE",
"320 608 OFFCURVE",
"324 607 CURVE",
"328 608 OFFCURVE",
"332 609 OFFCURVE",
"336 609 CURVE SMOOTH",
"363 609 OFFCURVE",
"385 587 OFFCURVE"
);
}
);
width = 450;
}
);
unicode = 0052;
userData = {
com.fontlab.hintData = {
hhints = (
{
position = -22;
width = 98;
},
{
position = 244;
width = 98;
},
{
position = 511;
width = 98;
}
);
vhints = (
{
position = 0;
width = 122;
},
{
position = 37;
width = 123;
},
{
position = 75;
width = 122;
},
{
position = 112;
width = 273;
},
{
position = 188;
width = 122;
},
{
position = 225;
width = 122;
},
{
position = 262;
width = 123;
},
{
position = 300;
width = 122;
}
);
};
};
},
{
glyphname = S;
lastChange = "2017-08-06 04:52:05 +0000";
layers = (
{
layerId = "1F496C02-BC74-4D01-901C-8E7FF5CB5189";
paths = (
{
closed = 1;
nodes = (
"385 560 CURVE SMOOTH",
"385 543 OFFCURVE",
"376 528 OFFCURVE",
"362 519 CURVE",
"366 520 OFFCURVE",
"369 520 OFFCURVE",
"373 520 CURVE SMOOTH",
"400 520 OFFCURVE",
"422 498 OFFCURVE",
"422 471 CURVE SMOOTH",
"422 444 OFFCURVE",
"400 422 OFFCURVE",
"373 422 CURVE SMOOTH",
"369 422 OFFCURVE",
"365 423 OFFCURVE",
"361 424 CURVE",
"357 423 OFFCURVE",
"353 422 OFFCURVE",
"349 422 CURVE SMOOTH",
"322 422 OFFCURVE",
"300 444 OFFCURVE",
"300 471 CURVE SMOOTH",
"300 488 OFFCURVE",
"309 503 OFFCURVE",
"323 512 CURVE",
"319 511 OFFCURVE",
"315 511 OFFCURVE",
"311 511 CURVE SMOOTH",
"302 511 OFFCURVE",
"293 514 OFFCURVE",
"286 518 CURVE",
"279 514 OFFCURVE",
"270 511 OFFCURVE",
"261 511 CURVE SMOOTH",
"257 511 OFFCURVE",
"253 512 OFFCURVE",
"249 513 CURVE",
"245 512 OFFCURVE",
"240 511 OFFCURVE",
"236 511 CURVE SMOOTH",
"227 511 OFFCURVE",
"218 514 OFFCURVE",
"211 518 CURVE",
"204 514 OFFCURVE",
"195 511 OFFCURVE",
"186 511 CURVE SMOOTH",
"182 511 OFFCURVE",
"178 512 OFFCURVE",
"174 513 CURVE",
"170 512 OFFCURVE",
"165 511 OFFCURVE",
"161 511 CURVE SMOOTH",
"134 511 OFFCURVE",
"112 533 OFFCURVE",
"112 560 CURVE SMOOTH",
"112 587 OFFCURVE",
"134 609 OFFCURVE",
"161 609 CURVE SMOOTH",
"165 609 OFFCURVE",
"170 608 OFFCURVE",
"174 607 CURVE",
"178 608 OFFCURVE",
"182 609 OFFCURVE",
"186 609 CURVE SMOOTH",
"195 609 OFFCURVE",
"204 606 OFFCURVE",
"211 602 CURVE",
"218 606 OFFCURVE",
"227 609 OFFCURVE",
"236 609 CURVE SMOOTH",
"240 609 OFFCURVE",
"245 608 OFFCURVE",
"249 607 CURVE",
"253 608 OFFCURVE",
"257 609 OFFCURVE",
"261 609 CURVE SMOOTH",
"270 609 OFFCURVE",
"279 606 OFFCURVE",
"286 602 CURVE",
"293 606 OFFCURVE",
"302 609 OFFCURVE",
"311 609 CURVE SMOOTH",
"315 609 OFFCURVE",
"320 608 OFFCURVE",
"324 607 CURVE",
"328 608 OFFCURVE",
"332 609 OFFCURVE",
"336 609 CURVE SMOOTH",
"363 609 OFFCURVE",
"385 587 OFFCURVE"
);
},
{
closed = 1;
nodes = (
"160 471 CURVE SMOOTH",
"160 451 OFFCURVE",
"148 435 OFFCURVE",
"131 427 CURVE",
"148 419 OFFCURVE",
"160 402 OFFCURVE",
"160 382 CURVE SMOOTH",
"160 355 OFFCURVE",
"138 333 OFFCURVE",
"111 333 CURVE SMOOTH",
"107 333 OFFCURVE",
"103 334 OFFCURVE",
"99 335 CURVE",
"95 334 OFFCURVE",
"90 333 OFFCURVE",
"86 333 CURVE SMOOTH",
"59 333 OFFCURVE",
"37 355 OFFCURVE",
"37 382 CURVE SMOOTH",
"37 402 OFFCURVE",
"49 419 OFFCURVE",
"66 427 CURVE",
"49 435 OFFCURVE",
"37 451 OFFCURVE",
"37 471 CURVE SMOOTH",
"37 498 OFFCURVE",
"59 520 OFFCURVE",
"86 520 CURVE SMOOTH",
"90 520 OFFCURVE",
"95 519 OFFCURVE",
"99 518 CURVE",
"103 519 OFFCURVE",
"107 520 OFFCURVE",
"111 520 CURVE SMOOTH",
"138 520 OFFCURVE",
"160 498 OFFCURVE"
);
},
{
closed = 1;
nodes = (
"310 293 CURVE SMOOTH",
"310 266 OFFCURVE",
"288 244 OFFCURVE",
"261 244 CURVE SMOOTH",
"257 244 OFFCURVE",
"253 245 OFFCURVE",
"249 246 CURVE",
"245 245 OFFCURVE",
"240 244 OFFCURVE",
"236 244 CURVE SMOOTH",
"227 244 OFFCURVE",
"218 247 OFFCURVE",
"211 251 CURVE",
"204 247 OFFCURVE",
"195 244 OFFCURVE",
"186 244 CURVE SMOOTH",
"182 244 OFFCURVE",
"178 245 OFFCURVE",
"174 246 CURVE",
"170 245 OFFCURVE",
"165 244 OFFCURVE",
"161 244 CURVE SMOOTH",
"134 244 OFFCURVE",
"112 266 OFFCURVE",
"112 293 CURVE SMOOTH",
"112 320 OFFCURVE",
"134 342 OFFCURVE",
"161 342 CURVE SMOOTH",
"165 342 OFFCURVE",
"170 342 OFFCURVE",
"174 341 CURVE",
"178 342 OFFCURVE",
"182 342 OFFCURVE",
"186 342 CURVE SMOOTH",
"195 342 OFFCURVE",
"204 339 OFFCURVE",
"211 335 CURVE",
"218 339 OFFCURVE",
"227 342 OFFCURVE",
"236 342 CURVE SMOOTH",
"240 342 OFFCURVE",
"245 342 OFFCURVE",
"249 341 CURVE",
"253 342 OFFCURVE",
"257 342 OFFCURVE",
"261 342 CURVE SMOOTH",
"288 342 OFFCURVE",
"310 320 OFFCURVE"
);
},
{
closed = 1;
nodes = (
"385 204 CURVE SMOOTH",
"385 184 OFFCURVE",
"373 168 OFFCURVE",
"356 160 CURVE",
"373 152 OFFCURVE",
"385 136 OFFCURVE",
"385 116 CURVE SMOOTH",
"385 89 OFFCURVE",
"363 67 OFFCURVE",
"336 67 CURVE SMOOTH",
"332 67 OFFCURVE",
"328 67 OFFCURVE",
"324 68 CURVE",
"320 67 OFFCURVE",
"315 67 OFFCURVE",
"311 67 CURVE SMOOTH",
"284 67 OFFCURVE",
"262 89 OFFCURVE",
"262 116 CURVE SMOOTH",
"262 136 OFFCURVE",
"274 152 OFFCURVE",
"291 160 CURVE",
"274 168 OFFCURVE",
"262 184 OFFCURVE",
"262 204 CURVE SMOOTH",
"262 231 OFFCURVE",
"284 253 OFFCURVE",
"311 253 CURVE SMOOTH",
"315 253 OFFCURVE",
"320 253 OFFCURVE",
"324 252 CURVE",
"328 253 OFFCURVE",
"332 253 OFFCURVE",
"336 253 CURVE SMOOTH",
"363 253 OFFCURVE",
"385 231 OFFCURVE"
);
},
{
closed = 1;
nodes = (
"122 116 CURVE SMOOTH",
"122 99 OFFCURVE",
"113 83 OFFCURVE",
"99 74 CURVE",
"103 75 OFFCURVE",
"107 76 OFFCURVE",
"111 76 CURVE SMOOTH",
"120 76 OFFCURVE",
"129 73 OFFCURVE",
"136 69 CURVE",
"143 73 OFFCURVE",
"152 76 OFFCURVE",
"161 76 CURVE SMOOTH",
"165 76 OFFCURVE",
"170 75 OFFCURVE",
"174 74 CURVE",
"178 75 OFFCURVE",
"182 76 OFFCURVE",
"186 76 CURVE SMOOTH",
"195 76 OFFCURVE",
"204 73 OFFCURVE",
"211 69 CURVE",
"218 73 OFFCURVE",
"227 76 OFFCURVE",
"236 76 CURVE SMOOTH",
"240 76 OFFCURVE",
"245 75 OFFCURVE",
"249 74 CURVE",
"253 75 OFFCURVE",
"257 76 OFFCURVE",
"261 76 CURVE SMOOTH",
"288 76 OFFCURVE",
"310 54 OFFCURVE",
"310 27 CURVE SMOOTH",
"310 0 OFFCURVE",
"288 -22 OFFCURVE",
"261 -22 CURVE SMOOTH",
"257 -22 OFFCURVE",
"253 -22 OFFCURVE",
"249 -21 CURVE",
"245 -22 OFFCURVE",
"240 -22 OFFCURVE",
"236 -22 CURVE SMOOTH",
"227 -22 OFFCURVE",
"218 -19 OFFCURVE",
"211 -15 CURVE",
"204 -19 OFFCURVE",
"195 -22 OFFCURVE",
"186 -22 CURVE SMOOTH",
"182 -22 OFFCURVE",
"178 -22 OFFCURVE",
"174 -21 CURVE",
"170 -22 OFFCURVE",
"165 -22 OFFCURVE",
"161 -22 CURVE SMOOTH",
"152 -22 OFFCURVE",
"143 -19 OFFCURVE",
"136 -15 CURVE",
"129 -19 OFFCURVE",
"120 -22 OFFCURVE",
"111 -22 CURVE SMOOTH",
"107 -22 OFFCURVE",
"103 -22 OFFCURVE",
"99 -21 CURVE",
"95 -22 OFFCURVE",
"90 -22 OFFCURVE",
"86 -22 CURVE SMOOTH",
"59 -22 OFFCURVE",
"37 0 OFFCURVE",
"37 27 CURVE SMOOTH",
"37 44 OFFCURVE",
"46 59 OFFCURVE",
"60 68 CURVE",
"56 67 OFFCURVE",
"53 67 OFFCURVE",
"49 67 CURVE SMOOTH",
"22 67 OFFCURVE",
"0 89 OFFCURVE",
"0 116 CURVE SMOOTH",
"0 143 OFFCURVE",
"22 164 OFFCURVE",
"49 164 CURVE SMOOTH",
"53 164 OFFCURVE",
"57 164 OFFCURVE",
"61 163 CURVE",
"65 164 OFFCURVE",
"69 164 OFFCURVE",
"73 164 CURVE SMOOTH",
"100 164 OFFCURVE",
"122 143 OFFCURVE"
);
}
);
width = 450;
}
);
unicode = 0053;
userData = {
com.fontlab.hintData = {
hhints = (
{
position = -22;
width = 98;
},
{
position = 67;
width = 97;
},
{
position = 244;
width = 98;
},
{
position = 422;
width = 98;
},
{
position = 511;
width = 98;
}
);
vhints = (
{
position = 0;
width = 122;
},
{
position = 37;
width = 273;
},
{
position = 37;
width = 123;
},
{
position = 112;
width = 273;
},
{
position = 112;
width = 198;
},
{
position = 262;
width = 123;
},
{
position = 300;
width = 122;
}
);
};
};
},
{
glyphname = T;
lastChange = "2017-08-06 04:52:05 +0000";
layers = (
{
layerId = "1F496C02-BC74-4D01-901C-8E7FF5CB5189";
paths = (
{
closed = 1;
nodes = (
"422 560 CURVE SMOOTH",
"422 533 OFFCURVE",
"400 511 OFFCURVE",
"373 511 CURVE SMOOTH",
"369 511 OFFCURVE",
"365 512 OFFCURVE",
"361 513 CURVE",
"357 512 OFFCURVE",
"353 511 OFFCURVE",
"349 511 CURVE SMOOTH",
"340 511 OFFCURVE",
"331 514 OFFCURVE",
"324 518 CURVE",
"317 514 OFFCURVE",
"307 511 OFFCURVE",
"298 511 CURVE SMOOTH",
"294 511 OFFCURVE",
"290 512 OFFCURVE",
"286 513 CURVE",
"282 512 OFFCURVE",
"278 511 OFFCURVE",
"274 511 CURVE SMOOTH",
"265 511 OFFCURVE",
"256 514 OFFCURVE",
"249 518 CURVE",
"247 517 OFFCURVE",
"246 517 OFFCURVE",
"244 516 CURVE",
"261 508 OFFCURVE",
"272 491 OFFCURVE",
"272 471 CURVE SMOOTH",
"272 451 OFFCURVE",
"261 435 OFFCURVE",
"244 427 CURVE",
"261 419 OFFCURVE",
"272 402 OFFCURVE",
"272 382 CURVE SMOOTH",
"272 355 OFFCURVE",
"250 333 OFFCURVE",
"223 333 CURVE SMOOTH",
"219 333 OFFCURVE",
"216 334 OFFCURVE",
"212 335 CURVE",
"226 326 OFFCURVE",
"235 310 OFFCURVE",
"235 293 CURVE SMOOTH",
"235 273 OFFCURVE",
"223 257 OFFCURVE",
"206 249 CURVE",
"223 241 OFFCURVE",
"235 224 OFFCURVE",
"235 204 CURVE SMOOTH",
"235 177 OFFCURVE",
"213 156 OFFCURVE",
"186 156 CURVE SMOOTH",
"182 156 OFFCURVE",
"178 156 OFFCURVE",
"174 157 CURVE",
"188 148 OFFCURVE",
"197 133 OFFCURVE",
"197 116 CURVE SMOOTH",
"197 96 OFFCURVE",
"186 79 OFFCURVE",
"169 71 CURVE",
"186 63 OFFCURVE",
"197 47 OFFCURVE",
"197 27 CURVE SMOOTH",
"197 0 OFFCURVE",
"175 -22 OFFCURVE",
"148 -22 CURVE SMOOTH",
"144 -22 OFFCURVE",
"140 -22 OFFCURVE",
"136 -21 CURVE",
"132 -22 OFFCURVE",
"128 -22 OFFCURVE",
"124 -22 CURVE SMOOTH",
"97 -22 OFFCURVE",
"75 0 OFFCURVE",
"75 27 CURVE SMOOTH",
"75 47 OFFCURVE",
"87 63 OFFCURVE",
"104 71 CURVE",
"87 79 OFFCURVE",
"75 96 OFFCURVE",
"75 116 CURVE SMOOTH",
"75 143 OFFCURVE",
"97 164 OFFCURVE",
"124 164 CURVE SMOOTH",
"128 164 OFFCURVE",
"131 164 OFFCURVE",
"135 163 CURVE",
"121 172 OFFCURVE",
"112 187 OFFCURVE",
"112 204 CURVE SMOOTH",
"112 224 OFFCURVE",
"124 241 OFFCURVE",
"141 249 CURVE",
"124 257 OFFCURVE",
"112 273 OFFCURVE",
"112 293 CURVE SMOOTH",
"112 320 OFFCURVE",
"134 342 OFFCURVE",
"161 342 CURVE SMOOTH",
"165 342 OFFCURVE",
"169 342 OFFCURVE",
"173 341 CURVE",
"159 350 OFFCURVE",
"150 365 OFFCURVE",
"150 382 CURVE SMOOTH",
"150 402 OFFCURVE",
"162 419 OFFCURVE",
"179 427 CURVE",
"162 435 OFFCURVE",
"150 451 OFFCURVE",
"150 471 CURVE SMOOTH",
"150 491 OFFCURVE",
"162 508 OFFCURVE",
"179 516 CURVE",
"177 517 OFFCURVE",
"176 517 OFFCURVE",
"174 518 CURVE",
"167 514 OFFCURVE",
"157 511 OFFCURVE",
"148 511 CURVE SMOOTH",
"144 511 OFFCURVE",
"140 512 OFFCURVE",
"136 513 CURVE",
"132 512 OFFCURVE",
"128 511 OFFCURVE",
"124 511 CURVE SMOOTH",
"115 511 OFFCURVE",
"106 514 OFFCURVE",
"99 518 CURVE",
"92 514 OFFCURVE",
"82 511 OFFCURVE",
"73 511 CURVE SMOOTH",
"69 511 OFFCURVE",
"65 512 OFFCURVE",
"61 513 CURVE",
"57 512 OFFCURVE",
"53 511 OFFCURVE",
"49 511 CURVE SMOOTH",
"22 511 OFFCURVE",
"0 533 OFFCURVE",
"0 560 CURVE SMOOTH",
"0 587 OFFCURVE",
"22 609 OFFCURVE",
"49 609 CURVE SMOOTH",
"53 609 OFFCURVE",
"57 608 OFFCURVE",
"61 607 CURVE",
"65 608 OFFCURVE",
"69 609 OFFCURVE",
"73 609 CURVE SMOOTH",
"82 609 OFFCURVE",
"92 606 OFFCURVE",
"99 602 CURVE",
"106 606 OFFCURVE",
"115 609 OFFCURVE",
"124 609 CURVE SMOOTH",
"128 609 OFFCURVE",
"132 608 OFFCURVE",
"136 607 CURVE",
"140 608 OFFCURVE",
"144 609 OFFCURVE",
"148 609 CURVE SMOOTH",
"157 609 OFFCURVE",
"167 606 OFFCURVE",
"174 602 CURVE",
"181 606 OFFCURVE",
"190 609 OFFCURVE",
"199 609 CURVE SMOOTH",
"203 609 OFFCURVE",
"207 608 OFFCURVE",
"211 607 CURVE",
"215 608 OFFCURVE",
"219 609 OFFCURVE",
"223 609 CURVE SMOOTH",
"232 609 OFFCURVE",
"242 606 OFFCURVE",
"249 602 CURVE",
"256 606 OFFCURVE",
"265 609 OFFCURVE",
"274 609 CURVE SMOOTH",
"278 609 OFFCURVE",
"282 608 OFFCURVE",
"286 607 CURVE",
"290 608 OFFCURVE",
"294 609 OFFCURVE",
"298 609 CURVE SMOOTH",
"307 609 OFFCURVE",
"317 606 OFFCURVE",
"324 602 CURVE",
"331 606 OFFCURVE",
"340 609 OFFCURVE",
"349 609 CURVE SMOOTH",
"353 609 OFFCURVE",
"357 608 OFFCURVE",
"361 607 CURVE",
"365 608 OFFCURVE",
"369 609 OFFCURVE",
"373 609 CURVE SMOOTH",
"400 609 OFFCURVE",
"422 587 OFFCURVE"
);
}
);
width = 450;
}
);
unicode = 0054;
userData = {
com.fontlab.hintData = {
hhints = (
{
position = -22;
width = 21;
},
{
position = -22;
width = 21;
},
{
position = 511;
width = 98;
}
);
vhints = (
{
position = 75;
width = 122;
},
{
position = 112;
width = 123;
},
{
position = 150;
width = 122;
}
);
};
};
},
{
glyphname = U;
lastChange = "2017-08-06 04:52:05 +0000";
layers = (
{
layerId = "1F496C02-BC74-4D01-901C-8E7FF5CB5189";
paths = (
{
closed = 1;
nodes = (
"197 560 CURVE SMOOTH",
"197 540 OFFCURVE",
"186 524 OFFCURVE",
"169 516 CURVE",
"186 508 OFFCURVE",
"197 491 OFFCURVE",
"197 471 CURVE SMOOTH",
"197 444 OFFCURVE",
"175 422 OFFCURVE",
"148 422 CURVE SMOOTH",
"144 422 OFFCURVE",
"141 423 OFFCURVE",
"137 424 CURVE",
"151 415 OFFCURVE",
"160 399 OFFCURVE",
"160 382 CURVE SMOOTH",
"160 362 OFFCURVE",
"148 346 OFFCURVE",
"131 338 CURVE",
"148 330 OFFCURVE",
"160 313 OFFCURVE",
"160 293 CURVE SMOOTH",
"160 266 OFFCURVE",
"138 244 OFFCURVE",
"111 244 CURVE SMOOTH",
"107 244 OFFCURVE",
"103 245 OFFCURVE",
"99 246 CURVE",
"113 237 OFFCURVE",
"122 221 OFFCURVE",
"122 204 CURVE SMOOTH",
"122 184 OFFCURVE",
"111 168 OFFCURVE",
"94 160 CURVE",
"111 152 OFFCURVE",
"122 136 OFFCURVE",
"122 116 CURVE SMOOTH",
"122 99 OFFCURVE",
"113 83 OFFCURVE",
"99 74 CURVE",
"103 75 OFFCURVE",
"107 76 OFFCURVE",
"111 76 CURVE SMOOTH",
"120 76 OFFCURVE",
"129 73 OFFCURVE",
"136 69 CURVE",
"143 73 OFFCURVE",
"152 76 OFFCURVE",
"161 76 CURVE SMOOTH",
"165 76 OFFCURVE",
"170 75 OFFCURVE",
"174 74 CURVE",
"178 75 OFFCURVE",
"182 76 OFFCURVE",
"186 76 CURVE SMOOTH",
"195 76 OFFCURVE",
"204 73 OFFCURVE",
"211 69 CURVE",
"218 73 OFFCURVE",
"227 76 OFFCURVE",
"236 76 CURVE SMOOTH",
"240 76 OFFCURVE",
"244 75 OFFCURVE",
"248 74 CURVE",
"234 83 OFFCURVE",
"225 99 OFFCURVE",
"225 116 CURVE SMOOTH",
"225 136 OFFCURVE",
"237 152 OFFCURVE",
"254 160 CURVE",
"237 168 OFFCURVE",
"225 184 OFFCURVE",
"225 204 CURVE SMOOTH",
"225 231 OFFCURVE",
"247 253 OFFCURVE",
"274 253 CURVE SMOOTH",
"278 253 OFFCURVE",
"281 253 OFFCURVE",
"285 252 CURVE",
"271 261 OFFCURVE",
"262 276 OFFCURVE",
"262 293 CURVE SMOOTH",
"262 313 OFFCURVE",
"274 330 OFFCURVE",
"291 338 CURVE",
"274 346 OFFCURVE",
"262 362 OFFCURVE",
"262 382 CURVE SMOOTH",
"262 409 OFFCURVE",
"284 431 OFFCURVE",
"311 431 CURVE SMOOTH",
"315 431 OFFCURVE",
"319 431 OFFCURVE",
"323 430 CURVE",
"309 439 OFFCURVE",
"300 454 OFFCURVE",
"300 471 CURVE SMOOTH",
"300 491 OFFCURVE",
"312 508 OFFCURVE",
"329 516 CURVE",
"312 524 OFFCURVE",
"300 540 OFFCURVE",
"300 560 CURVE SMOOTH",
"300 587 OFFCURVE",
"322 609 OFFCURVE",
"349 609 CURVE SMOOTH",
"353 609 OFFCURVE",
"357 608 OFFCURVE",
"361 607 CURVE",
"365 608 OFFCURVE",
"369 609 OFFCURVE",
"373 609 CURVE SMOOTH",
"400 609 OFFCURVE",
"422 587 OFFCURVE",
"422 560 CURVE SMOOTH",
"422 540 OFFCURVE",
"411 524 OFFCURVE",
"394 516 CURVE",
"411 508 OFFCURVE",
"422 491 OFFCURVE",
"422 471 CURVE SMOOTH",
"422 444 OFFCURVE",
"400 422 OFFCURVE",
"373 422 CURVE SMOOTH",
"369 422 OFFCURVE",
"366 423 OFFCURVE",
"362 424 CURVE",
"376 415 OFFCURVE",
"385 399 OFFCURVE",
"385 382 CURVE SMOOTH",
"385 362 OFFCURVE",
"373 346 OFFCURVE",
"356 338 CURVE",
"373 330 OFFCURVE",
"385 313 OFFCURVE",
"385 293 CURVE SMOOTH",
"385 266 OFFCURVE",
"363 244 OFFCURVE",
"336 244 CURVE SMOOTH",
"332 244 OFFCURVE",
"328 245 OFFCURVE",
"324 246 CURVE",
"338 237 OFFCURVE",
"347 221 OFFCURVE",
"347 204 CURVE SMOOTH",
"347 184 OFFCURVE",
"336 168 OFFCURVE",
"319 160 CURVE",
"336 152 OFFCURVE",
"347 136 OFFCURVE",
"347 116 CURVE SMOOTH",
"347 89 OFFCURVE",
"325 67 OFFCURVE",
"298 67 CURVE SMOOTH",
"294 67 OFFCURVE",
"291 67 OFFCURVE",
"287 68 CURVE",
"301 59 OFFCURVE",
"310 44 OFFCURVE",
"310 27 CURVE SMOOTH",
"310 0 OFFCURVE",
"288 -22 OFFCURVE",
"261 -22 CURVE SMOOTH",
"257 -22 OFFCURVE",
"253 -22 OFFCURVE",
"249 -21 CURVE",
"245 -22 OFFCURVE",
"240 -22 OFFCURVE",
"236 -22 CURVE SMOOTH",
"227 -22 OFFCURVE",
"218 -19 OFFCURVE",
"211 -15 CURVE",
"204 -19 OFFCURVE",
"195 -22 OFFCURVE",
"186 -22 CURVE SMOOTH",
"182 -22 OFFCURVE",
"178 -22 OFFCURVE",
"174 -21 CURVE",
"170 -22 OFFCURVE",
"165 -22 OFFCURVE",
"161 -22 CURVE SMOOTH",
"152 -22 OFFCURVE",
"143 -19 OFFCURVE",
"136 -15 CURVE",
"129 -19 OFFCURVE",
"120 -22 OFFCURVE",
"111 -22 CURVE SMOOTH",
"107 -22 OFFCURVE",
"103 -22 OFFCURVE",
"99 -21 CURVE",
"95 -22 OFFCURVE",
"90 -22 OFFCURVE",
"86 -22 CURVE SMOOTH",
"59 -22 OFFCURVE",
"37 0 OFFCURVE",
"37 27 CURVE SMOOTH",
"37 44 OFFCURVE",
"46 59 OFFCURVE",
"60 68 CURVE",
"56 67 OFFCURVE",
"53 67 OFFCURVE",
"49 67 CURVE SMOOTH",
"22 67 OFFCURVE",
"0 89 OFFCURVE",
"0 116 CURVE SMOOTH",
"0 136 OFFCURVE",
"12 152 OFFCURVE",
"29 160 CURVE",
"12 168 OFFCURVE",
"0 184 OFFCURVE",
"0 204 CURVE SMOOTH",
"0 231 OFFCURVE",
"22 253 OFFCURVE",
"49 253 CURVE SMOOTH",
"53 253 OFFCURVE",
"56 253 OFFCURVE",
"60 252 CURVE",
"46 261 OFFCURVE",
"37 276 OFFCURVE",
"37 293 CURVE SMOOTH",
"37 313 OFFCURVE",
"49 330 OFFCURVE",
"66 338 CURVE",
"49 346 OFFCURVE",
"37 362 OFFCURVE",
"37 382 CURVE SMOOTH",
"37 409 OFFCURVE",
"59 431 OFFCURVE",
"86 431 CURVE SMOOTH",
"90 431 OFFCURVE",
"94 431 OFFCURVE",
"98 430 CURVE",
"84 439 OFFCURVE",
"75 454 OFFCURVE",
"75 471 CURVE SMOOTH",
"75 491 OFFCURVE",
"87 508 OFFCURVE",
"104 516 CURVE",
"87 524 OFFCURVE",
"75 540 OFFCURVE",
"75 560 CURVE SMOOTH",
"75 587 OFFCURVE",
"97 609 OFFCURVE",
"124 609 CURVE SMOOTH",
"128 609 OFFCURVE",
"132 608 OFFCURVE",
"136 607 CURVE",
"140 608 OFFCURVE",
"144 609 OFFCURVE",
"148 609 CURVE SMOOTH",
"175 609 OFFCURVE",
"197 587 OFFCURVE"
);
}
);
width = 450;
}
);
unicode = 0055;
userData = {
com.fontlab.hintData = {
hhints = (
{
position = -22;
width = 98;
},
{
position = 411;
width = 20;
},
{
position = 589;
width = 20;
}
);
vhints = (
{
position = 0;
width = 122;
},
{
position = 37;
width = 273;
},
{
position = 37;
width = 123;
},
{
position = 75;
width = 122;
},
{
position = 225;
width = 122;
},
{
position = 262;
width = 123;
},
{
position = 300;
width = 122;
}
);
};
};
},
{
glyphname = V;
lastChange = "2017-08-06 04:52:05 +0000";
layers = (
{
layerId = "1F496C02-BC74-4D01-901C-8E7FF5CB5189";
paths = (
{
closed = 1;
nodes = (
"160 560 CURVE SMOOTH",
"160 540 OFFCURVE",
"148 524 OFFCURVE",
"131 516 CURVE",
"148 508 OFFCURVE",
"160 491 OFFCURVE",
"160 471 CURVE SMOOTH",
"160 451 OFFCURVE",
"148 435 OFFCURVE",
"131 427 CURVE",
"148 419 OFFCURVE",
"160 402 OFFCURVE",
"160 382 CURVE SMOOTH",
"160 362 OFFCURVE",
"148 346 OFFCURVE",
"131 338 CURVE",
"148 330 OFFCURVE",
"160 313 OFFCURVE",
"160 293 CURVE SMOOTH",
"160 273 OFFCURVE",
"148 257 OFFCURVE",
"131 249 CURVE",
"141 244 OFFCURVE",
"150 236 OFFCURVE",
"155 226 CURVE",
"163 242 OFFCURVE",
"180 253 OFFCURVE",
"199 253 CURVE SMOOTH",
"203 253 OFFCURVE",
"206 253 OFFCURVE",
"210 252 CURVE",
"196 261 OFFCURVE",
"188 276 OFFCURVE",
"188 293 CURVE SMOOTH",
"188 320 OFFCURVE",
"209 342 OFFCURVE",
"236 342 CURVE SMOOTH",
"240 342 OFFCURVE",
"244 342 OFFCURVE",
"248 341 CURVE",
"234 350 OFFCURVE",
"225 365 OFFCURVE",
"225 382 CURVE SMOOTH",
"225 409 OFFCURVE",
"247 431 OFFCURVE",
"274 431 CURVE SMOOTH",
"278 431 OFFCURVE",
"281 431 OFFCURVE",
"285 430 CURVE",
"271 439 OFFCURVE",
"262 454 OFFCURVE",
"262 471 CURVE SMOOTH",
"262 498 OFFCURVE",
"284 520 OFFCURVE",
"311 520 CURVE SMOOTH",
"315 520 OFFCURVE",
"319 520 OFFCURVE",
"323 519 CURVE",
"309 528 OFFCURVE",
"300 543 OFFCURVE",
"300 560 CURVE SMOOTH",
"300 587 OFFCURVE",
"322 609 OFFCURVE",
"349 609 CURVE SMOOTH",
"353 609 OFFCURVE",
"357 608 OFFCURVE",
"361 607 CURVE",
"365 608 OFFCURVE",
"369 609 OFFCURVE",
"373 609 CURVE SMOOTH",
"400 609 OFFCURVE",
"422 587 OFFCURVE",
"422 560 CURVE SMOOTH",
"422 533 OFFCURVE",
"400 511 OFFCURVE",
"373 511 CURVE SMOOTH",
"369 511 OFFCURVE",
"366 511 OFFCURVE",
"362 512 CURVE",
"376 503 OFFCURVE",
"385 488 OFFCURVE",
"385 471 CURVE SMOOTH",
"385 444 OFFCURVE",
"363 422 OFFCURVE",
"336 422 CURVE SMOOTH",
"332 422 OFFCURVE",
"328 423 OFFCURVE",
"324 424 CURVE",
"338 415 OFFCURVE",
"347 399 OFFCURVE",
"347 382 CURVE SMOOTH",
"347 355 OFFCURVE",
"325 333 OFFCURVE",
"298 333 CURVE SMOOTH",
"294 333 OFFCURVE",
"291 334 OFFCURVE",
"287 335 CURVE",
"301 326 OFFCURVE",
"310 310 OFFCURVE",
"310 293 CURVE SMOOTH",
"310 266 OFFCURVE",
"288 244 OFFCURVE",
"261 244 CURVE SMOOTH",
"257 244 OFFCURVE",
"253 245 OFFCURVE",
"249 246 CURVE",
"263 237 OFFCURVE",
"272 221 OFFCURVE",
"272 204 CURVE SMOOTH",
"272 177 OFFCURVE",
"250 156 OFFCURVE",
"223 156 CURVE SMOOTH",
"219 156 OFFCURVE",
"216 156 OFFCURVE",
"212 157 CURVE",
"226 148 OFFCURVE",
"235 133 OFFCURVE",
"235 116 CURVE SMOOTH",
"235 89 OFFCURVE",
"213 67 OFFCURVE",
"186 67 CURVE SMOOTH",
"182 67 OFFCURVE",
"178 67 OFFCURVE",
"174 68 CURVE",
"170 67 OFFCURVE",
"165 67 OFFCURVE",
"161 67 CURVE SMOOTH",
"152 67 OFFCURVE",
"143 70 OFFCURVE",
"136 74 CURVE",
"134 73 OFFCURVE",
"133 72 OFFCURVE",
"131 71 CURVE",
"148 63 OFFCURVE",
"160 47 OFFCURVE",
"160 27 CURVE SMOOTH",
"160 0 OFFCURVE",
"138 -22 OFFCURVE",
"111 -22 CURVE SMOOTH",
"107 -22 OFFCURVE",
"103 -22 OFFCURVE",
"99 -21 CURVE",
"95 -22 OFFCURVE",
"90 -22 OFFCURVE",
"86 -22 CURVE SMOOTH",
"59 -22 OFFCURVE",
"37 0 OFFCURVE",
"37 27 CURVE SMOOTH",
"37 47 OFFCURVE",
"49 63 OFFCURVE",
"66 71 CURVE",
"49 79 OFFCURVE",
"37 96 OFFCURVE",
"37 116 CURVE SMOOTH",
"37 136 OFFCURVE",
"49 152 OFFCURVE",
"66 160 CURVE",
"49 168 OFFCURVE",
"37 184 OFFCURVE",
"37 204 CURVE SMOOTH",
"37 224 OFFCURVE",
"49 241 OFFCURVE",
"66 249 CURVE",
"49 257 OFFCURVE",
"37 273 OFFCURVE",
"37 293 CURVE SMOOTH",
"37 313 OFFCURVE",
"49 330 OFFCURVE",
"66 338 CURVE",
"49 346 OFFCURVE",
"37 362 OFFCURVE",
"37 382 CURVE SMOOTH",
"37 402 OFFCURVE",
"49 419 OFFCURVE",
"66 427 CURVE",
"49 435 OFFCURVE",
"37 451 OFFCURVE",
"37 471 CURVE SMOOTH",
"37 491 OFFCURVE",
"49 508 OFFCURVE",
"66 516 CURVE",
"49 524 OFFCURVE",
"37 540 OFFCURVE",
"37 560 CURVE SMOOTH",
"37 587 OFFCURVE",
"59 609 OFFCURVE",
"86 609 CURVE SMOOTH",
"90 609 OFFCURVE",
"95 608 OFFCURVE",
"99 607 CURVE",
"103 608 OFFCURVE",
"107 609 OFFCURVE",
"111 609 CURVE SMOOTH",
"138 609 OFFCURVE",
"160 587 OFFCURVE"
);
},
{
closed = 1;
nodes = (
"155 183 CURVE",
"150 173 OFFCURVE",
"141 165 OFFCURVE",
"131 160 CURVE",
"133 159 OFFCURVE",
"134 158 OFFCURVE",
"136 157 CURVE",
"143 161 OFFCURVE",
"152 164 OFFCURVE",
"161 164 CURVE SMOOTH",
"165 164 OFFCURVE",
"169 164 OFFCURVE",
"173 163 CURVE",
"165 168 OFFCURVE",
"159 175 OFFCURVE"
);
}
);
width = 450;
}
);
unicode = 0056;
userData = {
com.fontlab.hintData = {
hhints = (
{
position = -22;
width = 21;
},
{
position = -22;
width = 21;
},
{
position = 67;
width = 97;
},
{
position = 411;
width = 20;
},
{
position = 511;
width = 98;
}
);
vhints = (
{
position = 37;
width = 123;
},
{
position = 188;
width = 122;
},
{
position = 225;
width = 122;
},
{
position = 262;
width = 123;
},
{
position = 300;
width = 122;
}
);
};
};
},
{
glyphname = W;
lastChange = "2017-08-06 04:52:05 +0000";
layers = (
{
layerId = "1F496C02-BC74-4D01-901C-8E7FF5CB5189";
paths = (
{
closed = 1;
nodes = (
"197 560 CURVE SMOOTH",
"197 540 OFFCURVE",
"186 524 OFFCURVE",
"169 516 CURVE",
"186 508 OFFCURVE",
"197 491 OFFCURVE",
"197 471 CURVE SMOOTH",
"197 444 OFFCURVE",
"175 422 OFFCURVE",
"148 422 CURVE SMOOTH",
"144 422 OFFCURVE",
"141 423 OFFCURVE",
"137 424 CURVE",
"151 415 OFFCURVE",
"160 399 OFFCURVE",
"160 382 CURVE SMOOTH",
"160 362 OFFCURVE",
"148 346 OFFCURVE",
"131 338 CURVE",
"148 330 OFFCURVE",
"160 313 OFFCURVE",
"160 293 CURVE SMOOTH",
"160 273 OFFCURVE",
"148 257 OFFCURVE",
"131 249 CURVE",
"133 248 OFFCURVE",
"134 247 OFFCURVE",
"136 246 CURVE",
"143 250 OFFCURVE",
"152 253 OFFCURVE",
"161 253 CURVE SMOOTH",
"165 253 OFFCURVE",
"170 253 OFFCURVE",
"174 252 CURVE",
"178 253 OFFCURVE",
"182 253 OFFCURVE",
"186 253 CURVE SMOOTH",
"195 253 OFFCURVE",
"204 250 OFFCURVE",
"211 246 CURVE",
"218 250 OFFCURVE",
"227 253 OFFCURVE",
"236 253 CURVE SMOOTH",
"240 253 OFFCURVE",
"245 253 OFFCURVE",
"249 252 CURVE",
"253 253 OFFCURVE",
"257 253 OFFCURVE",
"261 253 CURVE SMOOTH",
"270 253 OFFCURVE",
"279 250 OFFCURVE",
"286 246 CURVE",
"288 247 OFFCURVE",
"289 248 OFFCURVE",
"291 249 CURVE",
"274 257 OFFCURVE",
"262 273 OFFCURVE",
"262 293 CURVE SMOOTH",
"262 313 OFFCURVE",
"274 330 OFFCURVE",
"291 338 CURVE",
"274 346 OFFCURVE",
"262 362 OFFCURVE",
"262 382 CURVE SMOOTH",
"262 409 OFFCURVE",
"284 431 OFFCURVE",
"311 431 CURVE SMOOTH",
"315 431 OFFCURVE",
"319 431 OFFCURVE",
"323 430 CURVE",
"309 439 OFFCURVE",
"300 454 OFFCURVE",
"300 471 CURVE SMOOTH",
"300 491 OFFCURVE",
"312 508 OFFCURVE",
"329 516 CURVE",
"312 524 OFFCURVE",
"300 540 OFFCURVE",
"300 560 CURVE SMOOTH",
"300 587 OFFCURVE",
"322 609 OFFCURVE",
"349 609 CURVE SMOOTH",
"353 609 OFFCURVE",
"357 608 OFFCURVE",
"361 607 CURVE",
"365 608 OFFCURVE",
"369 609 OFFCURVE",
"373 609 CURVE SMOOTH",
"400 609 OFFCURVE",
"422 587 OFFCURVE",
"422 560 CURVE SMOOTH",
"422 540 OFFCURVE",
"411 524 OFFCURVE",
"394 516 CURVE",
"411 508 OFFCURVE",
"422 491 OFFCURVE",
"422 471 CURVE SMOOTH",
"422 444 OFFCURVE",
"400 422 OFFCURVE",
"373 422 CURVE SMOOTH",
"369 422 OFFCURVE",
"366 423 OFFCURVE",
"362 424 CURVE",
"376 415 OFFCURVE",
"385 399 OFFCURVE",
"385 382 CURVE SMOOTH",
"385 362 OFFCURVE",
"373 346 OFFCURVE",
"356 338 CURVE",
"373 330 OFFCURVE",
"385 313 OFFCURVE",
"385 293 CURVE SMOOTH",
"385 273 OFFCURVE",
"373 257 OFFCURVE",
"356 249 CURVE",
"373 241 OFFCURVE",
"385 224 OFFCURVE",
"385 204 CURVE SMOOTH",
"385 177 OFFCURVE",
"363 156 OFFCURVE",
"336 156 CURVE SMOOTH",
"332 156 OFFCURVE",
"328 156 OFFCURVE",
"324 157 CURVE",
"338 148 OFFCURVE",
"347 133 OFFCURVE",
"347 116 CURVE SMOOTH",
"347 96 OFFCURVE",
"336 79 OFFCURVE",
"319 71 CURVE",
"336 63 OFFCURVE",
"347 47 OFFCURVE",
"347 27 CURVE SMOOTH",
"347 0 OFFCURVE",
"325 -22 OFFCURVE",
"298 -22 CURVE SMOOTH",
"294 -22 OFFCURVE",
"290 -22 OFFCURVE",
"286 -21 CURVE",
"282 -22 OFFCURVE",
"278 -22 OFFCURVE",
"274 -22 CURVE SMOOTH",
"247 -22 OFFCURVE",
"225 0 OFFCURVE",
"225 27 CURVE SMOOTH",
"225 47 OFFCURVE",
"237 63 OFFCURVE",
"254 71 CURVE",
"237 79 OFFCURVE",
"225 96 OFFCURVE",
"225 116 CURVE SMOOTH",
"225 133 OFFCURVE",
"234 148 OFFCURVE",
"248 157 CURVE",
"244 156 OFFCURVE",
"240 156 OFFCURVE",
"236 156 CURVE SMOOTH",
"227 156 OFFCURVE",
"218 159 OFFCURVE",
"211 163 CURVE",
"204 159 OFFCURVE",
"195 156 OFFCURVE",
"186 156 CURVE SMOOTH",
"182 156 OFFCURVE",
"178 156 OFFCURVE",
"174 157 CURVE",
"188 148 OFFCURVE",
"197 133 OFFCURVE",
"197 116 CURVE SMOOTH",
"197 89 OFFCURVE",
"175 67 OFFCURVE",
"148 67 CURVE SMOOTH",
"144 67 OFFCURVE",
"140 67 OFFCURVE",
"136 68 CURVE",
"132 67 OFFCURVE",
"128 67 OFFCURVE",
"124 67 CURVE SMOOTH",
"115 67 OFFCURVE",
"106 70 OFFCURVE",
"99 74 CURVE",
"97 73 OFFCURVE",
"96 72 OFFCURVE",
"94 71 CURVE",
"111 63 OFFCURVE",
"122 47 OFFCURVE",
"122 27 CURVE SMOOTH",
"122 0 OFFCURVE",
"100 -22 OFFCURVE",
"73 -22 CURVE SMOOTH",
"69 -22 OFFCURVE",
"65 -22 OFFCURVE",
"61 -21 CURVE",
"57 -22 OFFCURVE",
"53 -22 OFFCURVE",
"49 -22 CURVE SMOOTH",
"22 -22 OFFCURVE",
"0 0 OFFCURVE",
"0 27 CURVE SMOOTH",
"0 47 OFFCURVE",
"12 63 OFFCURVE",
"29 71 CURVE",
"12 79 OFFCURVE",
"0 96 OFFCURVE",
"0 116 CURVE SMOOTH",
"0 143 OFFCURVE",
"22 164 OFFCURVE",
"49 164 CURVE SMOOTH",
"53 164 OFFCURVE",
"56 164 OFFCURVE",
"60 163 CURVE",
"46 172 OFFCURVE",
"37 187 OFFCURVE",
"37 204 CURVE SMOOTH",
"37 224 OFFCURVE",
"49 241 OFFCURVE",
"66 249 CURVE",
"49 257 OFFCURVE",
"37 273 OFFCURVE",
"37 293 CURVE SMOOTH",
"37 313 OFFCURVE",
"49 330 OFFCURVE",
"66 338 CURVE",
"49 346 OFFCURVE",
"37 362 OFFCURVE",
"37 382 CURVE SMOOTH",
"37 409 OFFCURVE",
"59 431 OFFCURVE",
"86 431 CURVE SMOOTH",
"90 431 OFFCURVE",
"94 431 OFFCURVE",
"98 430 CURVE",
"84 439 OFFCURVE",
"75 454 OFFCURVE",
"75 471 CURVE SMOOTH",
"75 491 OFFCURVE",
"87 508 OFFCURVE",
"104 516 CURVE",
"87 524 OFFCURVE",
"75 540 OFFCURVE",
"75 560 CURVE SMOOTH",
"75 587 OFFCURVE",
"97 609 OFFCURVE",
"124 609 CURVE SMOOTH",
"128 609 OFFCURVE",
"132 608 OFFCURVE",
"136 607 CURVE",
"140 608 OFFCURVE",
"144 609 OFFCURVE",
"148 609 CURVE SMOOTH",
"175 609 OFFCURVE",
"197 587 OFFCURVE"
);
}
);
width = 450;
}
);
unicode = 0057;
userData = {
com.fontlab.hintData = {
hhints = (
{
position = -22;
width = 21;
},
{
position = -22;
width = 21;
},
{
position = 156;
width = 97;
},
{
position = 411;
width = 20;
},
{
position = 589;
width = 20;
}
);
vhints = (
{
position = 0;
width = 197;
},
{
position = 0;
width = 122;
},
{
position = 37;
width = 123;
},
{
position = 75;
width = 122;
},
{
position = 225;
width = 122;
},
{
position = 262;
width = 123;
},
{
position = 300;
width = 122;
}
);
};
};
},
{
glyphname = X;
lastChange = "2017-08-06 04:52:05 +0000";
layers = (
{
layerId = "1F496C02-BC74-4D01-901C-8E7FF5CB5189";
paths = (
{
closed = 1;
nodes = (
"160 560 CURVE SMOOTH",
"160 543 OFFCURVE",
"151 528 OFFCURVE",
"137 519 CURVE",
"141 520 OFFCURVE",
"144 520 OFFCURVE",
"148 520 CURVE SMOOTH",
"175 520 OFFCURVE",
"197 498 OFFCURVE",
"197 471 CURVE SMOOTH",
"197 454 OFFCURVE",
"188 439 OFFCURVE",
"174 430 CURVE",
"178 431 OFFCURVE",
"182 431 OFFCURVE",
"186 431 CURVE SMOOTH",
"205 431 OFFCURVE",
"222 419 OFFCURVE",
"230 403 CURVE",
"238 419 OFFCURVE",
"255 431 OFFCURVE",
"274 431 CURVE SMOOTH",
"278 431 OFFCURVE",
"281 431 OFFCURVE",
"285 430 CURVE",
"271 439 OFFCURVE",
"262 454 OFFCURVE",
"262 471 CURVE SMOOTH",
"262 498 OFFCURVE",
"284 520 OFFCURVE",
"311 520 CURVE SMOOTH",
"315 520 OFFCURVE",
"319 520 OFFCURVE",
"323 519 CURVE",
"309 528 OFFCURVE",
"300 543 OFFCURVE",
"300 560 CURVE SMOOTH",
"300 587 OFFCURVE",
"322 609 OFFCURVE",
"349 609 CURVE SMOOTH",
"353 609 OFFCURVE",
"357 608 OFFCURVE",
"361 607 CURVE",
"365 608 OFFCURVE",
"369 609 OFFCURVE",
"373 609 CURVE SMOOTH",
"400 609 OFFCURVE",
"422 587 OFFCURVE",
"422 560 CURVE SMOOTH",
"422 533 OFFCURVE",
"400 511 OFFCURVE",
"373 511 CURVE SMOOTH",
"369 511 OFFCURVE",
"366 511 OFFCURVE",
"362 512 CURVE",
"376 503 OFFCURVE",
"385 488 OFFCURVE",
"385 471 CURVE SMOOTH",
"385 444 OFFCURVE",
"363 422 OFFCURVE",
"336 422 CURVE SMOOTH",
"332 422 OFFCURVE",
"328 423 OFFCURVE",
"324 424 CURVE",
"338 415 OFFCURVE",
"347 399 OFFCURVE",
"347 382 CURVE SMOOTH",
"347 355 OFFCURVE",
"325 333 OFFCURVE",
"298 333 CURVE SMOOTH",
"294 333 OFFCURVE",
"290 334 OFFCURVE",
"286 335 CURVE",
"282 334 OFFCURVE",
"278 333 OFFCURVE",
"274 333 CURVE SMOOTH",
"255 333 OFFCURVE",
"238 345 OFFCURVE",
"230 361 CURVE",
"226 353 OFFCURVE",
"220 346 OFFCURVE",
"212 341 CURVE",
"216 342 OFFCURVE",
"219 342 OFFCURVE",
"223 342 CURVE SMOOTH",
"250 342 OFFCURVE",
"272 320 OFFCURVE",
"272 293 CURVE SMOOTH",
"272 273 OFFCURVE",
"261 257 OFFCURVE",
"244 249 CURVE",
"261 241 OFFCURVE",
"272 224 OFFCURVE",
"272 204 CURVE SMOOTH",
"272 187 OFFCURVE",
"263 172 OFFCURVE",
"249 163 CURVE",
"253 164 OFFCURVE",
"257 164 OFFCURVE",
"261 164 CURVE SMOOTH",
"288 164 OFFCURVE",
"310 143 OFFCURVE",
"310 116 CURVE SMOOTH",
"310 99 OFFCURVE",
"301 83 OFFCURVE",
"287 74 CURVE",
"291 75 OFFCURVE",
"294 76 OFFCURVE",
"298 76 CURVE SMOOTH",
"325 76 OFFCURVE",
"347 54 OFFCURVE",
"347 27 CURVE SMOOTH",
"347 0 OFFCURVE",
"325 -22 OFFCURVE",
"298 -22 CURVE SMOOTH",
"294 -22 OFFCURVE",
"290 -22 OFFCURVE",
"286 -21 CURVE",
"282 -22 OFFCURVE",
"278 -22 OFFCURVE",
"274 -22 CURVE SMOOTH",
"247 -22 OFFCURVE",
"225 0 OFFCURVE",
"225 27 CURVE SMOOTH",
"225 44 OFFCURVE",
"234 59 OFFCURVE",
"248 68 CURVE",
"244 67 OFFCURVE",
"240 67 OFFCURVE",
"236 67 CURVE SMOOTH",
"209 67 OFFCURVE",
"188 89 OFFCURVE",
"188 116 CURVE SMOOTH",
"188 133 OFFCURVE",
"196 148 OFFCURVE",
"210 157 CURVE",
"206 156 OFFCURVE",
"203 156 OFFCURVE",
"199 156 CURVE SMOOTH",
"190 156 OFFCURVE",
"181 159 OFFCURVE",
"174 163 CURVE",
"167 159 OFFCURVE",
"157 156 OFFCURVE",
"148 156 CURVE SMOOTH",
"144 156 OFFCURVE",
"141 156 OFFCURVE",
"137 157 CURVE",
"151 148 OFFCURVE",
"160 133 OFFCURVE",
"160 116 CURVE SMOOTH",
"160 89 OFFCURVE",
"138 67 OFFCURVE",
"111 67 CURVE SMOOTH",
"107 67 OFFCURVE",
"103 67 OFFCURVE",
"99 68 CURVE",
"113 59 OFFCURVE",
"122 44 OFFCURVE",
"122 27 CURVE SMOOTH",
"122 0 OFFCURVE",
"100 -22 OFFCURVE",
"73 -22 CURVE SMOOTH",
"69 -22 OFFCURVE",
"65 -22 OFFCURVE",
"61 -21 CURVE",
"57 -22 OFFCURVE",
"53 -22 OFFCURVE",
"49 -22 CURVE SMOOTH",
"22 -22 OFFCURVE",
"0 0 OFFCURVE",
"0 27 CURVE SMOOTH",
"0 54 OFFCURVE",
"22 76 OFFCURVE",
"49 76 CURVE SMOOTH",
"53 76 OFFCURVE",
"56 75 OFFCURVE",
"60 74 CURVE",
"46 83 OFFCURVE",
"37 99 OFFCURVE",
"37 116 CURVE SMOOTH",
"37 143 OFFCURVE",
"59 164 OFFCURVE",
"86 164 CURVE SMOOTH",
"90 164 OFFCURVE",
"94 164 OFFCURVE",
"98 163 CURVE",
"84 172 OFFCURVE",
"75 187 OFFCURVE",
"75 204 CURVE SMOOTH",
"75 231 OFFCURVE",
"97 253 OFFCURVE",
"124 253 CURVE SMOOTH",
"128 253 OFFCURVE",
"132 253 OFFCURVE",
"136 252 CURVE",
"140 253 OFFCURVE",
"144 253 OFFCURVE",
"148 253 CURVE SMOOTH",
"157 253 OFFCURVE",
"167 250 OFFCURVE",
"174 246 CURVE",
"176 247 OFFCURVE",
"177 248 OFFCURVE",
"179 249 CURVE",
"162 257 OFFCURVE",
"150 273 OFFCURVE",
"150 293 CURVE SMOOTH",
"150 310 OFFCURVE",
"159 326 OFFCURVE",
"173 335 CURVE",
"169 334 OFFCURVE",
"165 333 OFFCURVE",
"161 333 CURVE SMOOTH",
"134 333 OFFCURVE",
"112 355 OFFCURVE",
"112 382 CURVE SMOOTH",
"112 399 OFFCURVE",
"121 415 OFFCURVE",
"135 424 CURVE",
"131 423 OFFCURVE",
"128 422 OFFCURVE",
"124 422 CURVE SMOOTH",
"97 422 OFFCURVE",
"75 444 OFFCURVE",
"75 471 CURVE SMOOTH",
"75 488 OFFCURVE",
"84 503 OFFCURVE",
"98 512 CURVE",
"94 511 OFFCURVE",
"90 511 OFFCURVE",
"86 511 CURVE SMOOTH",
"59 511 OFFCURVE",
"37 533 OFFCURVE",
"37 560 CURVE SMOOTH",
"37 587 OFFCURVE",
"59 609 OFFCURVE",
"86 609 CURVE SMOOTH",
"90 609 OFFCURVE",
"95 608 OFFCURVE",
"99 607 CURVE",
"103 608 OFFCURVE",
"107 609 OFFCURVE",
"111 609 CURVE SMOOTH",
"138 609 OFFCURVE",
"160 587 OFFCURVE"
);
}
);
width = 450;
}
);
unicode = 0058;
userData = {
com.fontlab.hintData = {
hhints = (
{
position = -22;
width = 186;
},
{
position = -22;
width = 98;
},
{
position = 156;
width = 97;
},
{
position = 333;
width = 98;
},
{
position = 511;
width = 98;
}
);
vhints = (
{
position = 0;
width = 122;
},
{
position = 37;
width = 123;
},
{
position = 75;
width = 122;
},
{
position = 150;
width = 122;
},
{
position = 188;
width = 122;
},
{
position = 225;
width = 122;
},
{
position = 262;
width = 123;
},
{
position = 300;
width = 122;
}
);
};
};
},
{
glyphname = Y;
lastChange = "2017-08-06 04:52:05 +0000";
layers = (
{
layerId = "1F496C02-BC74-4D01-901C-8E7FF5CB5189";
paths = (
{
closed = 1;
nodes = (
"122 560 CURVE SMOOTH",
"122 543 OFFCURVE",
"113 528 OFFCURVE",
"99 519 CURVE",
"103 520 OFFCURVE",
"107 520 OFFCURVE",
"111 520 CURVE SMOOTH",
"138 520 OFFCURVE",
"160 498 OFFCURVE",
"160 471 CURVE SMOOTH",
"160 454 OFFCURVE",
"151 439 OFFCURVE",
"137 430 CURVE",
"141 431 OFFCURVE",
"144 431 OFFCURVE",
"148 431 CURVE SMOOTH",
"167 431 OFFCURVE",
"184 419 OFFCURVE",
"192 403 CURVE",
"200 419 OFFCURVE",
"217 431 OFFCURVE",
"236 431 CURVE SMOOTH",
"240 431 OFFCURVE",
"245 431 OFFCURVE",
"249 430 CURVE",
"253 431 OFFCURVE",
"257 431 OFFCURVE",
"261 431 CURVE SMOOTH",
"288 431 OFFCURVE",
"310 409 OFFCURVE",
"310 382 CURVE SMOOTH",
"310 355 OFFCURVE",
"288 333 OFFCURVE",
"261 333 CURVE SMOOTH",
"257 333 OFFCURVE",
"253 334 OFFCURVE",
"249 335 CURVE",
"245 334 OFFCURVE",
"240 333 OFFCURVE",
"236 333 CURVE SMOOTH",
"217 333 OFFCURVE",
"200 345 OFFCURVE",
"192 361 CURVE",
"188 353 OFFCURVE",
"182 346 OFFCURVE",
"174 341 CURVE",
"178 342 OFFCURVE",
"182 342 OFFCURVE",
"186 342 CURVE SMOOTH",
"213 342 OFFCURVE",
"235 320 OFFCURVE",
"235 293 CURVE SMOOTH",
"235 273 OFFCURVE",
"223 257 OFFCURVE",
"206 249 CURVE",
"223 241 OFFCURVE",
"235 224 OFFCURVE",
"235 204 CURVE SMOOTH",
"235 177 OFFCURVE",
"213 156 OFFCURVE",
"186 156 CURVE SMOOTH",
"182 156 OFFCURVE",
"178 156 OFFCURVE",
"174 157 CURVE",
"188 148 OFFCURVE",
"197 133 OFFCURVE",
"197 116 CURVE SMOOTH",
"197 96 OFFCURVE",
"186 79 OFFCURVE",
"169 71 CURVE",
"186 63 OFFCURVE",
"197 47 OFFCURVE",
"197 27 CURVE SMOOTH",
"197 0 OFFCURVE",
"175 -22 OFFCURVE",
"148 -22 CURVE SMOOTH",
"144 -22 OFFCURVE",
"140 -22 OFFCURVE",
"136 -21 CURVE",
"132 -22 OFFCURVE",
"128 -22 OFFCURVE",
"124 -22 CURVE SMOOTH",
"97 -22 OFFCURVE",
"75 0 OFFCURVE",
"75 27 CURVE SMOOTH",
"75 47 OFFCURVE",
"87 63 OFFCURVE",
"104 71 CURVE",
"87 79 OFFCURVE",
"75 96 OFFCURVE",
"75 116 CURVE SMOOTH",
"75 143 OFFCURVE",
"97 164 OFFCURVE",
"124 164 CURVE SMOOTH",
"128 164 OFFCURVE",
"131 164 OFFCURVE",
"135 163 CURVE",
"121 172 OFFCURVE",
"112 187 OFFCURVE",
"112 204 CURVE SMOOTH",
"112 224 OFFCURVE",
"124 241 OFFCURVE",
"141 249 CURVE",
"124 257 OFFCURVE",
"112 273 OFFCURVE",
"112 293 CURVE SMOOTH",
"112 310 OFFCURVE",
"121 326 OFFCURVE",
"135 335 CURVE",
"131 334 OFFCURVE",
"128 333 OFFCURVE",
"124 333 CURVE SMOOTH",
"97 333 OFFCURVE",
"75 355 OFFCURVE",
"75 382 CURVE SMOOTH",
"75 399 OFFCURVE",
"84 415 OFFCURVE",
"98 424 CURVE",
"94 423 OFFCURVE",
"90 422 OFFCURVE",
"86 422 CURVE SMOOTH",
"59 422 OFFCURVE",
"37 444 OFFCURVE",
"37 471 CURVE SMOOTH",
"37 488 OFFCURVE",
"46 503 OFFCURVE",
"60 512 CURVE",
"56 511 OFFCURVE",
"53 511 OFFCURVE",
"49 511 CURVE SMOOTH",
"22 511 OFFCURVE",
"0 533 OFFCURVE",
"0 560 CURVE SMOOTH",
"0 587 OFFCURVE",
"22 609 OFFCURVE",
"49 609 CURVE SMOOTH",
"53 609 OFFCURVE",
"57 608 OFFCURVE",
"61 607 CURVE",
"65 608 OFFCURVE",
"69 609 OFFCURVE",
"73 609 CURVE SMOOTH",
"100 609 OFFCURVE",
"122 587 OFFCURVE"
);
},
{
closed = 1;
nodes = (
"422 560 CURVE SMOOTH",
"422 533 OFFCURVE",
"400 511 OFFCURVE",
"373 511 CURVE SMOOTH",
"369 511 OFFCURVE",
"366 511 OFFCURVE",
"362 512 CURVE",
"376 503 OFFCURVE",
"385 488 OFFCURVE",
"385 471 CURVE SMOOTH",
"385 444 OFFCURVE",
"363 422 OFFCURVE",
"336 422 CURVE SMOOTH",
"332 422 OFFCURVE",
"328 423 OFFCURVE",
"324 424 CURVE",
"320 423 OFFCURVE",
"315 422 OFFCURVE",
"311 422 CURVE SMOOTH",
"284 422 OFFCURVE",
"262 444 OFFCURVE",
"262 471 CURVE SMOOTH",
"262 498 OFFCURVE",
"284 520 OFFCURVE",
"311 520 CURVE SMOOTH",
"315 520 OFFCURVE",
"319 520 OFFCURVE",
"323 519 CURVE",
"309 528 OFFCURVE",
"300 543 OFFCURVE",
"300 560 CURVE SMOOTH",
"300 587 OFFCURVE",
"322 609 OFFCURVE",
"349 609 CURVE SMOOTH",
"353 609 OFFCURVE",
"357 608 OFFCURVE",
"361 607 CURVE",
"365 608 OFFCURVE",
"369 609 OFFCURVE",
"373 609 CURVE SMOOTH",
"400 609 OFFCURVE",
"422 587 OFFCURVE"
);
}
);
width = 450;
}
);
unicode = 0059;
userData = {
com.fontlab.hintData = {
hhints = (
{
position = -22;
width = 21;
},
{
position = -22;
width = 21;
},
{
position = 333;
width = 98;
},
{
position = 422;
width = 98;
},
{
position = 511;
width = 98;
}
);
vhints = (
{
position = 0;
width = 122;
},
{
position = 37;
width = 123;
},
{
position = 75;
width = 122;
},
{
position = 112;
width = 123;
},
{
position = 262;
width = 123;
},
{
position = 300;
width = 122;
}
);
};
};
},
{
glyphname = Z;
lastChange = "2017-08-06 04:52:05 +0000";
layers = (
{
layerId = "1F496C02-BC74-4D01-901C-8E7FF5CB5189";
paths = (
{
closed = 1;
nodes = (
"422 560 CURVE SMOOTH",
"422 533 OFFCURVE",
"400 511 OFFCURVE",
"373 511 CURVE SMOOTH",
"369 511 OFFCURVE",
"366 511 OFFCURVE",
"362 512 CURVE",
"376 503 OFFCURVE",
"385 488 OFFCURVE",
"385 471 CURVE SMOOTH",
"385 444 OFFCURVE",
"363 422 OFFCURVE",
"336 422 CURVE SMOOTH",
"332 422 OFFCURVE",
"328 423 OFFCURVE",
"324 424 CURVE",
"338 415 OFFCURVE",
"347 399 OFFCURVE",
"347 382 CURVE SMOOTH",
"347 355 OFFCURVE",
"325 333 OFFCURVE",
"298 333 CURVE SMOOTH",
"294 333 OFFCURVE",
"290 334 OFFCURVE",
"286 335 CURVE",
"282 334 OFFCURVE",
"278 333 OFFCURVE",
"274 333 CURVE SMOOTH",
"247 333 OFFCURVE",
"225 355 OFFCURVE",
"225 382 CURVE SMOOTH",
"225 409 OFFCURVE",
"247 431 OFFCURVE",
"274 431 CURVE SMOOTH",
"278 431 OFFCURVE",
"281 431 OFFCURVE",
"285 430 CURVE",
"271 439 OFFCURVE",
"262 454 OFFCURVE",
"262 471 CURVE SMOOTH",
"262 488 OFFCURVE",
"271 503 OFFCURVE",
"285 512 CURVE",
"281 511 OFFCURVE",
"278 511 OFFCURVE",
"274 511 CURVE SMOOTH",
"265 511 OFFCURVE",
"256 514 OFFCURVE",
"249 518 CURVE",
"242 514 OFFCURVE",
"232 511 OFFCURVE",
"223 511 CURVE SMOOTH",
"219 511 OFFCURVE",
"215 512 OFFCURVE",
"211 513 CURVE",
"207 512 OFFCURVE",
"203 511 OFFCURVE",
"199 511 CURVE SMOOTH",
"190 511 OFFCURVE",
"181 514 OFFCURVE",
"174 518 CURVE",
"167 514 OFFCURVE",
"157 511 OFFCURVE",
"148 511 CURVE SMOOTH",
"144 511 OFFCURVE",
"140 512 OFFCURVE",
"136 513 CURVE",
"132 512 OFFCURVE",
"128 511 OFFCURVE",
"124 511 CURVE SMOOTH",
"97 511 OFFCURVE",
"75 533 OFFCURVE",
"75 560 CURVE SMOOTH",
"75 587 OFFCURVE",
"97 609 OFFCURVE",
"124 609 CURVE SMOOTH",
"128 609 OFFCURVE",
"132 608 OFFCURVE",
"136 607 CURVE",
"140 608 OFFCURVE",
"144 609 OFFCURVE",
"148 609 CURVE SMOOTH",
"157 609 OFFCURVE",
"167 606 OFFCURVE",
"174 602 CURVE",
"181 606 OFFCURVE",
"190 609 OFFCURVE",
"199 609 CURVE SMOOTH",
"203 609 OFFCURVE",
"207 608 OFFCURVE",
"211 607 CURVE",
"215 608 OFFCURVE",
"219 609 OFFCURVE",
"223 609 CURVE SMOOTH",
"232 609 OFFCURVE",
"242 606 OFFCURVE",
"249 602 CURVE",
"256 606 OFFCURVE",
"265 609 OFFCURVE",
"274 609 CURVE SMOOTH",
"278 609 OFFCURVE",
"282 608 OFFCURVE",
"286 607 CURVE",
"290 608 OFFCURVE",
"294 609 OFFCURVE",
"298 609 CURVE SMOOTH",
"307 609 OFFCURVE",
"317 606 OFFCURVE",
"324 602 CURVE",
"331 606 OFFCURVE",
"340 609 OFFCURVE",
"349 609 CURVE SMOOTH",
"353 609 OFFCURVE",
"357 608 OFFCURVE",
"361 607 CURVE",
"365 608 OFFCURVE",
"369 609 OFFCURVE",
"373 609 CURVE SMOOTH",
"400 609 OFFCURVE",
"422 587 OFFCURVE"
);
},
{
closed = 1;
nodes = (
"272 293 CURVE SMOOTH",
"272 266 OFFCURVE",
"250 244 OFFCURVE",
"223 244 CURVE SMOOTH",
"219 244 OFFCURVE",
"215 245 OFFCURVE",
"211 246 CURVE",
"207 245 OFFCURVE",
"203 244 OFFCURVE",
"199 244 CURVE SMOOTH",
"172 244 OFFCURVE",
"150 266 OFFCURVE",
"150 293 CURVE SMOOTH",
"150 320 OFFCURVE",
"172 342 OFFCURVE",
"199 342 CURVE SMOOTH",
"203 342 OFFCURVE",
"207 342 OFFCURVE",
"211 341 CURVE",
"215 342 OFFCURVE",
"219 342 OFFCURVE",
"223 342 CURVE SMOOTH",
"250 342 OFFCURVE",
"272 320 OFFCURVE"
);
},
{
closed = 1;
nodes = (
"197 204 CURVE SMOOTH",
"197 177 OFFCURVE",
"175 156 OFFCURVE",
"148 156 CURVE SMOOTH",
"144 156 OFFCURVE",
"141 156 OFFCURVE",
"137 157 CURVE",
"151 148 OFFCURVE",
"160 133 OFFCURVE",
"160 116 CURVE SMOOTH",
"160 99 OFFCURVE",
"151 83 OFFCURVE",
"137 74 CURVE",
"141 75 OFFCURVE",
"144 76 OFFCURVE",
"148 76 CURVE SMOOTH",
"157 76 OFFCURVE",
"167 73 OFFCURVE",
"174 69 CURVE",
"181 73 OFFCURVE",
"190 76 OFFCURVE",
"199 76 CURVE SMOOTH",
"203 76 OFFCURVE",
"207 75 OFFCURVE",
"211 74 CURVE",
"215 75 OFFCURVE",
"219 76 OFFCURVE",
"223 76 CURVE SMOOTH",
"232 76 OFFCURVE",
"242 73 OFFCURVE",
"249 69 CURVE",
"256 73 OFFCURVE",
"265 76 OFFCURVE",
"274 76 CURVE SMOOTH",
"278 76 OFFCURVE",
"282 75 OFFCURVE",
"286 74 CURVE",
"290 75 OFFCURVE",
"294 76 OFFCURVE",
"298 76 CURVE SMOOTH",
"325 76 OFFCURVE",
"347 54 OFFCURVE",
"347 27 CURVE SMOOTH",
"347 0 OFFCURVE",
"325 -22 OFFCURVE",
"298 -22 CURVE SMOOTH",
"294 -22 OFFCURVE",
"290 -22 OFFCURVE",
"286 -21 CURVE",
"282 -22 OFFCURVE",
"278 -22 OFFCURVE",
"274 -22 CURVE SMOOTH",
"265 -22 OFFCURVE",
"256 -19 OFFCURVE",
"249 -15 CURVE",
"242 -19 OFFCURVE",
"232 -22 OFFCURVE",
"223 -22 CURVE SMOOTH",
"219 -22 OFFCURVE",
"215 -22 OFFCURVE",
"211 -21 CURVE",
"207 -22 OFFCURVE",
"203 -22 OFFCURVE",
"199 -22 CURVE SMOOTH",
"190 -22 OFFCURVE",
"181 -19 OFFCURVE",
"174 -15 CURVE",
"167 -19 OFFCURVE",
"157 -22 OFFCURVE",
"148 -22 CURVE SMOOTH",
"144 -22 OFFCURVE",
"140 -22 OFFCURVE",
"136 -21 CURVE",
"132 -22 OFFCURVE",
"128 -22 OFFCURVE",
"124 -22 CURVE SMOOTH",
"115 -22 OFFCURVE",
"106 -19 OFFCURVE",
"99 -15 CURVE",
"92 -19 OFFCURVE",
"82 -22 OFFCURVE",
"73 -22 CURVE SMOOTH",
"69 -22 OFFCURVE",
"65 -22 OFFCURVE",
"61 -21 CURVE",
"57 -22 OFFCURVE",
"53 -22 OFFCURVE",
"49 -22 CURVE SMOOTH",
"22 -22 OFFCURVE",
"0 0 OFFCURVE",
"0 27 CURVE SMOOTH",
"0 54 OFFCURVE",
"22 76 OFFCURVE",
"49 76 CURVE SMOOTH",
"53 76 OFFCURVE",
"56 75 OFFCURVE",
"60 74 CURVE",
"46 83 OFFCURVE",
"37 99 OFFCURVE",
"37 116 CURVE SMOOTH",
"37 143 OFFCURVE",
"59 164 OFFCURVE",
"86 164 CURVE SMOOTH",
"90 164 OFFCURVE",
"94 164 OFFCURVE",
"98 163 CURVE",
"84 172 OFFCURVE",
"75 187 OFFCURVE",
"75 204 CURVE SMOOTH",
"75 231 OFFCURVE",
"97 253 OFFCURVE",
"124 253 CURVE SMOOTH",
"128 253 OFFCURVE",
"132 253 OFFCURVE",
"136 252 CURVE",
"140 253 OFFCURVE",
"144 253 OFFCURVE",
"148 253 CURVE SMOOTH",
"175 253 OFFCURVE",
"197 231 OFFCURVE"
);
}
);
width = 450;
}
);
unicode = 005A;
userData = {
com.fontlab.hintData = {
hhints = (
{
position = -22;
width = 98;
},
{
position = 156;
width = 97;
},
{
position = 244;
width = 98;
},
{
position = 333;
width = 98;
},
{
position = 511;
width = 98;
}
);
vhints = (
{
position = 37;
width = 123;
},
{
position = 75;
width = 122;
},
{
position = 150;
width = 122;
},
{
position = 225;
width = 122;
},
{
position = 262;
width = 123;
}
);
};
};
},
{
glyphname = a;
lastChange = "2017-08-06 04:52:05 +0000";
layers = (
{
layerId = "1F496C02-BC74-4D01-901C-8E7FF5CB5189";
paths = (
{
closed = 1;
nodes = (
"347 382 CURVE SMOOTH",
"347 365 OFFCURVE",
"338 350 OFFCURVE",
"324 341 CURVE",
"328 342 OFFCURVE",
"332 342 OFFCURVE",
"336 342 CURVE SMOOTH",
"363 342 OFFCURVE",
"385 320 OFFCURVE",
"385 293 CURVE SMOOTH",
"385 273 OFFCURVE",
"373 257 OFFCURVE",
"356 249 CURVE",
"373 241 OFFCURVE",
"385 224 OFFCURVE",
"385 204 CURVE SMOOTH",
"385 177 OFFCURVE",
"363 156 OFFCURVE",
"336 156 CURVE SMOOTH",
"332 156 OFFCURVE",
"328 156 OFFCURVE",
"324 157 CURVE",
"338 148 OFFCURVE",
"347 133 OFFCURVE",
"347 116 CURVE SMOOTH",
"347 99 OFFCURVE",
"338 83 OFFCURVE",
"324 74 CURVE",
"328 75 OFFCURVE",
"332 76 OFFCURVE",
"336 76 CURVE SMOOTH",
"363 76 OFFCURVE",
"385 54 OFFCURVE",
"385 27 CURVE SMOOTH",
"385 0 OFFCURVE",
"363 -22 OFFCURVE",
"336 -22 CURVE SMOOTH",
"332 -22 OFFCURVE",
"328 -22 OFFCURVE",
"324 -21 CURVE",
"320 -22 OFFCURVE",
"315 -22 OFFCURVE",
"311 -22 CURVE SMOOTH",
"302 -22 OFFCURVE",
"293 -19 OFFCURVE",
"286 -15 CURVE",
"279 -19 OFFCURVE",
"270 -22 OFFCURVE",
"261 -22 CURVE SMOOTH",
"257 -22 OFFCURVE",
"253 -22 OFFCURVE",
"249 -21 CURVE",
"245 -22 OFFCURVE",
"240 -22 OFFCURVE",
"236 -22 CURVE SMOOTH",
"227 -22 OFFCURVE",
"218 -19 OFFCURVE",
"211 -15 CURVE",
"204 -19 OFFCURVE",
"195 -22 OFFCURVE",
"186 -22 CURVE SMOOTH",
"182 -22 OFFCURVE",
"178 -22 OFFCURVE",
"174 -21 CURVE",
"170 -22 OFFCURVE",
"165 -22 OFFCURVE",
"161 -22 CURVE SMOOTH",
"152 -22 OFFCURVE",
"143 -19 OFFCURVE",
"136 -15 CURVE",
"129 -19 OFFCURVE",
"120 -22 OFFCURVE",
"111 -22 CURVE SMOOTH",
"107 -22 OFFCURVE",
"103 -22 OFFCURVE",
"99 -21 CURVE",
"95 -22 OFFCURVE",
"90 -22 OFFCURVE",
"86 -22 CURVE SMOOTH",
"59 -22 OFFCURVE",
"37 0 OFFCURVE",
"37 27 CURVE SMOOTH",
"37 44 OFFCURVE",
"46 59 OFFCURVE",
"60 68 CURVE",
"56 67 OFFCURVE",
"53 67 OFFCURVE",
"49 67 CURVE SMOOTH",
"22 67 OFFCURVE",
"0 89 OFFCURVE",
"0 116 CURVE SMOOTH",
"0 143 OFFCURVE",
"22 164 OFFCURVE",
"49 164 CURVE SMOOTH",
"53 164 OFFCURVE",
"56 164 OFFCURVE",
"60 163 CURVE",
"46 172 OFFCURVE",
"37 187 OFFCURVE",
"37 204 CURVE SMOOTH",
"37 231 OFFCURVE",
"59 253 OFFCURVE",
"86 253 CURVE SMOOTH",
"90 253 OFFCURVE",
"95 253 OFFCURVE",
"99 252 CURVE",
"103 253 OFFCURVE",
"107 253 OFFCURVE",
"111 253 CURVE SMOOTH",
"120 253 OFFCURVE",
"129 250 OFFCURVE",
"136 246 CURVE",
"143 250 OFFCURVE",
"152 253 OFFCURVE",
"161 253 CURVE SMOOTH",
"165 253 OFFCURVE",
"170 253 OFFCURVE",
"174 252 CURVE",
"178 253 OFFCURVE",
"182 253 OFFCURVE",
"186 253 CURVE SMOOTH",
"195 253 OFFCURVE",
"204 250 OFFCURVE",
"211 246 CURVE",
"218 250 OFFCURVE",
"227 253 OFFCURVE",
"236 253 CURVE SMOOTH",
"240 253 OFFCURVE",
"245 253 OFFCURVE",
"249 252 CURVE",
"253 253 OFFCURVE",
"257 253 OFFCURVE",
"261 253 CURVE SMOOTH",
"270 253 OFFCURVE",
"279 250 OFFCURVE",
"286 246 CURVE",
"288 247 OFFCURVE",
"289 248 OFFCURVE",
"291 249 CURVE",
"274 257 OFFCURVE",
"262 273 OFFCURVE",
"262 293 CURVE SMOOTH",
"262 310 OFFCURVE",
"271 326 OFFCURVE",
"285 335 CURVE",
"281 334 OFFCURVE",
"278 333 OFFCURVE",
"274 333 CURVE SMOOTH",
"265 333 OFFCURVE",
"256 336 OFFCURVE",
"249 340 CURVE",
"242 336 OFFCURVE",
"232 333 OFFCURVE",
"223 333 CURVE SMOOTH",
"219 333 OFFCURVE",
"215 334 OFFCURVE",
"211 335 CURVE",
"207 334 OFFCURVE",
"203 333 OFFCURVE",
"199 333 CURVE SMOOTH",
"190 333 OFFCURVE",
"181 336 OFFCURVE",
"174 340 CURVE",
"167 336 OFFCURVE",
"157 333 OFFCURVE",
"148 333 CURVE SMOOTH",
"144 333 OFFCURVE",
"140 334 OFFCURVE",
"136 335 CURVE",
"132 334 OFFCURVE",
"128 333 OFFCURVE",
"124 333 CURVE SMOOTH",
"97 333 OFFCURVE",
"75 355 OFFCURVE",
"75 382 CURVE SMOOTH",
"75 409 OFFCURVE",
"97 431 OFFCURVE",
"124 431 CURVE SMOOTH",
"128 431 OFFCURVE",
"132 431 OFFCURVE",
"136 430 CURVE",
"140 431 OFFCURVE",
"144 431 OFFCURVE",
"148 431 CURVE SMOOTH",
"157 431 OFFCURVE",
"167 428 OFFCURVE",
"174 424 CURVE",
"181 428 OFFCURVE",
"190 431 OFFCURVE",
"199 431 CURVE SMOOTH",
"203 431 OFFCURVE",
"207 431 OFFCURVE",
"211 430 CURVE",
"215 431 OFFCURVE",
"219 431 OFFCURVE",
"223 431 CURVE SMOOTH",
"232 431 OFFCURVE",
"242 428 OFFCURVE",
"249 424 CURVE",
"256 428 OFFCURVE",
"265 431 OFFCURVE",
"274 431 CURVE SMOOTH",
"278 431 OFFCURVE",
"282 431 OFFCURVE",
"286 430 CURVE",
"290 431 OFFCURVE",
"294 431 OFFCURVE",
"298 431 CURVE SMOOTH",
"325 431 OFFCURVE",
"347 409 OFFCURVE"
);
},
{
closed = 1;
nodes = (
"136 163 CURVE",
"129 159 OFFCURVE",
"120 156 OFFCURVE",
"111 156 CURVE SMOOTH",
"107 156 OFFCURVE",
"103 156 OFFCURVE",
"99 157 CURVE",
"113 148 OFFCURVE",
"122 133 OFFCURVE",
"122 116 CURVE SMOOTH",
"122 99 OFFCURVE",
"113 83 OFFCURVE",
"99 74 CURVE",
"103 75 OFFCURVE",
"107 76 OFFCURVE",
"111 76 CURVE SMOOTH",
"120 76 OFFCURVE",
"129 73 OFFCURVE",
"136 69 CURVE",
"143 73 OFFCURVE",
"152 76 OFFCURVE",
"161 76 CURVE SMOOTH",
"165 76 OFFCURVE",
"170 75 OFFCURVE",
"174 74 CURVE",
"178 75 OFFCURVE",
"182 76 OFFCURVE",
"186 76 CURVE SMOOTH",
"195 76 OFFCURVE",
"204 73 OFFCURVE",
"211 69 CURVE",
"218 73 OFFCURVE",
"227 76 OFFCURVE",
"236 76 CURVE SMOOTH",
"240 76 OFFCURVE",
"244 75 OFFCURVE",
"248 74 CURVE",
"234 83 OFFCURVE",
"225 99 OFFCURVE",
"225 116 CURVE SMOOTH",
"225 133 OFFCURVE",
"234 148 OFFCURVE",
"248 157 CURVE",
"244 156 OFFCURVE",
"240 156 OFFCURVE",
"236 156 CURVE SMOOTH",
"227 156 OFFCURVE",
"218 159 OFFCURVE",
"211 163 CURVE",
"204 159 OFFCURVE",
"195 156 OFFCURVE",
"186 156 CURVE SMOOTH",
"182 156 OFFCURVE",
"178 156 OFFCURVE",
"174 157 CURVE",
"170 156 OFFCURVE",
"165 156 OFFCURVE",
"161 156 CURVE SMOOTH",
"152 156 OFFCURVE",
"143 159 OFFCURVE"
);
}
);
width = 450;
}
);
unicode = 0061;
userData = {
com.fontlab.hintData = {
hhints = (
{
position = -22;
width = 98;
},
{
position = 67;
width = 97;
},
{
position = 156;
width = 97;
},
{
position = 333;
width = 98;
}
);
vhints = (
{
position = 0;
width = 122;
},
{
position = 75;
width = 272;
},
{
position = 225;
width = 122;
},
{
position = 262;
width = 123;
}
);
};
};
},
{
glyphname = b;
lastChange = "2017-08-06 04:52:05 +0000";
layers = (
{
layerId = "1F496C02-BC74-4D01-901C-8E7FF5CB5189";
paths = (
{
closed = 1;
nodes = (
"197 560 CURVE SMOOTH",
"197 540 OFFCURVE",
"186 524 OFFCURVE",
"169 516 CURVE",
"186 508 OFFCURVE",
"197 491 OFFCURVE",
"197 471 CURVE SMOOTH",
"197 451 OFFCURVE",
"186 435 OFFCURVE",
"169 427 CURVE",
"171 426 OFFCURVE",
"172 425 OFFCURVE",
"174 424 CURVE",
"181 428 OFFCURVE",
"190 431 OFFCURVE",
"199 431 CURVE SMOOTH",
"203 431 OFFCURVE",
"207 431 OFFCURVE",
"211 430 CURVE",
"215 431 OFFCURVE",
"219 431 OFFCURVE",
"223 431 CURVE SMOOTH",
"232 431 OFFCURVE",
"242 428 OFFCURVE",
"249 424 CURVE",
"256 428 OFFCURVE",
"265 431 OFFCURVE",
"274 431 CURVE SMOOTH",
"278 431 OFFCURVE",
"282 431 OFFCURVE",
"286 430 CURVE",
"290 431 OFFCURVE",
"294 431 OFFCURVE",
"298 431 CURVE SMOOTH",
"325 431 OFFCURVE",
"347 409 OFFCURVE",
"347 382 CURVE SMOOTH",
"347 365 OFFCURVE",
"338 350 OFFCURVE",
"324 341 CURVE",
"328 342 OFFCURVE",
"332 342 OFFCURVE",
"336 342 CURVE SMOOTH",
"363 342 OFFCURVE",
"385 320 OFFCURVE",
"385 293 CURVE SMOOTH",
"385 273 OFFCURVE",
"373 257 OFFCURVE",
"356 249 CURVE",
"373 241 OFFCURVE",
"385 224 OFFCURVE",
"385 204 CURVE SMOOTH",
"385 177 OFFCURVE",
"363 156 OFFCURVE",
"336 156 CURVE SMOOTH",
"332 156 OFFCURVE",
"328 156 OFFCURVE",
"324 157 CURVE",
"338 148 OFFCURVE",
"347 133 OFFCURVE",
"347 116 CURVE SMOOTH",
"347 89 OFFCURVE",
"325 67 OFFCURVE",
"298 67 CURVE SMOOTH",
"294 67 OFFCURVE",
"290 67 OFFCURVE",
"286 68 CURVE",
"282 67 OFFCURVE",
"278 67 OFFCURVE",
"274 67 CURVE SMOOTH",
"247 67 OFFCURVE",
"225 89 OFFCURVE",
"225 116 CURVE SMOOTH",
"225 143 OFFCURVE",
"247 164 OFFCURVE",
"274 164 CURVE SMOOTH",
"278 164 OFFCURVE",
"281 164 OFFCURVE",
"285 163 CURVE",
"271 172 OFFCURVE",
"262 187 OFFCURVE",
"262 204 CURVE SMOOTH",
"262 224 OFFCURVE",
"274 241 OFFCURVE",
"291 249 CURVE",
"274 257 OFFCURVE",
"262 273 OFFCURVE",
"262 293 CURVE SMOOTH",
"262 310 OFFCURVE",
"271 326 OFFCURVE",
"285 335 CURVE",
"281 334 OFFCURVE",
"278 333 OFFCURVE",
"274 333 CURVE SMOOTH",
"265 333 OFFCURVE",
"256 336 OFFCURVE",
"249 340 CURVE",
"242 336 OFFCURVE",
"232 333 OFFCURVE",
"223 333 CURVE SMOOTH",
"219 333 OFFCURVE",
"215 334 OFFCURVE",
"211 335 CURVE",
"207 334 OFFCURVE",
"203 333 OFFCURVE",
"199 333 CURVE SMOOTH",
"190 333 OFFCURVE",
"181 336 OFFCURVE",
"174 340 CURVE",
"167 336 OFFCURVE",
"157 333 OFFCURVE",
"148 333 CURVE SMOOTH",
"144 333 OFFCURVE",
"141 334 OFFCURVE",
"137 335 CURVE",
"151 326 OFFCURVE",
"160 310 OFFCURVE",
"160 293 CURVE SMOOTH",
"160 273 OFFCURVE",
"148 257 OFFCURVE",
"131 249 CURVE",
"148 241 OFFCURVE",
"160 224 OFFCURVE",
"160 204 CURVE SMOOTH",
"160 177 OFFCURVE",
"138 156 OFFCURVE",
"111 156 CURVE SMOOTH",
"107 156 OFFCURVE",
"103 156 OFFCURVE",
"99 157 CURVE",
"113 148 OFFCURVE",
"122 133 OFFCURVE",
"122 116 CURVE SMOOTH",
"122 96 OFFCURVE",
"111 79 OFFCURVE",
"94 71 CURVE",
"96 70 OFFCURVE",
"97 70 OFFCURVE",
"99 69 CURVE",
"106 73 OFFCURVE",
"115 76 OFFCURVE",
"124 76 CURVE SMOOTH",
"128 76 OFFCURVE",
"132 75 OFFCURVE",
"136 74 CURVE",
"140 75 OFFCURVE",
"144 76 OFFCURVE",
"148 76 CURVE SMOOTH",
"157 76 OFFCURVE",
"167 73 OFFCURVE",
"174 69 CURVE",
"181 73 OFFCURVE",
"190 76 OFFCURVE",
"199 76 CURVE SMOOTH",
"203 76 OFFCURVE",
"207 75 OFFCURVE",
"211 74 CURVE",
"215 75 OFFCURVE",
"219 76 OFFCURVE",
"223 76 CURVE SMOOTH",
"250 76 OFFCURVE",
"272 54 OFFCURVE",
"272 27 CURVE SMOOTH",
"272 0 OFFCURVE",
"250 -22 OFFCURVE",
"223 -22 CURVE SMOOTH",
"219 -22 OFFCURVE",
"215 -22 OFFCURVE",
"211 -21 CURVE",
"207 -22 OFFCURVE",
"203 -22 OFFCURVE",
"199 -22 CURVE SMOOTH",
"190 -22 OFFCURVE",
"181 -19 OFFCURVE",
"174 -15 CURVE",
"167 -19 OFFCURVE",
"157 -22 OFFCURVE",
"148 -22 CURVE SMOOTH",
"144 -22 OFFCURVE",
"140 -22 OFFCURVE",
"136 -21 CURVE",
"132 -22 OFFCURVE",
"128 -22 OFFCURVE",
"124 -22 CURVE SMOOTH",
"115 -22 OFFCURVE",
"106 -19 OFFCURVE",
"99 -15 CURVE",
"92 -19 OFFCURVE",
"82 -22 OFFCURVE",
"73 -22 CURVE SMOOTH",
"69 -22 OFFCURVE",
"65 -22 OFFCURVE",
"61 -21 CURVE",
"57 -22 OFFCURVE",
"53 -22 OFFCURVE",
"49 -22 CURVE SMOOTH",
"22 -22 OFFCURVE",
"0 0 OFFCURVE",
"0 27 CURVE SMOOTH",
"0 47 OFFCURVE",
"12 63 OFFCURVE",
"29 71 CURVE",
"12 79 OFFCURVE",
"0 96 OFFCURVE",
"0 116 CURVE SMOOTH",
"0 143 OFFCURVE",
"22 164 OFFCURVE",
"49 164 CURVE SMOOTH",
"53 164 OFFCURVE",
"56 164 OFFCURVE",
"60 163 CURVE",
"46 172 OFFCURVE",
"37 187 OFFCURVE",
"37 204 CURVE SMOOTH",
"37 224 OFFCURVE",
"49 241 OFFCURVE",
"66 249 CURVE",
"49 257 OFFCURVE",
"37 273 OFFCURVE",
"37 293 CURVE SMOOTH",
"37 320 OFFCURVE",
"59 342 OFFCURVE",
"86 342 CURVE SMOOTH",
"90 342 OFFCURVE",
"94 342 OFFCURVE",
"98 341 CURVE",
"84 350 OFFCURVE",
"75 365 OFFCURVE",
"75 382 CURVE SMOOTH",
"75 402 OFFCURVE",
"87 419 OFFCURVE",
"104 427 CURVE",
"87 435 OFFCURVE",
"75 451 OFFCURVE",
"75 471 CURVE SMOOTH",
"75 491 OFFCURVE",
"87 508 OFFCURVE",
"104 516 CURVE",
"87 524 OFFCURVE",
"75 540 OFFCURVE",
"75 560 CURVE SMOOTH",
"75 587 OFFCURVE",
"97 609 OFFCURVE",
"124 609 CURVE SMOOTH",
"128 609 OFFCURVE",
"132 608 OFFCURVE",
"136 607 CURVE",
"140 608 OFFCURVE",
"144 609 OFFCURVE",
"148 609 CURVE SMOOTH",
"175 609 OFFCURVE",
"197 587 OFFCURVE"
);
}
);
width = 450;
}
);
unicode = 0062;
userData = {
com.fontlab.hintData = {
hhints = (
{
position = -22;
width = 98;
},
{
position = 67;
width = 97;
},
{
position = 333;
width = 98;
},
{
position = 589;
width = 20;
}
);
vhints = (
{
position = 0;
width = 272;
},
{
position = 0;
width = 122;
},
{
position = 37;
width = 123;
},
{
position = 75;
width = 272;
},
{
position = 75;
width = 122;
},
{
position = 225;
width = 122;
},
{
position = 262;
width = 123;
}
);
};
};
},
{
glyphname = c;
lastChange = "2017-08-06 04:52:05 +0000";
layers = (
{
layerId = "1F496C02-BC74-4D01-901C-8E7FF5CB5189";
paths = (
{
closed = 1;
nodes = (
"385 382 CURVE SMOOTH",
"385 355 OFFCURVE",
"363 333 OFFCURVE",
"336 333 CURVE SMOOTH",
"332 333 OFFCURVE",
"328 334 OFFCURVE",
"324 335 CURVE",
"320 334 OFFCURVE",
"315 333 OFFCURVE",
"311 333 CURVE SMOOTH",
"302 333 OFFCURVE",
"293 336 OFFCURVE",
"286 340 CURVE",
"279 336 OFFCURVE",
"270 333 OFFCURVE",
"261 333 CURVE SMOOTH",
"257 333 OFFCURVE",
"253 334 OFFCURVE",
"249 335 CURVE",
"245 334 OFFCURVE",
"240 333 OFFCURVE",
"236 333 CURVE SMOOTH",
"227 333 OFFCURVE",
"218 336 OFFCURVE",
"211 340 CURVE",
"204 336 OFFCURVE",
"195 333 OFFCURVE",
"186 333 CURVE SMOOTH",
"182 333 OFFCURVE",
"178 334 OFFCURVE",
"174 335 CURVE",
"170 334 OFFCURVE",
"165 333 OFFCURVE",
"161 333 CURVE SMOOTH",
"134 333 OFFCURVE",
"112 355 OFFCURVE",
"112 382 CURVE SMOOTH",
"112 409 OFFCURVE",
"134 431 OFFCURVE",
"161 431 CURVE SMOOTH",
"165 431 OFFCURVE",
"170 431 OFFCURVE",
"174 430 CURVE",
"178 431 OFFCURVE",
"182 431 OFFCURVE",
"186 431 CURVE SMOOTH",
"195 431 OFFCURVE",
"204 428 OFFCURVE",
"211 424 CURVE",
"218 428 OFFCURVE",
"227 431 OFFCURVE",
"236 431 CURVE SMOOTH",
"240 431 OFFCURVE",
"245 431 OFFCURVE",
"249 430 CURVE",
"253 431 OFFCURVE",
"257 431 OFFCURVE",
"261 431 CURVE SMOOTH",
"270 431 OFFCURVE",
"279 428 OFFCURVE",
"286 424 CURVE",
"293 428 OFFCURVE",
"302 431 OFFCURVE",
"311 431 CURVE SMOOTH",
"315 431 OFFCURVE",
"320 431 OFFCURVE",
"324 430 CURVE",
"328 431 OFFCURVE",
"332 431 OFFCURVE",
"336 431 CURVE SMOOTH",
"363 431 OFFCURVE",
"385 409 OFFCURVE"
);
},
{
closed = 1;
nodes = (
"160 293 CURVE SMOOTH",
"160 266 OFFCURVE",
"138 244 OFFCURVE",
"111 244 CURVE SMOOTH",
"107 244 OFFCURVE",
"103 245 OFFCURVE",
"99 246 CURVE",
"113 237 OFFCURVE",
"122 221 OFFCURVE",
"122 204 CURVE SMOOTH",
"122 184 OFFCURVE",
"111 168 OFFCURVE",
"94 160 CURVE",
"111 152 OFFCURVE",
"122 136 OFFCURVE",
"122 116 CURVE SMOOTH",
"122 89 OFFCURVE",
"100 67 OFFCURVE",
"73 67 CURVE SMOOTH",
"69 67 OFFCURVE",
"65 67 OFFCURVE",
"61 68 CURVE",
"57 67 OFFCURVE",
"53 67 OFFCURVE",
"49 67 CURVE SMOOTH",
"22 67 OFFCURVE",
"0 89 OFFCURVE",
"0 116 CURVE SMOOTH",
"0 136 OFFCURVE",
"12 152 OFFCURVE",
"29 160 CURVE",
"12 168 OFFCURVE",
"0 184 OFFCURVE",
"0 204 CURVE SMOOTH",
"0 231 OFFCURVE",
"22 253 OFFCURVE",
"49 253 CURVE SMOOTH",
"53 253 OFFCURVE",
"56 253 OFFCURVE",
"60 252 CURVE",
"46 261 OFFCURVE",
"37 276 OFFCURVE",
"37 293 CURVE SMOOTH",
"37 320 OFFCURVE",
"59 342 OFFCURVE",
"86 342 CURVE SMOOTH",
"90 342 OFFCURVE",
"95 342 OFFCURVE",
"99 341 CURVE",
"103 342 OFFCURVE",
"107 342 OFFCURVE",
"111 342 CURVE SMOOTH",
"138 342 OFFCURVE",
"160 320 OFFCURVE"
);
},
{
closed = 1;
nodes = (
"347 27 CURVE SMOOTH",
"347 0 OFFCURVE",
"325 -22 OFFCURVE",
"298 -22 CURVE SMOOTH",
"294 -22 OFFCURVE",
"290 -22 OFFCURVE",
"286 -21 CURVE",
"282 -22 OFFCURVE",
"278 -22 OFFCURVE",
"274 -22 CURVE SMOOTH",
"265 -22 OFFCURVE",
"256 -19 OFFCURVE",
"249 -15 CURVE",
"242 -19 OFFCURVE",
"232 -22 OFFCURVE",
"223 -22 CURVE SMOOTH",
"219 -22 OFFCURVE",
"215 -22 OFFCURVE",
"211 -21 CURVE",
"207 -22 OFFCURVE",
"203 -22 OFFCURVE",
"199 -22 CURVE SMOOTH",
"190 -22 OFFCURVE",
"181 -19 OFFCURVE",
"174 -15 CURVE",
"167 -19 OFFCURVE",
"157 -22 OFFCURVE",
"148 -22 CURVE SMOOTH",
"144 -22 OFFCURVE",
"140 -22 OFFCURVE",
"136 -21 CURVE",
"132 -22 OFFCURVE",
"128 -22 OFFCURVE",
"124 -22 CURVE SMOOTH",
"97 -22 OFFCURVE",
"75 0 OFFCURVE",
"75 27 CURVE SMOOTH",
"75 54 OFFCURVE",
"97 76 OFFCURVE",
"124 76 CURVE SMOOTH",
"128 76 OFFCURVE",
"132 75 OFFCURVE",
"136 74 CURVE",
"140 75 OFFCURVE",
"144 76 OFFCURVE",
"148 76 CURVE SMOOTH",
"157 76 OFFCURVE",
"167 73 OFFCURVE",
"174 69 CURVE",
"181 73 OFFCURVE",
"190 76 OFFCURVE",
"199 76 CURVE SMOOTH",
"203 76 OFFCURVE",
"207 75 OFFCURVE",
"211 74 CURVE",
"215 75 OFFCURVE",
"219 76 OFFCURVE",
"223 76 CURVE SMOOTH",
"232 76 OFFCURVE",
"242 73 OFFCURVE",
"249 69 CURVE",
"256 73 OFFCURVE",
"265 76 OFFCURVE",
"274 76 CURVE SMOOTH",
"278 76 OFFCURVE",
"282 75 OFFCURVE",
"286 74 CURVE",
"290 75 OFFCURVE",
"294 76 OFFCURVE",
"298 76 CURVE SMOOTH",
"325 76 OFFCURVE",
"347 54 OFFCURVE"
);
}
);
width = 450;
}
);
unicode = 0063;
userData = {
com.fontlab.hintData = {
hhints = (
{
position = -22;
width = 98;
},
{
position = 244;
width = 98;
},
{
position = 333;
width = 98;
}
);
vhints = (
{
position = 0;
width = 122;
},
{
position = 37;
width = 123;
},
{
position = 75;
width = 272;
},
{
position = 112;
width = 273;
}
);
};
};
},
{
glyphname = d;
lastChange = "2017-08-06 04:52:05 +0000";
layers = (
{
layerId = "1F496C02-BC74-4D01-901C-8E7FF5CB5189";
paths = (
{
closed = 1;
nodes = (
"422 560 CURVE SMOOTH",
"422 540 OFFCURVE",
"411 524 OFFCURVE",
"394 516 CURVE",
"411 508 OFFCURVE",
"422 491 OFFCURVE",
"422 471 CURVE SMOOTH",
"422 444 OFFCURVE",
"400 422 OFFCURVE",
"373 422 CURVE SMOOTH",
"369 422 OFFCURVE",
"366 423 OFFCURVE",
"362 424 CURVE",
"376 415 OFFCURVE",
"385 399 OFFCURVE",
"385 382 CURVE SMOOTH",
"385 362 OFFCURVE",
"373 346 OFFCURVE",
"356 338 CURVE",
"373 330 OFFCURVE",
"385 313 OFFCURVE",
"385 293 CURVE SMOOTH",
"385 273 OFFCURVE",
"373 257 OFFCURVE",
"356 249 CURVE",
"373 241 OFFCURVE",
"385 224 OFFCURVE",
"385 204 CURVE SMOOTH",
"385 177 OFFCURVE",
"363 156 OFFCURVE",
"336 156 CURVE SMOOTH",
"332 156 OFFCURVE",
"328 156 OFFCURVE",
"324 157 CURVE",
"338 148 OFFCURVE",
"347 133 OFFCURVE",
"347 116 CURVE SMOOTH",
"347 96 OFFCURVE",
"336 79 OFFCURVE",
"319 71 CURVE",
"336 63 OFFCURVE",
"347 47 OFFCURVE",
"347 27 CURVE SMOOTH",
"347 0 OFFCURVE",
"325 -22 OFFCURVE",
"298 -22 CURVE SMOOTH",
"294 -22 OFFCURVE",
"290 -22 OFFCURVE",
"286 -21 CURVE",
"282 -22 OFFCURVE",
"278 -22 OFFCURVE",
"274 -22 CURVE SMOOTH",
"265 -22 OFFCURVE",
"256 -19 OFFCURVE",
"249 -15 CURVE",
"242 -19 OFFCURVE",
"232 -22 OFFCURVE",
"223 -22 CURVE SMOOTH",
"219 -22 OFFCURVE",
"215 -22 OFFCURVE",
"211 -21 CURVE",
"207 -22 OFFCURVE",
"203 -22 OFFCURVE",
"199 -22 CURVE SMOOTH",
"190 -22 OFFCURVE",
"181 -19 OFFCURVE",
"174 -15 CURVE",
"167 -19 OFFCURVE",
"157 -22 OFFCURVE",
"148 -22 CURVE SMOOTH",
"144 -22 OFFCURVE",
"140 -22 OFFCURVE",
"136 -21 CURVE",
"132 -22 OFFCURVE",
"128 -22 OFFCURVE",
"124 -22 CURVE SMOOTH",
"97 -22 OFFCURVE",
"75 0 OFFCURVE",
"75 27 CURVE SMOOTH",
"75 54 OFFCURVE",
"97 76 OFFCURVE",
"124 76 CURVE SMOOTH",
"128 76 OFFCURVE",
"132 75 OFFCURVE",
"136 74 CURVE",
"140 75 OFFCURVE",
"144 76 OFFCURVE",
"148 76 CURVE SMOOTH",
"157 76 OFFCURVE",
"167 73 OFFCURVE",
"174 69 CURVE",
"181 73 OFFCURVE",
"190 76 OFFCURVE",
"199 76 CURVE SMOOTH",
"203 76 OFFCURVE",
"207 75 OFFCURVE",
"211 74 CURVE",
"215 75 OFFCURVE",
"219 76 OFFCURVE",
"223 76 CURVE SMOOTH",
"232 76 OFFCURVE",
"242 73 OFFCURVE",
"249 69 CURVE",
"251 70 OFFCURVE",
"252 70 OFFCURVE",
"254 71 CURVE",
"237 79 OFFCURVE",
"225 96 OFFCURVE",
"225 116 CURVE SMOOTH",
"225 143 OFFCURVE",
"247 164 OFFCURVE",
"274 164 CURVE SMOOTH",
"278 164 OFFCURVE",
"281 164 OFFCURVE",
"285 163 CURVE",
"271 172 OFFCURVE",
"262 187 OFFCURVE",
"262 204 CURVE SMOOTH",
"262 224 OFFCURVE",
"274 241 OFFCURVE",
"291 249 CURVE",
"274 257 OFFCURVE",
"262 273 OFFCURVE",
"262 293 CURVE SMOOTH",
"262 313 OFFCURVE",
"274 330 OFFCURVE",
"291 338 CURVE",
"289 339 OFFCURVE",
"288 339 OFFCURVE",
"286 340 CURVE",
"279 336 OFFCURVE",
"270 333 OFFCURVE",
"261 333 CURVE SMOOTH",
"257 333 OFFCURVE",
"253 334 OFFCURVE",
"249 335 CURVE",
"245 334 OFFCURVE",
"240 333 OFFCURVE",
"236 333 CURVE SMOOTH",
"227 333 OFFCURVE",
"218 336 OFFCURVE",
"211 340 CURVE",
"204 336 OFFCURVE",
"195 333 OFFCURVE",
"186 333 CURVE SMOOTH",
"182 333 OFFCURVE",
"178 334 OFFCURVE",
"174 335 CURVE",
"170 334 OFFCURVE",
"165 333 OFFCURVE",
"161 333 CURVE SMOOTH",
"134 333 OFFCURVE",
"112 355 OFFCURVE",
"112 382 CURVE SMOOTH",
"112 409 OFFCURVE",
"134 431 OFFCURVE",
"161 431 CURVE SMOOTH",
"165 431 OFFCURVE",
"170 431 OFFCURVE",
"174 430 CURVE",
"178 431 OFFCURVE",
"182 431 OFFCURVE",
"186 431 CURVE SMOOTH",
"195 431 OFFCURVE",
"204 428 OFFCURVE",
"211 424 CURVE",
"218 428 OFFCURVE",
"227 431 OFFCURVE",
"236 431 CURVE SMOOTH",
"240 431 OFFCURVE",
"245 431 OFFCURVE",
"249 430 CURVE",
"253 431 OFFCURVE",
"257 431 OFFCURVE",
"261 431 CURVE SMOOTH",
"270 431 OFFCURVE",
"279 428 OFFCURVE",
"286 424 CURVE",
"293 428 OFFCURVE",
"302 431 OFFCURVE",
"311 431 CURVE SMOOTH",
"315 431 OFFCURVE",
"319 431 OFFCURVE",
"323 430 CURVE",
"309 439 OFFCURVE",
"300 454 OFFCURVE",
"300 471 CURVE SMOOTH",
"300 491 OFFCURVE",
"312 508 OFFCURVE",
"329 516 CURVE",
"312 524 OFFCURVE",
"300 540 OFFCURVE",
"300 560 CURVE SMOOTH",
"300 587 OFFCURVE",
"322 609 OFFCURVE",
"349 609 CURVE SMOOTH",
"353 609 OFFCURVE",
"357 608 OFFCURVE",
"361 607 CURVE",
"365 608 OFFCURVE",
"369 609 OFFCURVE",
"373 609 CURVE SMOOTH",
"400 609 OFFCURVE",
"422 587 OFFCURVE"
);
},
{
closed = 1;
nodes = (
"160 293 CURVE SMOOTH",
"160 266 OFFCURVE",
"138 244 OFFCURVE",
"111 244 CURVE SMOOTH",
"107 244 OFFCURVE",
"103 245 OFFCURVE",
"99 246 CURVE",
"113 237 OFFCURVE",
"122 221 OFFCURVE",
"122 204 CURVE SMOOTH",
"122 184 OFFCURVE",
"111 168 OFFCURVE",
"94 160 CURVE",
"111 152 OFFCURVE",
"122 136 OFFCURVE",
"122 116 CURVE SMOOTH",
"122 89 OFFCURVE",
"100 67 OFFCURVE",
"73 67 CURVE SMOOTH",
"69 67 OFFCURVE",
"65 67 OFFCURVE",
"61 68 CURVE",
"57 67 OFFCURVE",
"53 67 OFFCURVE",
"49 67 CURVE SMOOTH",
"22 67 OFFCURVE",
"0 89 OFFCURVE",
"0 116 CURVE SMOOTH",
"0 136 OFFCURVE",
"12 152 OFFCURVE",
"29 160 CURVE",
"12 168 OFFCURVE",
"0 184 OFFCURVE",
"0 204 CURVE SMOOTH",
"0 231 OFFCURVE",
"22 253 OFFCURVE",
"49 253 CURVE SMOOTH",
"53 253 OFFCURVE",
"56 253 OFFCURVE",
"60 252 CURVE",
"46 261 OFFCURVE",
"37 276 OFFCURVE",
"37 293 CURVE SMOOTH",
"37 320 OFFCURVE",
"59 342 OFFCURVE",
"86 342 CURVE SMOOTH",
"90 342 OFFCURVE",
"95 342 OFFCURVE",
"99 341 CURVE",
"103 342 OFFCURVE",
"107 342 OFFCURVE",
"111 342 CURVE SMOOTH",
"138 342 OFFCURVE",
"160 320 OFFCURVE"
);
}
);
width = 450;
}
);
unicode = 0064;
userData = {
com.fontlab.hintData = {
hhints = (
{
position = -22;
width = 98;
},
{
position = 244;
width = 98;
},
{
position = 333;
width = 98;
},
{
position = 589;
width = 20;
}
);
vhints = (
{
position = 0;
width = 122;
},
{
position = 37;
width = 123;
},
{
position = 75;
width = 272;
},
{
position = 112;
width = 273;
},
{
position = 225;
width = 122;
},
{
position = 262;
width = 123;
},
{
position = 300;
width = 122;
}
);
};
};
},
{
glyphname = e;
lastChange = "2017-08-06 04:52:05 +0000";
layers = (
{
layerId = "1F496C02-BC74-4D01-901C-8E7FF5CB5189";
paths = (
{
closed = 1;
nodes = (
"347 382 CURVE SMOOTH",
"347 365 OFFCURVE",
"338 350 OFFCURVE",
"324 341 CURVE",
"328 342 OFFCURVE",
"332 342 OFFCURVE",
"336 342 CURVE SMOOTH",
"363 342 OFFCURVE",
"385 320 OFFCURVE",
"385 293 CURVE SMOOTH",
"385 266 OFFCURVE",
"363 244 OFFCURVE",
"336 244 CURVE SMOOTH",
"332 244 OFFCURVE",
"328 245 OFFCURVE",
"324 246 CURVE",
"338 237 OFFCURVE",
"347 221 OFFCURVE",
"347 204 CURVE SMOOTH",
"347 177 OFFCURVE",
"325 156 OFFCURVE",
"298 156 CURVE SMOOTH",
"294 156 OFFCURVE",
"290 156 OFFCURVE",
"286 157 CURVE",
"282 156 OFFCURVE",
"278 156 OFFCURVE",
"274 156 CURVE SMOOTH",
"265 156 OFFCURVE",
"256 159 OFFCURVE",
"249 163 CURVE",
"242 159 OFFCURVE",
"232 156 OFFCURVE",
"223 156 CURVE SMOOTH",
"219 156 OFFCURVE",
"215 156 OFFCURVE",
"211 157 CURVE",
"207 156 OFFCURVE",
"203 156 OFFCURVE",
"199 156 CURVE SMOOTH",
"190 156 OFFCURVE",
"181 159 OFFCURVE",
"174 163 CURVE",
"167 159 OFFCURVE",
"157 156 OFFCURVE",
"148 156 CURVE SMOOTH",
"144 156 OFFCURVE",
"140 156 OFFCURVE",
"136 157 CURVE",
"132 156 OFFCURVE",
"128 156 OFFCURVE",
"124 156 CURVE SMOOTH",
"115 156 OFFCURVE",
"106 159 OFFCURVE",
"99 163 CURVE",
"97 162 OFFCURVE",
"96 161 OFFCURVE",
"94 160 CURVE",
"111 152 OFFCURVE",
"122 136 OFFCURVE",
"122 116 CURVE SMOOTH",
"122 99 OFFCURVE",
"113 83 OFFCURVE",
"99 74 CURVE",
"103 75 OFFCURVE",
"107 76 OFFCURVE",
"111 76 CURVE SMOOTH",
"120 76 OFFCURVE",
"129 73 OFFCURVE",
"136 69 CURVE",
"143 73 OFFCURVE",
"152 76 OFFCURVE",
"161 76 CURVE SMOOTH",
"165 76 OFFCURVE",
"170 75 OFFCURVE",
"174 74 CURVE",
"178 75 OFFCURVE",
"182 76 OFFCURVE",
"186 76 CURVE SMOOTH",
"195 76 OFFCURVE",
"204 73 OFFCURVE",
"211 69 CURVE",
"218 73 OFFCURVE",
"227 76 OFFCURVE",
"236 76 CURVE SMOOTH",
"240 76 OFFCURVE",
"245 75 OFFCURVE",
"249 74 CURVE",
"253 75 OFFCURVE",
"257 76 OFFCURVE",
"261 76 CURVE SMOOTH",
"288 76 OFFCURVE",
"310 54 OFFCURVE",
"310 27 CURVE SMOOTH",
"310 0 OFFCURVE",
"288 -22 OFFCURVE",
"261 -22 CURVE SMOOTH",
"257 -22 OFFCURVE",
"253 -22 OFFCURVE",
"249 -21 CURVE",
"245 -22 OFFCURVE",
"240 -22 OFFCURVE",
"236 -22 CURVE SMOOTH",
"227 -22 OFFCURVE",
"218 -19 OFFCURVE",
"211 -15 CURVE",
"204 -19 OFFCURVE",
"195 -22 OFFCURVE",
"186 -22 CURVE SMOOTH",
"182 -22 OFFCURVE",
"178 -22 OFFCURVE",
"174 -21 CURVE",
"170 -22 OFFCURVE",
"165 -22 OFFCURVE",
"161 -22 CURVE SMOOTH",
"152 -22 OFFCURVE",
"143 -19 OFFCURVE",
"136 -15 CURVE",
"129 -19 OFFCURVE",
"120 -22 OFFCURVE",
"111 -22 CURVE SMOOTH",
"107 -22 OFFCURVE",
"103 -22 OFFCURVE",
"99 -21 CURVE",
"95 -22 OFFCURVE",
"90 -22 OFFCURVE",
"86 -22 CURVE SMOOTH",
"59 -22 OFFCURVE",
"37 0 OFFCURVE",
"37 27 CURVE SMOOTH",
"37 44 OFFCURVE",
"46 59 OFFCURVE",
"60 68 CURVE",
"56 67 OFFCURVE",
"53 67 OFFCURVE",
"49 67 CURVE SMOOTH",
"22 67 OFFCURVE",
"0 89 OFFCURVE",
"0 116 CURVE SMOOTH",
"0 136 OFFCURVE",
"12 152 OFFCURVE",
"29 160 CURVE",
"12 168 OFFCURVE",
"0 184 OFFCURVE",
"0 204 CURVE SMOOTH",
"0 231 OFFCURVE",
"22 253 OFFCURVE",
"49 253 CURVE SMOOTH",
"53 253 OFFCURVE",
"56 253 OFFCURVE",
"60 252 CURVE",
"46 261 OFFCURVE",
"37 276 OFFCURVE",
"37 293 CURVE SMOOTH",
"37 320 OFFCURVE",
"59 342 OFFCURVE",
"86 342 CURVE SMOOTH",
"90 342 OFFCURVE",
"94 342 OFFCURVE",
"98 341 CURVE",
"84 350 OFFCURVE",
"75 365 OFFCURVE",
"75 382 CURVE SMOOTH",
"75 409 OFFCURVE",
"97 431 OFFCURVE",
"124 431 CURVE SMOOTH",
"128 431 OFFCURVE",
"132 431 OFFCURVE",
"136 430 CURVE",
"140 431 OFFCURVE",
"144 431 OFFCURVE",
"148 431 CURVE SMOOTH",
"157 431 OFFCURVE",
"167 428 OFFCURVE",
"174 424 CURVE",
"181 428 OFFCURVE",
"190 431 OFFCURVE",
"199 431 CURVE SMOOTH",
"203 431 OFFCURVE",
"207 431 OFFCURVE",
"211 430 CURVE",
"215 431 OFFCURVE",
"219 431 OFFCURVE",
"223 431 CURVE SMOOTH",
"232 431 OFFCURVE",
"242 428 OFFCURVE",
"249 424 CURVE",
"256 428 OFFCURVE",
"265 431 OFFCURVE",
"274 431 CURVE SMOOTH",
"278 431 OFFCURVE",
"282 431 OFFCURVE",
"286 430 CURVE",
"290 431 OFFCURVE",
"294 431 OFFCURVE",
"298 431 CURVE SMOOTH",
"325 431 OFFCURVE",
"347 409 OFFCURVE"
);
},
{
closed = 1;
nodes = (
"174 340 CURVE",
"167 336 OFFCURVE",
"157 333 OFFCURVE",
"148 333 CURVE SMOOTH",
"144 333 OFFCURVE",
"141 334 OFFCURVE",
"137 335 CURVE",
"151 326 OFFCURVE",
"160 310 OFFCURVE",
"160 293 CURVE SMOOTH",
"160 276 OFFCURVE",
"151 261 OFFCURVE",
"137 252 CURVE",
"141 253 OFFCURVE",
"144 253 OFFCURVE",
"148 253 CURVE SMOOTH",
"157 253 OFFCURVE",
"167 250 OFFCURVE",
"174 246 CURVE",
"181 250 OFFCURVE",
"190 253 OFFCURVE",
"199 253 CURVE SMOOTH",
"203 253 OFFCURVE",
"207 253 OFFCURVE",
"211 252 CURVE",
"215 253 OFFCURVE",
"219 253 OFFCURVE",
"223 253 CURVE SMOOTH",
"232 253 OFFCURVE",
"242 250 OFFCURVE",
"249 246 CURVE",
"256 250 OFFCURVE",
"265 253 OFFCURVE",
"274 253 CURVE SMOOTH",
"278 253 OFFCURVE",
"281 253 OFFCURVE",
"285 252 CURVE",
"271 261 OFFCURVE",
"262 276 OFFCURVE",
"262 293 CURVE SMOOTH",
"262 310 OFFCURVE",
"271 326 OFFCURVE",
"285 335 CURVE",
"281 334 OFFCURVE",
"278 333 OFFCURVE",
"274 333 CURVE SMOOTH",
"265 333 OFFCURVE",
"256 336 OFFCURVE",
"249 340 CURVE",
"242 336 OFFCURVE",
"232 333 OFFCURVE",
"223 333 CURVE SMOOTH",
"219 333 OFFCURVE",
"215 334 OFFCURVE",
"211 335 CURVE",
"207 334 OFFCURVE",
"203 333 OFFCURVE",
"199 333 CURVE SMOOTH",
"190 333 OFFCURVE",
"181 336 OFFCURVE"
);
}
);
width = 450;
}
);
unicode = 0065;
userData = {
com.fontlab.hintData = {
hhints = (
{
position = -22;
width = 98;
},
{
position = 156;
width = 97;
},
{
position = 244;
width = 98;
},
{
position = 333;
width = 98;
}
);
vhints = (
{
position = 0;
width = 122;
},
{
position = 37;
width = 273;
},
{
position = 37;
width = 123;
},
{
position = 75;
width = 272;
},
{
position = 262;
width = 123;
}
);
};
};
},
{
glyphname = f;
lastChange = "2017-08-06 04:52:05 +0000";
layers = (
{
layerId = "1F496C02-BC74-4D01-901C-8E7FF5CB5189";
paths = (
{
closed = 1;
nodes = (
"422 560 CURVE SMOOTH",
"422 533 OFFCURVE",
"400 511 OFFCURVE",
"373 511 CURVE SMOOTH",
"369 511 OFFCURVE",
"365 512 OFFCURVE",
"361 513 CURVE",
"357 512 OFFCURVE",
"353 511 OFFCURVE",
"349 511 CURVE SMOOTH",
"340 511 OFFCURVE",
"331 514 OFFCURVE",
"324 518 CURVE",
"317 514 OFFCURVE",
"307 511 OFFCURVE",
"298 511 CURVE SMOOTH",
"294 511 OFFCURVE",
"290 512 OFFCURVE",
"286 513 CURVE",
"282 512 OFFCURVE",
"278 511 OFFCURVE",
"274 511 CURVE SMOOTH",
"247 511 OFFCURVE",
"225 533 OFFCURVE",
"225 560 CURVE SMOOTH",
"225 587 OFFCURVE",
"247 609 OFFCURVE",
"274 609 CURVE SMOOTH",
"278 609 OFFCURVE",
"282 608 OFFCURVE",
"286 607 CURVE",
"290 608 OFFCURVE",
"294 609 OFFCURVE",
"298 609 CURVE SMOOTH",
"307 609 OFFCURVE",
"317 606 OFFCURVE",
"324 602 CURVE",
"331 606 OFFCURVE",
"340 609 OFFCURVE",
"349 609 CURVE SMOOTH",
"353 609 OFFCURVE",
"357 608 OFFCURVE",
"361 607 CURVE",
"365 608 OFFCURVE",
"369 609 OFFCURVE",
"373 609 CURVE SMOOTH",
"400 609 OFFCURVE",
"422 587 OFFCURVE"
);
},
{
closed = 1;
nodes = (
"272 471 CURVE SMOOTH",
"272 451 OFFCURVE",
"261 435 OFFCURVE",
"244 427 CURVE",
"246 426 OFFCURVE",
"247 425 OFFCURVE",
"249 424 CURVE",
"256 428 OFFCURVE",
"265 431 OFFCURVE",
"274 431 CURVE SMOOTH",
"278 431 OFFCURVE",
"282 431 OFFCURVE",
"286 430 CURVE",
"290 431 OFFCURVE",
"294 431 OFFCURVE",
"298 431 CURVE SMOOTH",
"325 431 OFFCURVE",
"347 409 OFFCURVE",
"347 382 CURVE SMOOTH",
"347 355 OFFCURVE",
"325 333 OFFCURVE",
"298 333 CURVE SMOOTH",
"294 333 OFFCURVE",
"290 334 OFFCURVE",
"286 335 CURVE",
"282 334 OFFCURVE",
"278 333 OFFCURVE",
"274 333 CURVE SMOOTH",
"265 333 OFFCURVE",
"256 336 OFFCURVE",
"249 340 CURVE",
"242 336 OFFCURVE",
"232 333 OFFCURVE",
"223 333 CURVE SMOOTH",
"219 333 OFFCURVE",
"216 334 OFFCURVE",
"212 335 CURVE",
"226 326 OFFCURVE",
"235 310 OFFCURVE",
"235 293 CURVE SMOOTH",
"235 273 OFFCURVE",
"223 257 OFFCURVE",
"206 249 CURVE",
"223 241 OFFCURVE",
"235 224 OFFCURVE",
"235 204 CURVE SMOOTH",
"235 177 OFFCURVE",
"213 156 OFFCURVE",
"186 156 CURVE SMOOTH",
"182 156 OFFCURVE",
"178 156 OFFCURVE",
"174 157 CURVE",
"188 148 OFFCURVE",
"197 133 OFFCURVE",
"197 116 CURVE SMOOTH",
"197 96 OFFCURVE",
"186 79 OFFCURVE",
"169 71 CURVE",
"186 63 OFFCURVE",
"197 47 OFFCURVE",
"197 27 CURVE SMOOTH",
"197 0 OFFCURVE",
"175 -22 OFFCURVE",
"148 -22 CURVE SMOOTH",
"144 -22 OFFCURVE",
"140 -22 OFFCURVE",
"136 -21 CURVE",
"132 -22 OFFCURVE",
"128 -22 OFFCURVE",
"124 -22 CURVE SMOOTH",
"97 -22 OFFCURVE",
"75 0 OFFCURVE",
"75 27 CURVE SMOOTH",
"75 47 OFFCURVE",
"87 63 OFFCURVE",
"104 71 CURVE",
"87 79 OFFCURVE",
"75 96 OFFCURVE",
"75 116 CURVE SMOOTH",
"75 143 OFFCURVE",
"97 164 OFFCURVE",
"124 164 CURVE SMOOTH",
"128 164 OFFCURVE",
"131 164 OFFCURVE",
"135 163 CURVE",
"121 172 OFFCURVE",
"112 187 OFFCURVE",
"112 204 CURVE SMOOTH",
"112 224 OFFCURVE",
"124 241 OFFCURVE",
"141 249 CURVE",
"124 257 OFFCURVE",
"112 273 OFFCURVE",
"112 293 CURVE SMOOTH",
"112 310 OFFCURVE",
"121 326 OFFCURVE",
"135 335 CURVE",
"131 334 OFFCURVE",
"128 333 OFFCURVE",
"124 333 CURVE SMOOTH",
"115 333 OFFCURVE",
"106 336 OFFCURVE",
"99 340 CURVE",
"92 336 OFFCURVE",
"82 333 OFFCURVE",
"73 333 CURVE SMOOTH",
"69 333 OFFCURVE",
"65 334 OFFCURVE",
"61 335 CURVE",
"57 334 OFFCURVE",
"53 333 OFFCURVE",
"49 333 CURVE SMOOTH",
"22 333 OFFCURVE",
"0 355 OFFCURVE",
"0 382 CURVE SMOOTH",
"0 409 OFFCURVE",
"22 431 OFFCURVE",
"49 431 CURVE SMOOTH",
"53 431 OFFCURVE",
"57 431 OFFCURVE",
"61 430 CURVE",
"65 431 OFFCURVE",
"69 431 OFFCURVE",
"73 431 CURVE SMOOTH",
"82 431 OFFCURVE",
"92 428 OFFCURVE",
"99 424 CURVE",
"106 428 OFFCURVE",
"115 431 OFFCURVE",
"124 431 CURVE SMOOTH",
"128 431 OFFCURVE",
"132 431 OFFCURVE",
"136 430 CURVE",
"140 431 OFFCURVE",
"144 431 OFFCURVE",
"148 431 CURVE SMOOTH",
"157 431 OFFCURVE",
"167 428 OFFCURVE",
"174 424 CURVE",
"176 425 OFFCURVE",
"177 426 OFFCURVE",
"179 427 CURVE",
"162 435 OFFCURVE",
"150 451 OFFCURVE",
"150 471 CURVE SMOOTH",
"150 498 OFFCURVE",
"172 520 OFFCURVE",
"199 520 CURVE SMOOTH",
"203 520 OFFCURVE",
"207 519 OFFCURVE",
"211 518 CURVE",
"215 519 OFFCURVE",
"219 520 OFFCURVE",
"223 520 CURVE SMOOTH",
"250 520 OFFCURVE",
"272 498 OFFCURVE"
);
}
);
width = 450;
}
);
unicode = 0066;
userData = {
com.fontlab.hintData = {
hhints = (
{
position = -22;
width = 21;
},
{
position = -22;
width = 21;
},
{
position = 333;
width = 98;
},
{
position = 511;
width = 98;
}
);
vhints = (
{
position = 75;
width = 122;
},
{
position = 112;
width = 123;
},
{
position = 150;
width = 122;
},
{
position = 225;
width = 197;
}
);
};
};
},
{
glyphname = g;
lastChange = "2017-08-06 04:52:05 +0000";
layers = (
{
layerId = "1F496C02-BC74-4D01-901C-8E7FF5CB5189";
paths = (
{
closed = 1;
nodes = (
"422 382 CURVE SMOOTH",
"422 362 OFFCURVE",
"411 346 OFFCURVE",
"394 338 CURVE",
"411 330 OFFCURVE",
"422 313 OFFCURVE",
"422 293 CURVE SMOOTH",
"422 266 OFFCURVE",
"400 244 OFFCURVE",
"373 244 CURVE SMOOTH",
"369 244 OFFCURVE",
"366 245 OFFCURVE",
"362 246 CURVE",
"376 237 OFFCURVE",
"385 221 OFFCURVE",
"385 204 CURVE SMOOTH",
"385 184 OFFCURVE",
"373 168 OFFCURVE",
"356 160 CURVE",
"373 152 OFFCURVE",
"385 136 OFFCURVE",
"385 116 CURVE SMOOTH",
"385 89 OFFCURVE",
"363 67 OFFCURVE",
"336 67 CURVE SMOOTH",
"332 67 OFFCURVE",
"328 67 OFFCURVE",
"324 68 CURVE",
"338 59 OFFCURVE",
"347 44 OFFCURVE",
"347 27 CURVE SMOOTH",
"347 7 OFFCURVE",
"336 -10 OFFCURVE",
"319 -18 CURVE",
"336 -26 OFFCURVE",
"347 -42 OFFCURVE",
"347 -62 CURVE SMOOTH",
"347 -89 OFFCURVE",
"325 -111 OFFCURVE",
"298 -111 CURVE SMOOTH",
"294 -111 OFFCURVE",
"290 -111 OFFCURVE",
"286 -110 CURVE",
"282 -111 OFFCURVE",
"278 -111 OFFCURVE",
"274 -111 CURVE SMOOTH",
"247 -111 OFFCURVE",
"225 -89 OFFCURVE",
"225 -62 CURVE SMOOTH",
"225 -42 OFFCURVE",
"237 -26 OFFCURVE",
"254 -18 CURVE",
"252 -17 OFFCURVE",
"251 -16 OFFCURVE",
"249 -15 CURVE",
"242 -19 OFFCURVE",
"232 -22 OFFCURVE",
"223 -22 CURVE SMOOTH",
"219 -22 OFFCURVE",
"215 -22 OFFCURVE",
"211 -21 CURVE",
"207 -22 OFFCURVE",
"203 -22 OFFCURVE",
"199 -22 CURVE SMOOTH",
"190 -22 OFFCURVE",
"181 -19 OFFCURVE",
"174 -15 CURVE",
"167 -19 OFFCURVE",
"157 -22 OFFCURVE",
"148 -22 CURVE SMOOTH",
"144 -22 OFFCURVE",
"140 -22 OFFCURVE",
"136 -21 CURVE",
"132 -22 OFFCURVE",
"128 -22 OFFCURVE",
"124 -22 CURVE SMOOTH",
"97 -22 OFFCURVE",
"75 0 OFFCURVE",
"75 27 CURVE SMOOTH",
"75 44 OFFCURVE",
"84 59 OFFCURVE",
"98 68 CURVE",
"94 67 OFFCURVE",
"90 67 OFFCURVE",
"86 67 CURVE SMOOTH",
"59 67 OFFCURVE",
"37 89 OFFCURVE",
"37 116 CURVE SMOOTH",
"37 136 OFFCURVE",
"49 152 OFFCURVE",
"66 160 CURVE",
"49 168 OFFCURVE",
"37 184 OFFCURVE",
"37 204 CURVE SMOOTH",
"37 231 OFFCURVE",
"59 253 OFFCURVE",
"86 253 CURVE SMOOTH",
"90 253 OFFCURVE",
"94 253 OFFCURVE",
"98 252 CURVE",
"84 261 OFFCURVE",
"75 276 OFFCURVE",
"75 293 CURVE SMOOTH",
"75 320 OFFCURVE",
"97 342 OFFCURVE",
"124 342 CURVE SMOOTH",
"128 342 OFFCURVE",
"132 342 OFFCURVE",
"136 341 CURVE",
"140 342 OFFCURVE",
"144 342 OFFCURVE",
"148 342 CURVE SMOOTH",
"175 342 OFFCURVE",
"197 320 OFFCURVE",
"197 293 CURVE SMOOTH",
"197 266 OFFCURVE",
"175 244 OFFCURVE",
"148 244 CURVE SMOOTH",
"144 244 OFFCURVE",
"141 245 OFFCURVE",
"137 246 CURVE",
"151 237 OFFCURVE",
"160 221 OFFCURVE",
"160 204 CURVE SMOOTH",
"160 184 OFFCURVE",
"148 168 OFFCURVE",
"131 160 CURVE",
"148 152 OFFCURVE",
"160 136 OFFCURVE",
"160 116 CURVE SMOOTH",
"160 99 OFFCURVE",
"151 83 OFFCURVE",
"137 74 CURVE",
"141 75 OFFCURVE",
"144 76 OFFCURVE",
"148 76 CURVE SMOOTH",
"157 76 OFFCURVE",
"167 73 OFFCURVE",
"174 69 CURVE",
"181 73 OFFCURVE",
"190 76 OFFCURVE",
"199 76 CURVE SMOOTH",
"203 76 OFFCURVE",
"207 75 OFFCURVE",
"211 74 CURVE",
"215 75 OFFCURVE",
"219 76 OFFCURVE",
"223 76 CURVE SMOOTH",
"232 76 OFFCURVE",
"242 73 OFFCURVE",
"249 69 CURVE",
"256 73 OFFCURVE",
"265 76 OFFCURVE",
"274 76 CURVE SMOOTH",
"278 76 OFFCURVE",
"281 75 OFFCURVE",
"285 74 CURVE",
"271 83 OFFCURVE",
"262 99 OFFCURVE",
"262 116 CURVE SMOOTH",
"262 136 OFFCURVE",
"274 152 OFFCURVE",
"291 160 CURVE",
"274 168 OFFCURVE",
"262 184 OFFCURVE",
"262 204 CURVE SMOOTH",
"262 231 OFFCURVE",
"284 253 OFFCURVE",
"311 253 CURVE SMOOTH",
"315 253 OFFCURVE",
"319 253 OFFCURVE",
"323 252 CURVE",
"309 261 OFFCURVE",
"300 276 OFFCURVE",
"300 293 CURVE SMOOTH",
"300 313 OFFCURVE",
"312 330 OFFCURVE",
"329 338 CURVE",
"327 339 OFFCURVE",
"326 339 OFFCURVE",
"324 340 CURVE",
"317 336 OFFCURVE",
"307 333 OFFCURVE",
"298 333 CURVE SMOOTH",
"294 333 OFFCURVE",
"290 334 OFFCURVE",
"286 335 CURVE",
"282 334 OFFCURVE",
"278 333 OFFCURVE",
"274 333 CURVE SMOOTH",
"265 333 OFFCURVE",
"256 336 OFFCURVE",
"249 340 CURVE",
"242 336 OFFCURVE",
"232 333 OFFCURVE",
"223 333 CURVE SMOOTH",
"219 333 OFFCURVE",
"215 334 OFFCURVE",
"211 335 CURVE",
"207 334 OFFCURVE",
"203 333 OFFCURVE",
"199 333 CURVE SMOOTH",
"172 333 OFFCURVE",
"150 355 OFFCURVE",
"150 382 CURVE SMOOTH",
"150 409 OFFCURVE",
"172 431 OFFCURVE",
"199 431 CURVE SMOOTH",
"203 431 OFFCURVE",
"207 431 OFFCURVE",
"211 430 CURVE",
"215 431 OFFCURVE",
"219 431 OFFCURVE",
"223 431 CURVE SMOOTH",
"232 431 OFFCURVE",
"242 428 OFFCURVE",
"249 424 CURVE",
"256 428 OFFCURVE",
"265 431 OFFCURVE",
"274 431 CURVE SMOOTH",
"278 431 OFFCURVE",
"282 431 OFFCURVE",
"286 430 CURVE",
"290 431 OFFCURVE",
"294 431 OFFCURVE",
"298 431 CURVE SMOOTH",
"307 431 OFFCURVE",
"317 428 OFFCURVE",
"324 424 CURVE",
"331 428 OFFCURVE",
"340 431 OFFCURVE",
"349 431 CURVE SMOOTH",
"353 431 OFFCURVE",
"357 431 OFFCURVE",
"361 430 CURVE",
"365 431 OFFCURVE",
"369 431 OFFCURVE",
"373 431 CURVE SMOOTH",
"400 431 OFFCURVE",
"422 409 OFFCURVE"
);
},
{
closed = 1;
nodes = (
"272 -151 CURVE SMOOTH",
"272 -178 OFFCURVE",
"250 -200 OFFCURVE",
"223 -200 CURVE SMOOTH",
"219 -200 OFFCURVE",
"215 -199 OFFCURVE",
"211 -198 CURVE",
"207 -199 OFFCURVE",
"203 -200 OFFCURVE",
"199 -200 CURVE SMOOTH",
"190 -200 OFFCURVE",
"181 -197 OFFCURVE",
"174 -193 CURVE",
"167 -197 OFFCURVE",
"157 -200 OFFCURVE",
"148 -200 CURVE SMOOTH",
"144 -200 OFFCURVE",
"140 -199 OFFCURVE",
"136 -198 CURVE",
"132 -199 OFFCURVE",
"128 -200 OFFCURVE",
"124 -200 CURVE SMOOTH",
"97 -200 OFFCURVE",
"75 -178 OFFCURVE",
"75 -151 CURVE SMOOTH",
"75 -124 OFFCURVE",
"97 -102 OFFCURVE",
"124 -102 CURVE SMOOTH",
"128 -102 OFFCURVE",
"132 -103 OFFCURVE",
"136 -104 CURVE",
"140 -103 OFFCURVE",
"144 -102 OFFCURVE",
"148 -102 CURVE SMOOTH",
"157 -102 OFFCURVE",
"167 -105 OFFCURVE",
"174 -109 CURVE",
"181 -105 OFFCURVE",
"190 -102 OFFCURVE",
"199 -102 CURVE SMOOTH",
"203 -102 OFFCURVE",
"207 -103 OFFCURVE",
"211 -104 CURVE",
"215 -103 OFFCURVE",
"219 -102 OFFCURVE",
"223 -102 CURVE SMOOTH",
"250 -102 OFFCURVE",
"272 -124 OFFCURVE"
);
}
);
width = 450;
}
);
unicode = 0067;
userData = {
com.fontlab.hintData = {
hhints = (
{
position = -200;
width = 98;
},
{
position = -22;
width = 98;
},
{
position = 244;
width = 98;
},
{
position = 333;
width = 98;
}
);
vhints = (
{
position = 37;
width = 123;
},
{
position = 75;
width = 272;
},
{
position = 75;
width = 197;
},
{
position = 75;
width = 122;
},
{
position = 150;
width = 272;
},
{
position = 225;
width = 122;
},
{
position = 262;
width = 123;
},
{
position = 300;
width = 122;
}
);
};
};
},
{
glyphname = h;
lastChange = "2017-08-06 04:52:05 +0000";
layers = (
{
layerId = "1F496C02-BC74-4D01-901C-8E7FF5CB5189";
paths = (
{
closed = 1;
nodes = (
"197 560 CURVE SMOOTH",
"197 540 OFFCURVE",
"186 524 OFFCURVE",
"169 516 CURVE",
"186 508 OFFCURVE",
"197 491 OFFCURVE",
"197 471 CURVE SMOOTH",
"197 451 OFFCURVE",
"186 435 OFFCURVE",
"169 427 CURVE",
"171 426 OFFCURVE",
"172 425 OFFCURVE",
"174 424 CURVE",
"181 428 OFFCURVE",
"190 431 OFFCURVE",
"199 431 CURVE SMOOTH",
"203 431 OFFCURVE",
"207 431 OFFCURVE",
"211 430 CURVE",
"215 431 OFFCURVE",
"219 431 OFFCURVE",
"223 431 CURVE SMOOTH",
"232 431 OFFCURVE",
"242 428 OFFCURVE",
"249 424 CURVE",
"256 428 OFFCURVE",
"265 431 OFFCURVE",
"274 431 CURVE SMOOTH",
"278 431 OFFCURVE",
"282 431 OFFCURVE",
"286 430 CURVE",
"290 431 OFFCURVE",
"294 431 OFFCURVE",
"298 431 CURVE SMOOTH",
"325 431 OFFCURVE",
"347 409 OFFCURVE",
"347 382 CURVE SMOOTH",
"347 365 OFFCURVE",
"338 350 OFFCURVE",
"324 341 CURVE",
"328 342 OFFCURVE",
"332 342 OFFCURVE",
"336 342 CURVE SMOOTH",
"363 342 OFFCURVE",
"385 320 OFFCURVE",
"385 293 CURVE SMOOTH",
"385 273 OFFCURVE",
"373 257 OFFCURVE",
"356 249 CURVE",
"373 241 OFFCURVE",
"385 224 OFFCURVE",
"385 204 CURVE SMOOTH",
"385 177 OFFCURVE",
"363 156 OFFCURVE",
"336 156 CURVE SMOOTH",
"332 156 OFFCURVE",
"328 156 OFFCURVE",
"324 157 CURVE",
"338 148 OFFCURVE",
"347 133 OFFCURVE",
"347 116 CURVE SMOOTH",
"347 96 OFFCURVE",
"336 79 OFFCURVE",
"319 71 CURVE",
"336 63 OFFCURVE",
"347 47 OFFCURVE",
"347 27 CURVE SMOOTH",
"347 0 OFFCURVE",
"325 -22 OFFCURVE",
"298 -22 CURVE SMOOTH",
"294 -22 OFFCURVE",
"290 -22 OFFCURVE",
"286 -21 CURVE",
"282 -22 OFFCURVE",
"278 -22 OFFCURVE",
"274 -22 CURVE SMOOTH",
"247 -22 OFFCURVE",
"225 0 OFFCURVE",
"225 27 CURVE SMOOTH",
"225 47 OFFCURVE",
"237 63 OFFCURVE",
"254 71 CURVE",
"237 79 OFFCURVE",
"225 96 OFFCURVE",
"225 116 CURVE SMOOTH",
"225 143 OFFCURVE",
"247 164 OFFCURVE",
"274 164 CURVE SMOOTH",
"278 164 OFFCURVE",
"281 164 OFFCURVE",
"285 163 CURVE",
"271 172 OFFCURVE",
"262 187 OFFCURVE",
"262 204 CURVE SMOOTH",
"262 224 OFFCURVE",
"274 241 OFFCURVE",
"291 249 CURVE",
"274 257 OFFCURVE",
"262 273 OFFCURVE",
"262 293 CURVE SMOOTH",
"262 310 OFFCURVE",
"271 326 OFFCURVE",
"285 335 CURVE",
"281 334 OFFCURVE",
"278 333 OFFCURVE",
"274 333 CURVE SMOOTH",
"265 333 OFFCURVE",
"256 336 OFFCURVE",
"249 340 CURVE",
"242 336 OFFCURVE",
"232 333 OFFCURVE",
"223 333 CURVE SMOOTH",
"219 333 OFFCURVE",
"215 334 OFFCURVE",
"211 335 CURVE",
"207 334 OFFCURVE",
"203 333 OFFCURVE",
"199 333 CURVE SMOOTH",
"190 333 OFFCURVE",
"181 336 OFFCURVE",
"174 340 CURVE",
"167 336 OFFCURVE",
"157 333 OFFCURVE",
"148 333 CURVE SMOOTH",
"144 333 OFFCURVE",
"141 334 OFFCURVE",
"137 335 CURVE",
"151 326 OFFCURVE",
"160 310 OFFCURVE",
"160 293 CURVE SMOOTH",
"160 273 OFFCURVE",
"148 257 OFFCURVE",
"131 249 CURVE",
"148 241 OFFCURVE",
"160 224 OFFCURVE",
"160 204 CURVE SMOOTH",
"160 177 OFFCURVE",
"138 156 OFFCURVE",
"111 156 CURVE SMOOTH",
"107 156 OFFCURVE",
"103 156 OFFCURVE",
"99 157 CURVE",
"113 148 OFFCURVE",
"122 133 OFFCURVE",
"122 116 CURVE SMOOTH",
"122 96 OFFCURVE",
"111 79 OFFCURVE",
"94 71 CURVE",
"111 63 OFFCURVE",
"122 47 OFFCURVE",
"122 27 CURVE SMOOTH",
"122 0 OFFCURVE",
"100 -22 OFFCURVE",
"73 -22 CURVE SMOOTH",
"69 -22 OFFCURVE",
"65 -22 OFFCURVE",
"61 -21 CURVE",
"57 -22 OFFCURVE",
"53 -22 OFFCURVE",
"49 -22 CURVE SMOOTH",
"22 -22 OFFCURVE",
"0 0 OFFCURVE",
"0 27 CURVE SMOOTH",
"0 47 OFFCURVE",
"12 63 OFFCURVE",
"29 71 CURVE",
"12 79 OFFCURVE",
"0 96 OFFCURVE",
"0 116 CURVE SMOOTH",
"0 143 OFFCURVE",
"22 164 OFFCURVE",
"49 164 CURVE SMOOTH",
"53 164 OFFCURVE",
"56 164 OFFCURVE",
"60 163 CURVE",
"46 172 OFFCURVE",
"37 187 OFFCURVE",
"37 204 CURVE SMOOTH",
"37 224 OFFCURVE",
"49 241 OFFCURVE",
"66 249 CURVE",
"49 257 OFFCURVE",
"37 273 OFFCURVE",
"37 293 CURVE SMOOTH",
"37 320 OFFCURVE",
"59 342 OFFCURVE",
"86 342 CURVE SMOOTH",
"90 342 OFFCURVE",
"94 342 OFFCURVE",
"98 341 CURVE",
"84 350 OFFCURVE",
"75 365 OFFCURVE",
"75 382 CURVE SMOOTH",
"75 402 OFFCURVE",
"87 419 OFFCURVE",
"104 427 CURVE",
"87 435 OFFCURVE",
"75 451 OFFCURVE",
"75 471 CURVE SMOOTH",
"75 491 OFFCURVE",
"87 508 OFFCURVE",
"104 516 CURVE",
"87 524 OFFCURVE",
"75 540 OFFCURVE",
"75 560 CURVE SMOOTH",
"75 587 OFFCURVE",
"97 609 OFFCURVE",
"124 609 CURVE SMOOTH",
"128 609 OFFCURVE",
"132 608 OFFCURVE",
"136 607 CURVE",
"140 608 OFFCURVE",
"144 609 OFFCURVE",
"148 609 CURVE SMOOTH",
"175 609 OFFCURVE",
"197 587 OFFCURVE"
);
}
);
width = 450;
}
);
unicode = 0068;
userData = {
com.fontlab.hintData = {
hhints = (
{
position = -22;
width = 21;
},
{
position = -22;
width = 21;
},
{
position = 333;
width = 98;
},
{
position = 589;
width = 20;
}
);
vhints = (
{
position = 0;
width = 122;
},
{
position = 37;
width = 123;
},
{
position = 75;
width = 122;
},
{
position = 225;
width = 122;
},
{
position = 262;
width = 123;
}
);
};
};
},
{
glyphname = i;
lastChange = "2017-08-06 04:52:05 +0000";
layers = (
{
layerId = "1F496C02-BC74-4D01-901C-8E7FF5CB5189";
paths = (
{
closed = 1;
nodes = (
"347 560 CURVE SMOOTH",
"347 533 OFFCURVE",
"325 511 OFFCURVE",
"298 511 CURVE SMOOTH",
"294 511 OFFCURVE",
"290 512 OFFCURVE",
"286 513 CURVE",
"282 512 OFFCURVE",
"278 511 OFFCURVE",
"274 511 CURVE SMOOTH",
"247 511 OFFCURVE",
"225 533 OFFCURVE",
"225 560 CURVE SMOOTH",
"225 587 OFFCURVE",
"247 609 OFFCURVE",
"274 609 CURVE SMOOTH",
"278 609 OFFCURVE",
"282 608 OFFCURVE",
"286 607 CURVE",
"290 608 OFFCURVE",
"294 609 OFFCURVE",
"298 609 CURVE SMOOTH",
"325 609 OFFCURVE",
"347 587 OFFCURVE"
);
},
{
closed = 1;
nodes = (
"310 382 CURVE SMOOTH",
"310 355 OFFCURVE",
"288 333 OFFCURVE",
"261 333 CURVE SMOOTH",
"257 333 OFFCURVE",
"253 334 OFFCURVE",
"249 335 CURVE",
"263 326 OFFCURVE",
"272 310 OFFCURVE",
"272 293 CURVE SMOOTH",
"272 273 OFFCURVE",
"261 257 OFFCURVE",
"244 249 CURVE",
"261 241 OFFCURVE",
"272 224 OFFCURVE",
"272 204 CURVE SMOOTH",
"272 177 OFFCURVE",
"250 156 OFFCURVE",
"223 156 CURVE SMOOTH",
"219 156 OFFCURVE",
"216 156 OFFCURVE",
"212 157 CURVE",
"226 148 OFFCURVE",
"235 133 OFFCURVE",
"235 116 CURVE SMOOTH",
"235 96 OFFCURVE",
"223 79 OFFCURVE",
"206 71 CURVE",
"208 70 OFFCURVE",
"209 70 OFFCURVE",
"211 69 CURVE",
"218 73 OFFCURVE",
"227 76 OFFCURVE",
"236 76 CURVE SMOOTH",
"240 76 OFFCURVE",
"245 75 OFFCURVE",
"249 74 CURVE",
"253 75 OFFCURVE",
"257 76 OFFCURVE",
"261 76 CURVE SMOOTH",
"288 76 OFFCURVE",
"310 54 OFFCURVE",
"310 27 CURVE SMOOTH",
"310 0 OFFCURVE",
"288 -22 OFFCURVE",
"261 -22 CURVE SMOOTH",
"257 -22 OFFCURVE",
"253 -22 OFFCURVE",
"249 -21 CURVE",
"245 -22 OFFCURVE",
"240 -22 OFFCURVE",
"236 -22 CURVE SMOOTH",
"227 -22 OFFCURVE",
"218 -19 OFFCURVE",
"211 -15 CURVE",
"204 -19 OFFCURVE",
"195 -22 OFFCURVE",
"186 -22 CURVE SMOOTH",
"182 -22 OFFCURVE",
"178 -22 OFFCURVE",
"174 -21 CURVE",
"170 -22 OFFCURVE",
"165 -22 OFFCURVE",
"161 -22 CURVE SMOOTH",
"152 -22 OFFCURVE",
"143 -19 OFFCURVE",
"136 -15 CURVE",
"129 -19 OFFCURVE",
"120 -22 OFFCURVE",
"111 -22 CURVE SMOOTH",
"107 -22 OFFCURVE",
"103 -22 OFFCURVE",
"99 -21 CURVE",
"95 -22 OFFCURVE",
"90 -22 OFFCURVE",
"86 -22 CURVE SMOOTH",
"59 -22 OFFCURVE",
"37 0 OFFCURVE",
"37 27 CURVE SMOOTH",
"37 54 OFFCURVE",
"59 76 OFFCURVE",
"86 76 CURVE SMOOTH",
"90 76 OFFCURVE",
"95 75 OFFCURVE",
"99 74 CURVE",
"103 75 OFFCURVE",
"107 76 OFFCURVE",
"111 76 CURVE SMOOTH",
"120 76 OFFCURVE",
"129 73 OFFCURVE",
"136 69 CURVE",
"138 70 OFFCURVE",
"139 70 OFFCURVE",
"141 71 CURVE",
"124 79 OFFCURVE",
"112 96 OFFCURVE",
"112 116 CURVE SMOOTH",
"112 143 OFFCURVE",
"134 164 OFFCURVE",
"161 164 CURVE SMOOTH",
"165 164 OFFCURVE",
"169 164 OFFCURVE",
"173 163 CURVE",
"159 172 OFFCURVE",
"150 187 OFFCURVE",
"150 204 CURVE SMOOTH",
"150 224 OFFCURVE",
"162 241 OFFCURVE",
"179 249 CURVE",
"162 257 OFFCURVE",
"150 273 OFFCURVE",
"150 293 CURVE SMOOTH",
"150 310 OFFCURVE",
"159 326 OFFCURVE",
"173 335 CURVE",
"169 334 OFFCURVE",
"165 333 OFFCURVE",
"161 333 CURVE SMOOTH",
"134 333 OFFCURVE",
"112 355 OFFCURVE",
"112 382 CURVE SMOOTH",
"112 409 OFFCURVE",
"134 431 OFFCURVE",
"161 431 CURVE SMOOTH",
"165 431 OFFCURVE",
"170 431 OFFCURVE",
"174 430 CURVE",
"178 431 OFFCURVE",
"182 431 OFFCURVE",
"186 431 CURVE SMOOTH",
"195 431 OFFCURVE",
"204 428 OFFCURVE",
"211 424 CURVE",
"218 428 OFFCURVE",
"227 431 OFFCURVE",
"236 431 CURVE SMOOTH",
"240 431 OFFCURVE",
"245 431 OFFCURVE",
"249 430 CURVE",
"253 431 OFFCURVE",
"257 431 OFFCURVE",
"261 431 CURVE SMOOTH",
"288 431 OFFCURVE",
"310 409 OFFCURVE"
);
}
);
width = 450;
}
);
unicode = 0069;
userData = {
com.fontlab.hintData = {
hhints = (
{
position = -22;
width = 98;
},
{
position = 333;
width = 98;
},
{
position = 511;
width = 98;
}
);
vhints = (
{
position = 37;
width = 273;
},
{
position = 112;
width = 198;
},
{
position = 112;
width = 123;
},
{
position = 150;
width = 122;
},
{
position = 225;
width = 122;
}
);
};
};
},
